M48
; DRILL file {KiCad (5.1.4)-1} date 27/11/2019 15:40:35
; FORMAT={-:-/ absolute / inch / decimal}
; #@! TF.CreationDate,2019-11-27T15:40:35+01:00
; #@! TF.GenerationSoftware,Kicad,Pcbnew,(5.1.4)-1
; #@! TF.FileFunction,Plated,1,2,PTH
FMAT,2
INCH
T1C0.0118
T2C0.0394
T3C0.0394
T4C0.1200
%
G90
G05
T1
X1.524Y-2.7535
X1.524Y-3.001
X1.525Y-2.8465
X1.5315Y-0.9567
X1.5413Y-1.189
X1.551Y-3.269
X1.5512Y-3.4469
X1.5531Y-2.687
X1.5591Y-1.3465
X1.563Y-2.1969
X1.5768Y-2.0472
X1.6005Y-2.2825
X1.603Y-2.66
X1.605Y-3.175
X1.605Y-3.34
X1.6083Y-3.1102
X1.622Y-3.5079
X1.631Y-2.2795
X1.631Y-2.661
X1.64Y-2.52
X1.6437Y-0.9213
X1.649Y-2.703
X1.6516Y-1.2461
X1.6525Y-1.9375
X1.6555Y-2.0472
X1.658Y-2.28
X1.659Y-2.6615
X1.6831Y-3.3465
X1.71Y-2.5074
X1.717Y-3.2475
X1.72Y-2.02
X1.72Y-2.05
X1.72Y-2.08
X1.72Y-2.115
X1.72Y-2.45
X1.725Y-2.175
X1.725Y-2.205
X1.725Y-2.235
X1.725Y-2.27
X1.725Y-3.445
X1.7275Y-1.6325
X1.76Y-3.505
X1.7606Y-1.4697
X1.763Y-1.757
X1.7661Y-2.5594
X1.7677Y-2.689
X1.77Y-2.605
X1.775Y-3.155
X1.7756Y-2.3449
X1.7756Y-2.3728
X1.7764Y-2.3193
X1.78Y-3.445
X1.78Y-3.575
X1.7826Y-2.58
X1.7942Y-2.4289
X1.795Y-2.62
X1.81Y-1.8981
X1.81Y-3.38
X1.8225Y-2.5105
X1.8307Y-3.2717
X1.832Y-1.3495
X1.84Y-2.814
X1.895Y-2.53
X1.905Y-3.38
X1.9154Y-1.2283
X1.94Y-3.165
X1.9488Y-0.9508
X1.955Y-3.009
X1.962Y-1.3485
X1.97Y-2.45
X1.976Y-1.6059
X1.9764Y-3.2697
X1.9941Y-1.0945
X2.005Y-2.789
X2.0055Y-2.9585
X2.01Y-1.9325
X2.01Y-3.36
X2.02Y-3.45
X2.02Y-3.56
X2.045Y-3.465
X2.0595Y-2.1255
X2.075Y-2.245
X2.075Y-2.804
X2.0768Y-1.4173
X2.0921Y-3.1685
X2.0945Y-1.9205
X2.1098Y-3.5689
X2.1102Y-3.3988
X2.1114Y-3.5205
X2.1114Y-3.5449
X2.1118Y-3.4488
X2.1118Y-3.4724
X2.1118Y-3.4965
X2.1122Y-3.4252
X2.125Y-1.8675
X2.128Y-1.3661
X2.135Y-3.4055
X2.1496Y-1.5079
X2.159Y-3.4047
X2.1701Y-1.7913
X2.183Y-3.403
X2.1846Y-3.3327
X2.185Y-3.21
X2.185Y-3.235
X2.185Y-3.26
X2.185Y-3.285
X2.185Y-3.31
X2.185Y-3.355
X2.185Y-3.379
X2.187Y-1.2618
X2.187Y-3.1854
X2.21Y-2.31
X2.2118Y-3.187
X2.2135Y-1.656
X2.2145Y-1.6325
X2.216Y-1.68
X2.2235Y-2.6875
X2.229Y-2.395
X2.2335Y-1.614
X2.237Y-3.187
X2.2516Y-2.0252
X2.2614Y-3.1988
X2.265Y-1.83
X2.265Y-3.23
X2.265Y-3.255
X2.265Y-3.28
X2.265Y-3.305
X2.265Y-3.35
X2.2657Y-3.3921
X2.2725Y-2.1344
X2.2752Y-3.328
X2.278Y-3.3705
X2.289Y-3.405
X2.294Y-2.476
X2.3056Y-2.5224
X2.312Y-2.172
X2.315Y-3.405
X2.32Y-3.145
X2.3268Y-3.5701
X2.3272Y-3.522
X2.3272Y-3.5461
X2.3276Y-3.4256
X2.3276Y-3.45
X2.3276Y-3.474
X2.3276Y-3.498
X2.3376Y-1.8672
X2.3406Y-1.6142
X2.3406Y-1.6969
X2.3429Y-3.5886
X2.3465Y-1.2244
X2.3475Y-2.21
X2.348Y-2.174
X2.3642Y-1.6102
X2.3661Y-1.6969
X2.3675Y-2.395
X2.376Y-1.872
X2.3819Y-1.5906
X2.3898Y-1.6949
X2.3961Y-2.0256
X2.3996Y-1.5728
X2.4035Y-1.3268
X2.4035Y-1.3681
X2.4055Y-1.2657
X2.41Y-2.37
X2.4114Y-1.6791
X2.4121Y-2.5519
X2.4173Y-1.5551
X2.42Y-3.5
X2.425Y-3.545
X2.4311Y-1.6614
X2.435Y-1.5374
X2.44Y-3.435
X2.4488Y-1.6437
X2.4543Y-2.0492
X2.4606Y-1.5295
X2.4626Y-1.25
X2.4646Y-1.626
X2.465Y-2.715
X2.475Y-2.0
X2.4783Y-0.9606
X2.4823Y-1.5295
X2.4862Y-1.6142
X2.4882Y-1.3799
X2.4882Y-1.4114
X2.4882Y-1.435
X2.4882Y-1.4587
X2.4882Y-1.4823
X2.4882Y-1.5059
X2.49Y-3.385
X2.502Y-1.1043
X2.5098Y-1.6142
X2.518Y-2.274
X2.5295Y-1.252
X2.5295Y-1.3012
X2.5295Y-1.3386
X2.5335Y-1.6122
X2.5394Y-1.7087
X2.5454Y-2.395
X2.5591Y-1.6122
X2.56Y-2.4486
X2.5709Y-1.374
X2.5709Y-1.4075
X2.5709Y-1.4311
X2.5709Y-1.4547
X2.5709Y-1.4783
X2.5709Y-1.502
X2.5728Y-1.5256
X2.575Y-1.885
X2.58Y-2.71
X2.5846Y-1.6083
X2.59Y-2.485
X2.59Y-2.54
X2.5906Y-1.252
X2.5965Y-1.5236
X2.605Y-3.38
X2.61Y-2.455
X2.6122Y-1.4016
X2.6122Y-1.6063
X2.615Y-2.0649
X2.615Y-2.1344
X2.6201Y-1.5177
X2.63Y-1.88
X2.6358Y-1.6004
X2.64Y-1.995
X2.6437Y-1.5098
X2.6437Y-2.0895
X2.645Y-2.16
X2.6476Y-1.2559
X2.6535Y-1.3858
X2.655Y-3.42
X2.6594Y-1.5906
X2.66Y-2.02
X2.66Y-3.335
X2.6614Y-1.3169
X2.6673Y-1.5039
X2.675Y-3.53
X2.6831Y-1.5827
X2.685Y-1.815
X2.6909Y-1.4961
X2.6929Y-1.685
X2.7067Y-1.5748
X2.7146Y-1.4902
X2.72Y-1.94
X2.7303Y-1.5669
X2.7303Y-1.8406
X2.7382Y-1.4862
X2.7539Y-1.561
X2.7618Y-1.4803
X2.7736Y-2.5433
X2.776Y-1.7161
X2.776Y-1.7697
X2.7764Y-1.6886
X2.7768Y-1.6382
X2.7768Y-1.6642
X2.7768Y-1.7965
X2.7772Y-1.6118
X2.7772Y-1.7413
X2.778Y-1.5606
X2.7783Y-1.5862
X2.7783Y-1.8272
X2.7795Y-1.4626
X2.7795Y-2.7067
X2.7854Y-1.435
X2.7913Y-2.8661
X2.7933Y-3.0669
X2.8016Y-1.8366
X2.815Y-1.4291
X2.815Y-3.465
X2.819Y-1.5045
X2.8291Y-1.8378
X2.835Y-3.56
X2.84Y-3.355
X2.8406Y-1.4291
X2.8465Y-3.185
X2.8484Y-2.9724
X2.8504Y-1.9075
X2.8563Y-2.3819
X2.8571Y-1.837
X2.8622Y-2.5689
X2.8661Y-1.4283
X2.872Y-0.9547
X2.8752Y-1.8634
X2.8799Y-1.8398
X2.8819Y-2.7677
X2.8858Y-2.1614
X2.8898Y-1.4268
X2.8937Y-1.2854
X2.8961Y-1.8787
X2.8996Y-2.498
X2.9075Y-2.8799
X2.9094Y-2.998
X2.9114Y-1.4272
X2.9114Y-3.5138
X2.9134Y-2.0354
X2.9134Y-2.6791
X2.9134Y-3.248
X2.9189Y-1.8846
X2.9213Y-2.2756
X2.937Y-1.4272
T2
X1.646Y-1.354
X1.646Y-1.454
T3
X1.95Y-2.66
X1.66Y-2.165
T4
X1.715Y-1.0975
X2.2225Y-1.1
X2.73Y-1.095
T0
M30
