G04 #@! TF.GenerationSoftware,KiCad,Pcbnew,(5.1.4)-1*
G04 #@! TF.CreationDate,2019-11-27T15:40:33+01:00*
G04 #@! TF.ProjectId,picoballoon,7069636f-6261-46c6-9c6f-6f6e2e6b6963,rev?*
G04 #@! TF.SameCoordinates,Original*
G04 #@! TF.FileFunction,Soldermask,Top*
G04 #@! TF.FilePolarity,Negative*
%FSLAX46Y46*%
G04 Gerber Fmt 4.6, Leading zero omitted, Abs format (unit mm)*
G04 Created by KiCad (PCBNEW (5.1.4)-1) date 2019-11-27 15:40:33*
%MOMM*%
%LPD*%
G04 APERTURE LIST*
%ADD10C,0.100000*%
G04 APERTURE END LIST*
D10*
G36*
X58521800Y-91224300D02*
G01*
X54355800Y-91224300D01*
X54355800Y-87058300D01*
X58521800Y-87058300D01*
X58521800Y-91224300D01*
X58521800Y-91224300D01*
G37*
G36*
X66535500Y-91110000D02*
G01*
X62369500Y-91110000D01*
X62369500Y-86944000D01*
X66535500Y-86944000D01*
X66535500Y-91110000D01*
X66535500Y-91110000D01*
G37*
G36*
X50470000Y-91110000D02*
G01*
X46304000Y-91110000D01*
X46304000Y-86944000D01*
X50470000Y-86944000D01*
X50470000Y-91110000D01*
X50470000Y-91110000D01*
G37*
G36*
X71051000Y-83600000D02*
G01*
X69949000Y-83600000D01*
X69949000Y-81498000D01*
X71051000Y-81498000D01*
X71051000Y-83600000D01*
X71051000Y-83600000D01*
G37*
G36*
X57051000Y-83600000D02*
G01*
X55949000Y-83600000D01*
X55949000Y-81498000D01*
X57051000Y-81498000D01*
X57051000Y-83600000D01*
X57051000Y-83600000D01*
G37*
G36*
X59051000Y-83600000D02*
G01*
X57949000Y-83600000D01*
X57949000Y-81498000D01*
X59051000Y-81498000D01*
X59051000Y-83600000D01*
X59051000Y-83600000D01*
G37*
G36*
X61051000Y-83600000D02*
G01*
X59949000Y-83600000D01*
X59949000Y-81498000D01*
X61051000Y-81498000D01*
X61051000Y-83600000D01*
X61051000Y-83600000D01*
G37*
G36*
X65051000Y-83600000D02*
G01*
X63949000Y-83600000D01*
X63949000Y-81498000D01*
X65051000Y-81498000D01*
X65051000Y-83600000D01*
X65051000Y-83600000D01*
G37*
G36*
X67051000Y-83600000D02*
G01*
X65949000Y-83600000D01*
X65949000Y-81498000D01*
X67051000Y-81498000D01*
X67051000Y-83600000D01*
X67051000Y-83600000D01*
G37*
G36*
X69051000Y-83600000D02*
G01*
X67949000Y-83600000D01*
X67949000Y-81498000D01*
X69051000Y-81498000D01*
X69051000Y-83600000D01*
X69051000Y-83600000D01*
G37*
G36*
X63051000Y-83600000D02*
G01*
X61949000Y-83600000D01*
X61949000Y-81498000D01*
X63051000Y-81498000D01*
X63051000Y-83600000D01*
X63051000Y-83600000D01*
G37*
G36*
X54515300Y-80245800D02*
G01*
X53663300Y-80245800D01*
X53663300Y-79343800D01*
X54515300Y-79343800D01*
X54515300Y-80245800D01*
X54515300Y-80245800D01*
G37*
G36*
X54515300Y-78745800D02*
G01*
X53663300Y-78745800D01*
X53663300Y-77843800D01*
X54515300Y-77843800D01*
X54515300Y-78745800D01*
X54515300Y-78745800D01*
G37*
G36*
X52548000Y-78684600D02*
G01*
X51846000Y-78684600D01*
X51846000Y-77032600D01*
X52548000Y-77032600D01*
X52548000Y-78684600D01*
X52548000Y-78684600D01*
G37*
G36*
X50008000Y-78684600D02*
G01*
X49306000Y-78684600D01*
X49306000Y-77032600D01*
X50008000Y-77032600D01*
X50008000Y-78684600D01*
X50008000Y-78684600D01*
G37*
G36*
X48738000Y-78684600D02*
G01*
X48036000Y-78684600D01*
X48036000Y-77032600D01*
X48738000Y-77032600D01*
X48738000Y-78684600D01*
X48738000Y-78684600D01*
G37*
G36*
X51278000Y-78684600D02*
G01*
X50576000Y-78684600D01*
X50576000Y-77032600D01*
X51278000Y-77032600D01*
X51278000Y-78684600D01*
X51278000Y-78684600D01*
G37*
G36*
X43365000Y-78505600D02*
G01*
X42463000Y-78505600D01*
X42463000Y-77653600D01*
X43365000Y-77653600D01*
X43365000Y-78505600D01*
X43365000Y-78505600D01*
G37*
G36*
X41865000Y-78505600D02*
G01*
X40963000Y-78505600D01*
X40963000Y-77653600D01*
X41865000Y-77653600D01*
X41865000Y-78505600D01*
X41865000Y-78505600D01*
G37*
G36*
X44715000Y-77201600D02*
G01*
X42613000Y-77201600D01*
X42613000Y-75099600D01*
X44715000Y-75099600D01*
X44715000Y-77201600D01*
X44715000Y-77201600D01*
G37*
G36*
X41715000Y-77201600D02*
G01*
X39613000Y-77201600D01*
X39613000Y-75099600D01*
X41715000Y-75099600D01*
X41715000Y-77201600D01*
X41715000Y-77201600D01*
G37*
G36*
X47162000Y-74327600D02*
G01*
X46310000Y-74327600D01*
X46310000Y-73425600D01*
X47162000Y-73425600D01*
X47162000Y-74327600D01*
X47162000Y-74327600D01*
G37*
G36*
X44715000Y-74201600D02*
G01*
X42613000Y-74201600D01*
X42613000Y-72099600D01*
X44715000Y-72099600D01*
X44715000Y-74201600D01*
X44715000Y-74201600D01*
G37*
G36*
X41715000Y-74201600D02*
G01*
X39613000Y-74201600D01*
X39613000Y-72099600D01*
X41715000Y-72099600D01*
X41715000Y-74201600D01*
X41715000Y-74201600D01*
G37*
G36*
X51278000Y-73284600D02*
G01*
X50576000Y-73284600D01*
X50576000Y-71632600D01*
X51278000Y-71632600D01*
X51278000Y-73284600D01*
X51278000Y-73284600D01*
G37*
G36*
X50008000Y-73284600D02*
G01*
X49306000Y-73284600D01*
X49306000Y-71632600D01*
X50008000Y-71632600D01*
X50008000Y-73284600D01*
X50008000Y-73284600D01*
G37*
G36*
X52548000Y-73284600D02*
G01*
X51846000Y-73284600D01*
X51846000Y-71632600D01*
X52548000Y-71632600D01*
X52548000Y-73284600D01*
X52548000Y-73284600D01*
G37*
G36*
X48738000Y-73284600D02*
G01*
X48036000Y-73284600D01*
X48036000Y-71632600D01*
X48738000Y-71632600D01*
X48738000Y-73284600D01*
X48738000Y-73284600D01*
G37*
G36*
X47162000Y-72827600D02*
G01*
X46310000Y-72827600D01*
X46310000Y-71925600D01*
X47162000Y-71925600D01*
X47162000Y-72827600D01*
X47162000Y-72827600D01*
G37*
G36*
X49909393Y-66313304D02*
G01*
X50146101Y-66411352D01*
X50146103Y-66411353D01*
X50359135Y-66553696D01*
X50540304Y-66734865D01*
X50577812Y-66791000D01*
X50682648Y-66947899D01*
X50780696Y-67184607D01*
X50830680Y-67435893D01*
X50830680Y-67692107D01*
X50780696Y-67943393D01*
X50682648Y-68180101D01*
X50682647Y-68180103D01*
X50540304Y-68393135D01*
X50359135Y-68574304D01*
X50146103Y-68716647D01*
X50146102Y-68716648D01*
X50146101Y-68716648D01*
X49909393Y-68814696D01*
X49658107Y-68864680D01*
X49401893Y-68864680D01*
X49150607Y-68814696D01*
X48913899Y-68716648D01*
X48913898Y-68716648D01*
X48913897Y-68716647D01*
X48700865Y-68574304D01*
X48519696Y-68393135D01*
X48377353Y-68180103D01*
X48377352Y-68180101D01*
X48279304Y-67943393D01*
X48229320Y-67692107D01*
X48229320Y-67435893D01*
X48279304Y-67184607D01*
X48377352Y-66947899D01*
X48482188Y-66791000D01*
X48519696Y-66734865D01*
X48700865Y-66553696D01*
X48913897Y-66411353D01*
X48913899Y-66411352D01*
X49150607Y-66313304D01*
X49401893Y-66263320D01*
X49658107Y-66263320D01*
X49909393Y-66313304D01*
X49909393Y-66313304D01*
G37*
G36*
X65051000Y-67600000D02*
G01*
X63949000Y-67600000D01*
X63949000Y-65498000D01*
X65051000Y-65498000D01*
X65051000Y-67600000D01*
X65051000Y-67600000D01*
G37*
G36*
X69051000Y-67600000D02*
G01*
X67949000Y-67600000D01*
X67949000Y-65498000D01*
X69051000Y-65498000D01*
X69051000Y-67600000D01*
X69051000Y-67600000D01*
G37*
G36*
X57051000Y-67600000D02*
G01*
X55949000Y-67600000D01*
X55949000Y-65498000D01*
X57051000Y-65498000D01*
X57051000Y-67600000D01*
X57051000Y-67600000D01*
G37*
G36*
X59051000Y-67600000D02*
G01*
X57949000Y-67600000D01*
X57949000Y-65498000D01*
X59051000Y-65498000D01*
X59051000Y-67600000D01*
X59051000Y-67600000D01*
G37*
G36*
X61051000Y-67600000D02*
G01*
X59949000Y-67600000D01*
X59949000Y-65498000D01*
X61051000Y-65498000D01*
X61051000Y-67600000D01*
X61051000Y-67600000D01*
G37*
G36*
X63051000Y-67600000D02*
G01*
X61949000Y-67600000D01*
X61949000Y-65498000D01*
X63051000Y-65498000D01*
X63051000Y-67600000D01*
X63051000Y-67600000D01*
G37*
G36*
X67051000Y-67600000D02*
G01*
X65949000Y-67600000D01*
X65949000Y-65498000D01*
X67051000Y-65498000D01*
X67051000Y-67600000D01*
X67051000Y-67600000D01*
G37*
G36*
X71051000Y-67600000D02*
G01*
X69949000Y-67600000D01*
X69949000Y-65498000D01*
X71051000Y-65498000D01*
X71051000Y-67600000D01*
X71051000Y-67600000D01*
G37*
G36*
X41828000Y-67101300D02*
G01*
X40976000Y-67101300D01*
X40976000Y-66199300D01*
X41828000Y-66199300D01*
X41828000Y-67101300D01*
X41828000Y-67101300D01*
G37*
G36*
X53198000Y-66791000D02*
G01*
X51596000Y-66791000D01*
X51596000Y-65689000D01*
X53198000Y-65689000D01*
X53198000Y-66791000D01*
X53198000Y-66791000D01*
G37*
G36*
X48191000Y-65958000D02*
G01*
X47289000Y-65958000D01*
X47289000Y-65106000D01*
X48191000Y-65106000D01*
X48191000Y-65958000D01*
X48191000Y-65958000D01*
G37*
G36*
X46691000Y-65958000D02*
G01*
X45789000Y-65958000D01*
X45789000Y-65106000D01*
X46691000Y-65106000D01*
X46691000Y-65958000D01*
X46691000Y-65958000D01*
G37*
G36*
X41828000Y-65601300D02*
G01*
X40976000Y-65601300D01*
X40976000Y-64699300D01*
X41828000Y-64699300D01*
X41828000Y-65601300D01*
X41828000Y-65601300D01*
G37*
G36*
X57540600Y-64610600D02*
G01*
X56938600Y-64610600D01*
X56938600Y-63608600D01*
X57540600Y-63608600D01*
X57540600Y-64610600D01*
X57540600Y-64610600D01*
G37*
G36*
X56040600Y-64610600D02*
G01*
X55438600Y-64610600D01*
X55438600Y-63608600D01*
X56040600Y-63608600D01*
X56040600Y-64610600D01*
X56040600Y-64610600D01*
G37*
G36*
X53198000Y-64187500D02*
G01*
X51596000Y-64187500D01*
X51596000Y-63085500D01*
X53198000Y-63085500D01*
X53198000Y-64187500D01*
X53198000Y-64187500D01*
G37*
G36*
X71528000Y-64014000D02*
G01*
X68426000Y-64014000D01*
X68426000Y-62412000D01*
X71528000Y-62412000D01*
X71528000Y-64014000D01*
X71528000Y-64014000D01*
G37*
G36*
X49640000Y-63908000D02*
G01*
X48438000Y-63908000D01*
X48438000Y-61556000D01*
X49640000Y-61556000D01*
X49640000Y-63908000D01*
X49640000Y-63908000D01*
G37*
G36*
X45340000Y-63908000D02*
G01*
X44138000Y-63908000D01*
X44138000Y-61556000D01*
X45340000Y-61556000D01*
X45340000Y-63908000D01*
X45340000Y-63908000D01*
G37*
G36*
X41928400Y-63433400D02*
G01*
X40926400Y-63433400D01*
X40926400Y-62831400D01*
X41928400Y-62831400D01*
X41928400Y-63433400D01*
X41928400Y-63433400D01*
G37*
G36*
X57540600Y-63035800D02*
G01*
X56938600Y-63035800D01*
X56938600Y-62033800D01*
X57540600Y-62033800D01*
X57540600Y-63035800D01*
X57540600Y-63035800D01*
G37*
G36*
X56040600Y-63035800D02*
G01*
X55438600Y-63035800D01*
X55438600Y-62033800D01*
X56040600Y-62033800D01*
X56040600Y-63035800D01*
X56040600Y-63035800D01*
G37*
G36*
X62543000Y-62858000D02*
G01*
X61941000Y-62858000D01*
X61941000Y-61856000D01*
X62543000Y-61856000D01*
X62543000Y-62858000D01*
X62543000Y-62858000D01*
G37*
G36*
X64043000Y-62858000D02*
G01*
X63441000Y-62858000D01*
X63441000Y-61856000D01*
X64043000Y-61856000D01*
X64043000Y-62858000D01*
X64043000Y-62858000D01*
G37*
G36*
X53695800Y-62206300D02*
G01*
X51053800Y-62206300D01*
X51053800Y-59434300D01*
X53695800Y-59434300D01*
X53695800Y-62206300D01*
X53695800Y-62206300D01*
G37*
G36*
X41928400Y-61933400D02*
G01*
X40926400Y-61933400D01*
X40926400Y-61331400D01*
X41928400Y-61331400D01*
X41928400Y-61933400D01*
X41928400Y-61933400D01*
G37*
G36*
X71528000Y-61514000D02*
G01*
X68426000Y-61514000D01*
X68426000Y-59912000D01*
X71528000Y-59912000D01*
X71528000Y-61514000D01*
X71528000Y-61514000D01*
G37*
G36*
X62543000Y-61334000D02*
G01*
X61941000Y-61334000D01*
X61941000Y-60332000D01*
X62543000Y-60332000D01*
X62543000Y-61334000D01*
X62543000Y-61334000D01*
G37*
G36*
X64043000Y-61334000D02*
G01*
X63441000Y-61334000D01*
X63441000Y-60332000D01*
X64043000Y-60332000D01*
X64043000Y-61334000D01*
X64043000Y-61334000D01*
G37*
G36*
X41840700Y-60764000D02*
G01*
X40988700Y-60764000D01*
X40988700Y-59862000D01*
X41840700Y-59862000D01*
X41840700Y-60764000D01*
X41840700Y-60764000D01*
G37*
G36*
X54923000Y-60191000D02*
G01*
X54321000Y-60191000D01*
X54321000Y-59189000D01*
X54923000Y-59189000D01*
X54923000Y-60191000D01*
X54923000Y-60191000D01*
G37*
G36*
X56423000Y-60191000D02*
G01*
X55821000Y-60191000D01*
X55821000Y-59189000D01*
X56423000Y-59189000D01*
X56423000Y-60191000D01*
X56423000Y-60191000D01*
G37*
G36*
X48254500Y-60116000D02*
G01*
X47352500Y-60116000D01*
X47352500Y-59264000D01*
X48254500Y-59264000D01*
X48254500Y-60116000D01*
X48254500Y-60116000D01*
G37*
G36*
X46754500Y-60116000D02*
G01*
X45852500Y-60116000D01*
X45852500Y-59264000D01*
X46754500Y-59264000D01*
X46754500Y-60116000D01*
X46754500Y-60116000D01*
G37*
G36*
X62312000Y-59735000D02*
G01*
X61410000Y-59735000D01*
X61410000Y-58883000D01*
X62312000Y-58883000D01*
X62312000Y-59735000D01*
X62312000Y-59735000D01*
G37*
G36*
X63812000Y-59735000D02*
G01*
X62910000Y-59735000D01*
X62910000Y-58883000D01*
X63812000Y-58883000D01*
X63812000Y-59735000D01*
X63812000Y-59735000D01*
G37*
G36*
X41840700Y-59264000D02*
G01*
X40988700Y-59264000D01*
X40988700Y-58362000D01*
X41840700Y-58362000D01*
X41840700Y-59264000D01*
X41840700Y-59264000D01*
G37*
G36*
X71528000Y-59014000D02*
G01*
X68426000Y-59014000D01*
X68426000Y-57412000D01*
X71528000Y-57412000D01*
X71528000Y-59014000D01*
X71528000Y-59014000D01*
G37*
G36*
X53060800Y-58901300D02*
G01*
X51688800Y-58901300D01*
X51688800Y-58037300D01*
X53060800Y-58037300D01*
X53060800Y-58901300D01*
X53060800Y-58901300D01*
G37*
G36*
X62870000Y-58391000D02*
G01*
X57018000Y-58391000D01*
X57018000Y-56989000D01*
X62870000Y-56989000D01*
X62870000Y-58391000D01*
X62870000Y-58391000D01*
G37*
G36*
X46491000Y-57689000D02*
G01*
X44439000Y-57689000D01*
X44439000Y-55087000D01*
X46491000Y-55087000D01*
X46491000Y-57689000D01*
X46491000Y-57689000D01*
G37*
G36*
X49541000Y-57689000D02*
G01*
X47489000Y-57689000D01*
X47489000Y-55087000D01*
X49541000Y-55087000D01*
X49541000Y-57689000D01*
X49541000Y-57689000D01*
G37*
G36*
X71528000Y-56514000D02*
G01*
X68426000Y-56514000D01*
X68426000Y-54912000D01*
X71528000Y-54912000D01*
X71528000Y-56514000D01*
X71528000Y-56514000D01*
G37*
G36*
X42543393Y-53740304D02*
G01*
X42780101Y-53838352D01*
X42780103Y-53838353D01*
X42993135Y-53980696D01*
X43174304Y-54161865D01*
X43316647Y-54374897D01*
X43316648Y-54374899D01*
X43414696Y-54611607D01*
X43464680Y-54862893D01*
X43464680Y-55119107D01*
X43414696Y-55370393D01*
X43396633Y-55414000D01*
X43316647Y-55607103D01*
X43174304Y-55820135D01*
X42993135Y-56001304D01*
X42780103Y-56143647D01*
X42780102Y-56143648D01*
X42780101Y-56143648D01*
X42543393Y-56241696D01*
X42292107Y-56291680D01*
X42035893Y-56291680D01*
X41784607Y-56241696D01*
X41547899Y-56143648D01*
X41547898Y-56143648D01*
X41547897Y-56143647D01*
X41334865Y-56001304D01*
X41153696Y-55820135D01*
X41011353Y-55607103D01*
X40931367Y-55414000D01*
X40913304Y-55370393D01*
X40863320Y-55119107D01*
X40863320Y-54862893D01*
X40913304Y-54611607D01*
X41011352Y-54374899D01*
X41011353Y-54374897D01*
X41153696Y-54161865D01*
X41334865Y-53980696D01*
X41547897Y-53838353D01*
X41547899Y-53838352D01*
X41784607Y-53740304D01*
X42035893Y-53690320D01*
X42292107Y-53690320D01*
X42543393Y-53740304D01*
X42543393Y-53740304D01*
G37*
G36*
X64995000Y-56266000D02*
G01*
X63593000Y-56266000D01*
X63593000Y-50414000D01*
X64995000Y-50414000D01*
X64995000Y-56266000D01*
X64995000Y-56266000D01*
G37*
G36*
X56295000Y-56266000D02*
G01*
X54893000Y-56266000D01*
X54893000Y-50414000D01*
X56295000Y-50414000D01*
X56295000Y-56266000D01*
X56295000Y-56266000D01*
G37*
G36*
X51988000Y-55938000D02*
G01*
X51136000Y-55938000D01*
X51136000Y-55036000D01*
X51988000Y-55036000D01*
X51988000Y-55938000D01*
X51988000Y-55938000D01*
G37*
G36*
X53512000Y-55938000D02*
G01*
X52660000Y-55938000D01*
X52660000Y-55036000D01*
X53512000Y-55036000D01*
X53512000Y-55938000D01*
X53512000Y-55938000D01*
G37*
G36*
X53512000Y-54438000D02*
G01*
X52660000Y-54438000D01*
X52660000Y-53536000D01*
X53512000Y-53536000D01*
X53512000Y-54438000D01*
X53512000Y-54438000D01*
G37*
G36*
X51988000Y-54438000D02*
G01*
X51136000Y-54438000D01*
X51136000Y-53536000D01*
X51988000Y-53536000D01*
X51988000Y-54438000D01*
X51988000Y-54438000D01*
G37*
G36*
X71528000Y-54014000D02*
G01*
X68426000Y-54014000D01*
X68426000Y-52412000D01*
X71528000Y-52412000D01*
X71528000Y-54014000D01*
X71528000Y-54014000D01*
G37*
G36*
X46491000Y-53879000D02*
G01*
X44439000Y-53879000D01*
X44439000Y-51277000D01*
X46491000Y-51277000D01*
X46491000Y-53879000D01*
X46491000Y-53879000D01*
G37*
G36*
X49541000Y-53879000D02*
G01*
X47489000Y-53879000D01*
X47489000Y-51277000D01*
X49541000Y-51277000D01*
X49541000Y-53879000D01*
X49541000Y-53879000D01*
G37*
G36*
X71528000Y-51514000D02*
G01*
X68426000Y-51514000D01*
X68426000Y-49912000D01*
X71528000Y-49912000D01*
X71528000Y-51514000D01*
X71528000Y-51514000D01*
G37*
G36*
X66466000Y-51112000D02*
G01*
X65614000Y-51112000D01*
X65614000Y-50210000D01*
X66466000Y-50210000D01*
X66466000Y-51112000D01*
X66466000Y-51112000D01*
G37*
G36*
X54401000Y-50731000D02*
G01*
X53549000Y-50731000D01*
X53549000Y-49829000D01*
X54401000Y-49829000D01*
X54401000Y-50731000D01*
X54401000Y-50731000D01*
G37*
G36*
X52877000Y-50731000D02*
G01*
X52025000Y-50731000D01*
X52025000Y-49829000D01*
X52877000Y-49829000D01*
X52877000Y-50731000D01*
X52877000Y-50731000D01*
G37*
G36*
X68244000Y-49727000D02*
G01*
X67392000Y-49727000D01*
X67392000Y-48825000D01*
X68244000Y-48825000D01*
X68244000Y-49727000D01*
X68244000Y-49727000D01*
G37*
G36*
X44993000Y-49713500D02*
G01*
X44391000Y-49713500D01*
X44391000Y-48711500D01*
X44993000Y-48711500D01*
X44993000Y-49713500D01*
X44993000Y-49713500D01*
G37*
G36*
X43493000Y-49713500D02*
G01*
X42891000Y-49713500D01*
X42891000Y-48711500D01*
X43493000Y-48711500D01*
X43493000Y-49713500D01*
X43493000Y-49713500D01*
G37*
G36*
X62870000Y-49691000D02*
G01*
X57018000Y-49691000D01*
X57018000Y-48289000D01*
X62870000Y-48289000D01*
X62870000Y-49691000D01*
X62870000Y-49691000D01*
G37*
G36*
X66466000Y-49612000D02*
G01*
X65614000Y-49612000D01*
X65614000Y-48710000D01*
X66466000Y-48710000D01*
X66466000Y-49612000D01*
X66466000Y-49612000D01*
G37*
G36*
X54401000Y-49231000D02*
G01*
X53549000Y-49231000D01*
X53549000Y-48329000D01*
X54401000Y-48329000D01*
X54401000Y-49231000D01*
X54401000Y-49231000D01*
G37*
G36*
X52877000Y-49231000D02*
G01*
X52025000Y-49231000D01*
X52025000Y-48329000D01*
X52877000Y-48329000D01*
X52877000Y-49231000D01*
X52877000Y-49231000D01*
G37*
G36*
X68244000Y-48227000D02*
G01*
X67392000Y-48227000D01*
X67392000Y-47325000D01*
X68244000Y-47325000D01*
X68244000Y-48227000D01*
X68244000Y-48227000D01*
G37*
G36*
X48204700Y-47859300D02*
G01*
X47602700Y-47859300D01*
X47602700Y-46857300D01*
X48204700Y-46857300D01*
X48204700Y-47859300D01*
X48204700Y-47859300D01*
G37*
G36*
X49704700Y-47859300D02*
G01*
X49102700Y-47859300D01*
X49102700Y-46857300D01*
X49704700Y-46857300D01*
X49704700Y-47859300D01*
X49704700Y-47859300D01*
G37*
G36*
X42903000Y-47761500D02*
G01*
X41801000Y-47761500D01*
X41801000Y-46259500D01*
X42903000Y-46259500D01*
X42903000Y-47761500D01*
X42903000Y-47761500D01*
G37*
G36*
X41003000Y-47761500D02*
G01*
X39901000Y-47761500D01*
X39901000Y-46259500D01*
X41003000Y-46259500D01*
X41003000Y-47761500D01*
X41003000Y-47761500D01*
G37*
G36*
X57970000Y-47543000D02*
G01*
X57068000Y-47543000D01*
X57068000Y-46691000D01*
X57970000Y-46691000D01*
X57970000Y-47543000D01*
X57970000Y-47543000D01*
G37*
G36*
X56470000Y-47543000D02*
G01*
X55568000Y-47543000D01*
X55568000Y-46691000D01*
X56470000Y-46691000D01*
X56470000Y-47543000D01*
X56470000Y-47543000D01*
G37*
G36*
X59835400Y-46923400D02*
G01*
X58833400Y-46923400D01*
X58833400Y-46321400D01*
X59835400Y-46321400D01*
X59835400Y-46923400D01*
X59835400Y-46923400D01*
G37*
G36*
X61511800Y-46923400D02*
G01*
X60509800Y-46923400D01*
X60509800Y-46321400D01*
X61511800Y-46321400D01*
X61511800Y-46923400D01*
X61511800Y-46923400D01*
G37*
G36*
X67853000Y-46602000D02*
G01*
X67251000Y-46602000D01*
X67251000Y-45600000D01*
X67853000Y-45600000D01*
X67853000Y-46602000D01*
X67853000Y-46602000D01*
G37*
G36*
X66353000Y-46602000D02*
G01*
X65751000Y-46602000D01*
X65751000Y-45600000D01*
X66353000Y-45600000D01*
X66353000Y-46602000D01*
X66353000Y-46602000D01*
G37*
G36*
X65005000Y-46552000D02*
G01*
X64103000Y-46552000D01*
X64103000Y-45650000D01*
X65005000Y-45650000D01*
X65005000Y-46552000D01*
X65005000Y-46552000D01*
G37*
G36*
X63405000Y-46552000D02*
G01*
X62503000Y-46552000D01*
X62503000Y-45650000D01*
X63405000Y-45650000D01*
X63405000Y-46552000D01*
X63405000Y-46552000D01*
G37*
G36*
X53502000Y-45776500D02*
G01*
X52900000Y-45776500D01*
X52900000Y-44774500D01*
X53502000Y-44774500D01*
X53502000Y-45776500D01*
X53502000Y-45776500D01*
G37*
G36*
X52002000Y-45776500D02*
G01*
X51400000Y-45776500D01*
X51400000Y-44774500D01*
X52002000Y-44774500D01*
X52002000Y-45776500D01*
X52002000Y-45776500D01*
G37*
G36*
X41953000Y-45561500D02*
G01*
X40851000Y-45561500D01*
X40851000Y-44059500D01*
X41953000Y-44059500D01*
X41953000Y-45561500D01*
X41953000Y-45561500D01*
G37*
G36*
X59835400Y-45423400D02*
G01*
X58833400Y-45423400D01*
X58833400Y-44821400D01*
X59835400Y-44821400D01*
X59835400Y-45423400D01*
X59835400Y-45423400D01*
G37*
G36*
X61511800Y-45423400D02*
G01*
X60509800Y-45423400D01*
X60509800Y-44821400D01*
X61511800Y-44821400D01*
X61511800Y-45423400D01*
X61511800Y-45423400D01*
G37*
G36*
X44431500Y-45143000D02*
G01*
X43579500Y-45143000D01*
X43579500Y-44241000D01*
X44431500Y-44241000D01*
X44431500Y-45143000D01*
X44431500Y-45143000D01*
G37*
G36*
X46019000Y-45079500D02*
G01*
X45167000Y-45079500D01*
X45167000Y-44177500D01*
X46019000Y-44177500D01*
X46019000Y-45079500D01*
X46019000Y-45079500D01*
G37*
G36*
X44431500Y-43643000D02*
G01*
X43579500Y-43643000D01*
X43579500Y-42741000D01*
X44431500Y-42741000D01*
X44431500Y-43643000D01*
X44431500Y-43643000D01*
G37*
G36*
X46019000Y-43579500D02*
G01*
X45167000Y-43579500D01*
X45167000Y-42677500D01*
X46019000Y-42677500D01*
X46019000Y-43579500D01*
X46019000Y-43579500D01*
G37*
G36*
X49160000Y-43536000D02*
G01*
X47058000Y-43536000D01*
X47058000Y-42734000D01*
X49160000Y-42734000D01*
X49160000Y-43536000D01*
X49160000Y-43536000D01*
G37*
G36*
X58860000Y-43536000D02*
G01*
X56758000Y-43536000D01*
X56758000Y-42734000D01*
X58860000Y-42734000D01*
X58860000Y-43536000D01*
X58860000Y-43536000D01*
G37*
G36*
X58860000Y-42436000D02*
G01*
X56758000Y-42436000D01*
X56758000Y-41634000D01*
X58860000Y-41634000D01*
X58860000Y-42436000D01*
X58860000Y-42436000D01*
G37*
G36*
X49160000Y-42436000D02*
G01*
X47058000Y-42436000D01*
X47058000Y-41634000D01*
X49160000Y-41634000D01*
X49160000Y-42436000D01*
X49160000Y-42436000D01*
G37*
G36*
X45193500Y-41777500D02*
G01*
X44341500Y-41777500D01*
X44341500Y-40875500D01*
X45193500Y-40875500D01*
X45193500Y-41777500D01*
X45193500Y-41777500D01*
G37*
G36*
X49160000Y-41336000D02*
G01*
X47058000Y-41336000D01*
X47058000Y-40534000D01*
X49160000Y-40534000D01*
X49160000Y-41336000D01*
X49160000Y-41336000D01*
G37*
G36*
X58860000Y-41336000D02*
G01*
X56758000Y-41336000D01*
X56758000Y-40534000D01*
X58860000Y-40534000D01*
X58860000Y-41336000D01*
X58860000Y-41336000D01*
G37*
G36*
X64591000Y-40441000D02*
G01*
X63989000Y-40441000D01*
X63989000Y-39439000D01*
X64591000Y-39439000D01*
X64591000Y-40441000D01*
X64591000Y-40441000D01*
G37*
G36*
X66091000Y-40441000D02*
G01*
X65489000Y-40441000D01*
X65489000Y-39439000D01*
X66091000Y-39439000D01*
X66091000Y-40441000D01*
X66091000Y-40441000D01*
G37*
G36*
X45193500Y-40277500D02*
G01*
X44341500Y-40277500D01*
X44341500Y-39375500D01*
X45193500Y-39375500D01*
X45193500Y-40277500D01*
X45193500Y-40277500D01*
G37*
G36*
X58860000Y-40236000D02*
G01*
X56758000Y-40236000D01*
X56758000Y-39434000D01*
X58860000Y-39434000D01*
X58860000Y-40236000D01*
X58860000Y-40236000D01*
G37*
G36*
X49160000Y-40236000D02*
G01*
X47058000Y-40236000D01*
X47058000Y-39434000D01*
X49160000Y-39434000D01*
X49160000Y-40236000D01*
X49160000Y-40236000D01*
G37*
G36*
X41651500Y-40188500D02*
G01*
X41049500Y-40188500D01*
X41049500Y-39186500D01*
X41651500Y-39186500D01*
X41651500Y-40188500D01*
X41651500Y-40188500D01*
G37*
G36*
X43151500Y-40188500D02*
G01*
X42549500Y-40188500D01*
X42549500Y-39186500D01*
X43151500Y-39186500D01*
X43151500Y-40188500D01*
X43151500Y-40188500D01*
G37*
G36*
X49160000Y-39136000D02*
G01*
X47058000Y-39136000D01*
X47058000Y-38334000D01*
X49160000Y-38334000D01*
X49160000Y-39136000D01*
X49160000Y-39136000D01*
G37*
G36*
X58860000Y-39136000D02*
G01*
X56758000Y-39136000D01*
X56758000Y-38334000D01*
X58860000Y-38334000D01*
X58860000Y-39136000D01*
X58860000Y-39136000D01*
G37*
G36*
X64763000Y-39074800D02*
G01*
X63761000Y-39074800D01*
X63761000Y-38472800D01*
X64763000Y-38472800D01*
X64763000Y-39074800D01*
X64763000Y-39074800D01*
G37*
G36*
X58860000Y-38036000D02*
G01*
X56758000Y-38036000D01*
X56758000Y-37234000D01*
X58860000Y-37234000D01*
X58860000Y-38036000D01*
X58860000Y-38036000D01*
G37*
G36*
X49160000Y-38036000D02*
G01*
X47058000Y-38036000D01*
X47058000Y-37234000D01*
X49160000Y-37234000D01*
X49160000Y-38036000D01*
X49160000Y-38036000D01*
G37*
G36*
X42709400Y-37832600D02*
G01*
X40907400Y-37832600D01*
X40907400Y-36030600D01*
X42709400Y-36030600D01*
X42709400Y-37832600D01*
X42709400Y-37832600D01*
G37*
G36*
X64763000Y-37574800D02*
G01*
X63761000Y-37574800D01*
X63761000Y-36972800D01*
X64763000Y-36972800D01*
X64763000Y-37574800D01*
X64763000Y-37574800D01*
G37*
G36*
X58860000Y-36936000D02*
G01*
X56758000Y-36936000D01*
X56758000Y-36134000D01*
X58860000Y-36134000D01*
X58860000Y-36936000D01*
X58860000Y-36936000D01*
G37*
G36*
X49160000Y-36936000D02*
G01*
X47058000Y-36936000D01*
X47058000Y-36134000D01*
X49160000Y-36134000D01*
X49160000Y-36936000D01*
X49160000Y-36936000D01*
G37*
G36*
X58860000Y-35836000D02*
G01*
X56758000Y-35836000D01*
X56758000Y-35034000D01*
X58860000Y-35034000D01*
X58860000Y-35836000D01*
X58860000Y-35836000D01*
G37*
G36*
X49160000Y-35836000D02*
G01*
X47058000Y-35836000D01*
X47058000Y-35034000D01*
X49160000Y-35034000D01*
X49160000Y-35836000D01*
X49160000Y-35836000D01*
G37*
G36*
X64836000Y-35791000D02*
G01*
X63684000Y-35791000D01*
X63684000Y-34689000D01*
X64836000Y-34689000D01*
X64836000Y-35791000D01*
X64836000Y-35791000D01*
G37*
G36*
X41918843Y-33497119D02*
G01*
X41985027Y-33503637D01*
X42154866Y-33555157D01*
X42311391Y-33638822D01*
X42347129Y-33668152D01*
X42448586Y-33751414D01*
X42531848Y-33852871D01*
X42561178Y-33888609D01*
X42644843Y-34045134D01*
X42696363Y-34214973D01*
X42713759Y-34391600D01*
X42696363Y-34568227D01*
X42644843Y-34738066D01*
X42561178Y-34894591D01*
X42531848Y-34930329D01*
X42448586Y-35031786D01*
X42347129Y-35115048D01*
X42311391Y-35144378D01*
X42154866Y-35228043D01*
X41985027Y-35279563D01*
X41918842Y-35286082D01*
X41852660Y-35292600D01*
X41764140Y-35292600D01*
X41697958Y-35286082D01*
X41631773Y-35279563D01*
X41461934Y-35228043D01*
X41305409Y-35144378D01*
X41269671Y-35115048D01*
X41168214Y-35031786D01*
X41084952Y-34930329D01*
X41055622Y-34894591D01*
X40971957Y-34738066D01*
X40920437Y-34568227D01*
X40903041Y-34391600D01*
X40920437Y-34214973D01*
X40971957Y-34045134D01*
X41055622Y-33888609D01*
X41084952Y-33852871D01*
X41168214Y-33751414D01*
X41269671Y-33668152D01*
X41305409Y-33638822D01*
X41461934Y-33555157D01*
X41631773Y-33503637D01*
X41697957Y-33497119D01*
X41764140Y-33490600D01*
X41852660Y-33490600D01*
X41918843Y-33497119D01*
X41918843Y-33497119D01*
G37*
G36*
X66861000Y-34891000D02*
G01*
X65759000Y-34891000D01*
X65759000Y-32589000D01*
X66861000Y-32589000D01*
X66861000Y-34891000D01*
X66861000Y-34891000D01*
G37*
G36*
X62761000Y-34891000D02*
G01*
X61659000Y-34891000D01*
X61659000Y-32589000D01*
X62761000Y-32589000D01*
X62761000Y-34891000D01*
X62761000Y-34891000D01*
G37*
G36*
X49160000Y-34736000D02*
G01*
X47058000Y-34736000D01*
X47058000Y-33934000D01*
X49160000Y-33934000D01*
X49160000Y-34736000D01*
X49160000Y-34736000D01*
G37*
G36*
X58860000Y-34736000D02*
G01*
X56758000Y-34736000D01*
X56758000Y-33934000D01*
X58860000Y-33934000D01*
X58860000Y-34736000D01*
X58860000Y-34736000D01*
G37*
G36*
X56857873Y-25897024D02*
G01*
X57059089Y-25937048D01*
X57438171Y-26094069D01*
X57779335Y-26322028D01*
X58069472Y-26612165D01*
X58297431Y-26953329D01*
X58454452Y-27332411D01*
X58534500Y-27734842D01*
X58534500Y-28145158D01*
X58454452Y-28547589D01*
X58297431Y-28926671D01*
X58069472Y-29267835D01*
X57779335Y-29557972D01*
X57438171Y-29785931D01*
X57059089Y-29942952D01*
X56656659Y-30023000D01*
X56246341Y-30023000D01*
X55843911Y-29942952D01*
X55464829Y-29785931D01*
X55123665Y-29557972D01*
X54833528Y-29267835D01*
X54605569Y-28926671D01*
X54448548Y-28547589D01*
X54368500Y-28145158D01*
X54368500Y-27734842D01*
X54448548Y-27332411D01*
X54605569Y-26953329D01*
X54833528Y-26612165D01*
X55123665Y-26322028D01*
X55464829Y-26094069D01*
X55843911Y-25937048D01*
X56045127Y-25897024D01*
X56246341Y-25857000D01*
X56656659Y-25857000D01*
X56857873Y-25897024D01*
X56857873Y-25897024D01*
G37*
G36*
X44168589Y-25873548D02*
G01*
X44547671Y-26030569D01*
X44888835Y-26258528D01*
X45178972Y-26548665D01*
X45406931Y-26889829D01*
X45563952Y-27268911D01*
X45644000Y-27671342D01*
X45644000Y-28081658D01*
X45563952Y-28484089D01*
X45406931Y-28863171D01*
X45178972Y-29204335D01*
X44888835Y-29494472D01*
X44547671Y-29722431D01*
X44168589Y-29879452D01*
X43766159Y-29959500D01*
X43355841Y-29959500D01*
X42953411Y-29879452D01*
X42574329Y-29722431D01*
X42233165Y-29494472D01*
X41943028Y-29204335D01*
X41715069Y-28863171D01*
X41558048Y-28484089D01*
X41478000Y-28081658D01*
X41478000Y-27671342D01*
X41558048Y-27268911D01*
X41715069Y-26889829D01*
X41943028Y-26548665D01*
X42233165Y-26258528D01*
X42574329Y-26030569D01*
X42953411Y-25873548D01*
X43355841Y-25793500D01*
X43766159Y-25793500D01*
X44168589Y-25873548D01*
X44168589Y-25873548D01*
G37*
G36*
X69949589Y-25810048D02*
G01*
X70328671Y-25967069D01*
X70669835Y-26195028D01*
X70959972Y-26485165D01*
X71187931Y-26826329D01*
X71344952Y-27205411D01*
X71425000Y-27607842D01*
X71425000Y-28018158D01*
X71344952Y-28420589D01*
X71187931Y-28799671D01*
X70959972Y-29140835D01*
X70669835Y-29430972D01*
X70328671Y-29658931D01*
X69949589Y-29815952D01*
X69547159Y-29896000D01*
X69136841Y-29896000D01*
X68734411Y-29815952D01*
X68355329Y-29658931D01*
X68014165Y-29430972D01*
X67724028Y-29140835D01*
X67496069Y-28799671D01*
X67339048Y-28420589D01*
X67259000Y-28018158D01*
X67259000Y-27607842D01*
X67339048Y-27205411D01*
X67496069Y-26826329D01*
X67724028Y-26485165D01*
X68014165Y-26195028D01*
X68355329Y-25967069D01*
X68734411Y-25810048D01*
X69136841Y-25730000D01*
X69547159Y-25730000D01*
X69949589Y-25810048D01*
X69949589Y-25810048D01*
G37*
M02*
