G04 #@! TF.GenerationSoftware,KiCad,Pcbnew,(5.1.4)-1*
G04 #@! TF.CreationDate,2019-11-27T15:40:33+01:00*
G04 #@! TF.ProjectId,picoballoon,7069636f-6261-46c6-9c6f-6f6e2e6b6963,rev?*
G04 #@! TF.SameCoordinates,Original*
G04 #@! TF.FileFunction,Soldermask,Bot*
G04 #@! TF.FilePolarity,Negative*
%FSLAX46Y46*%
G04 Gerber Fmt 4.6, Leading zero omitted, Abs format (unit mm)*
G04 Created by KiCad (PCBNEW (5.1.4)-1) date 2019-11-27 15:40:33*
%MOMM*%
%LPD*%
G04 APERTURE LIST*
%ADD10C,0.100000*%
G04 APERTURE END LIST*
D10*
G36*
X58521800Y-91224300D02*
G01*
X54355800Y-91224300D01*
X54355800Y-87058300D01*
X58521800Y-87058300D01*
X58521800Y-91224300D01*
X58521800Y-91224300D01*
G37*
G36*
X50470000Y-91110000D02*
G01*
X46304000Y-91110000D01*
X46304000Y-86944000D01*
X50470000Y-86944000D01*
X50470000Y-91110000D01*
X50470000Y-91110000D01*
G37*
G36*
X66510100Y-91097300D02*
G01*
X62344100Y-91097300D01*
X62344100Y-86931300D01*
X66510100Y-86931300D01*
X66510100Y-91097300D01*
X66510100Y-91097300D01*
G37*
G36*
X49909393Y-66313304D02*
G01*
X50146101Y-66411352D01*
X50146103Y-66411353D01*
X50359135Y-66553696D01*
X50540304Y-66734865D01*
X50682647Y-66947897D01*
X50682648Y-66947899D01*
X50780696Y-67184607D01*
X50830680Y-67435893D01*
X50830680Y-67692107D01*
X50780696Y-67943393D01*
X50682648Y-68180101D01*
X50682647Y-68180103D01*
X50540304Y-68393135D01*
X50359135Y-68574304D01*
X50146103Y-68716647D01*
X50146102Y-68716648D01*
X50146101Y-68716648D01*
X49909393Y-68814696D01*
X49658107Y-68864680D01*
X49401893Y-68864680D01*
X49150607Y-68814696D01*
X48913899Y-68716648D01*
X48913898Y-68716648D01*
X48913897Y-68716647D01*
X48700865Y-68574304D01*
X48519696Y-68393135D01*
X48377353Y-68180103D01*
X48377352Y-68180101D01*
X48279304Y-67943393D01*
X48229320Y-67692107D01*
X48229320Y-67435893D01*
X48279304Y-67184607D01*
X48377352Y-66947899D01*
X48377353Y-66947897D01*
X48519696Y-66734865D01*
X48700865Y-66553696D01*
X48913897Y-66411353D01*
X48913899Y-66411352D01*
X49150607Y-66313304D01*
X49401893Y-66263320D01*
X49658107Y-66263320D01*
X49909393Y-66313304D01*
X49909393Y-66313304D01*
G37*
G36*
X42543393Y-53740304D02*
G01*
X42780101Y-53838352D01*
X42780103Y-53838353D01*
X42993135Y-53980696D01*
X43174304Y-54161865D01*
X43316647Y-54374897D01*
X43316648Y-54374899D01*
X43414696Y-54611607D01*
X43464680Y-54862893D01*
X43464680Y-55119107D01*
X43414696Y-55370393D01*
X43316648Y-55607101D01*
X43316647Y-55607103D01*
X43174304Y-55820135D01*
X42993135Y-56001304D01*
X42780103Y-56143647D01*
X42780102Y-56143648D01*
X42780101Y-56143648D01*
X42543393Y-56241696D01*
X42292107Y-56291680D01*
X42035893Y-56291680D01*
X41784607Y-56241696D01*
X41547899Y-56143648D01*
X41547898Y-56143648D01*
X41547897Y-56143647D01*
X41334865Y-56001304D01*
X41153696Y-55820135D01*
X41011353Y-55607103D01*
X41011352Y-55607101D01*
X40913304Y-55370393D01*
X40863320Y-55119107D01*
X40863320Y-54862893D01*
X40913304Y-54611607D01*
X41011352Y-54374899D01*
X41011353Y-54374897D01*
X41153696Y-54161865D01*
X41334865Y-53980696D01*
X41547897Y-53838353D01*
X41547899Y-53838352D01*
X41784607Y-53740304D01*
X42035893Y-53690320D01*
X42292107Y-53690320D01*
X42543393Y-53740304D01*
X42543393Y-53740304D01*
G37*
G36*
X74469000Y-47700500D02*
G01*
X73867000Y-47700500D01*
X73867000Y-46998500D01*
X74469000Y-46998500D01*
X74469000Y-47700500D01*
X74469000Y-47700500D01*
G37*
G36*
X74469000Y-46600500D02*
G01*
X73867000Y-46600500D01*
X73867000Y-45898500D01*
X74469000Y-45898500D01*
X74469000Y-46600500D01*
X74469000Y-46600500D01*
G37*
G36*
X74680000Y-45366500D02*
G01*
X73628000Y-45366500D01*
X73628000Y-44064500D01*
X74680000Y-44064500D01*
X74680000Y-45366500D01*
X74680000Y-45366500D01*
G37*
G36*
X72930000Y-45366500D02*
G01*
X71878000Y-45366500D01*
X71878000Y-44064500D01*
X72930000Y-44064500D01*
X72930000Y-45366500D01*
X72930000Y-45366500D01*
G37*
G36*
X74680000Y-42116500D02*
G01*
X73628000Y-42116500D01*
X73628000Y-40814500D01*
X74680000Y-40814500D01*
X74680000Y-42116500D01*
X74680000Y-42116500D01*
G37*
G36*
X72930000Y-42116500D02*
G01*
X71878000Y-42116500D01*
X71878000Y-40814500D01*
X72930000Y-40814500D01*
X72930000Y-42116500D01*
X72930000Y-42116500D01*
G37*
G36*
X72930000Y-38866500D02*
G01*
X71878000Y-38866500D01*
X71878000Y-37564500D01*
X72930000Y-37564500D01*
X72930000Y-38866500D01*
X72930000Y-38866500D01*
G37*
G36*
X74680000Y-38866500D02*
G01*
X73628000Y-38866500D01*
X73628000Y-37564500D01*
X74680000Y-37564500D01*
X74680000Y-38866500D01*
X74680000Y-38866500D01*
G37*
G36*
X42709400Y-37832600D02*
G01*
X40907400Y-37832600D01*
X40907400Y-36030600D01*
X42709400Y-36030600D01*
X42709400Y-37832600D01*
X42709400Y-37832600D01*
G37*
G36*
X41918843Y-33497119D02*
G01*
X41985027Y-33503637D01*
X42154866Y-33555157D01*
X42311391Y-33638822D01*
X42347129Y-33668152D01*
X42448586Y-33751414D01*
X42531848Y-33852871D01*
X42561178Y-33888609D01*
X42644843Y-34045134D01*
X42696363Y-34214973D01*
X42713759Y-34391600D01*
X42696363Y-34568227D01*
X42644843Y-34738066D01*
X42561178Y-34894591D01*
X42531848Y-34930329D01*
X42448586Y-35031786D01*
X42347129Y-35115048D01*
X42311391Y-35144378D01*
X42154866Y-35228043D01*
X41985027Y-35279563D01*
X41918842Y-35286082D01*
X41852660Y-35292600D01*
X41764140Y-35292600D01*
X41697958Y-35286082D01*
X41631773Y-35279563D01*
X41461934Y-35228043D01*
X41305409Y-35144378D01*
X41269671Y-35115048D01*
X41168214Y-35031786D01*
X41084952Y-34930329D01*
X41055622Y-34894591D01*
X40971957Y-34738066D01*
X40920437Y-34568227D01*
X40903041Y-34391600D01*
X40920437Y-34214973D01*
X40971957Y-34045134D01*
X41055622Y-33888609D01*
X41084952Y-33852871D01*
X41168214Y-33751414D01*
X41269671Y-33668152D01*
X41305409Y-33638822D01*
X41461934Y-33555157D01*
X41631773Y-33503637D01*
X41697957Y-33497119D01*
X41764140Y-33490600D01*
X41852660Y-33490600D01*
X41918843Y-33497119D01*
X41918843Y-33497119D01*
G37*
G36*
X56857873Y-25897024D02*
G01*
X57059089Y-25937048D01*
X57438171Y-26094069D01*
X57779335Y-26322028D01*
X58069472Y-26612165D01*
X58297431Y-26953329D01*
X58454452Y-27332411D01*
X58534500Y-27734842D01*
X58534500Y-28145158D01*
X58454452Y-28547589D01*
X58297431Y-28926671D01*
X58069472Y-29267835D01*
X57779335Y-29557972D01*
X57438171Y-29785931D01*
X57059089Y-29942952D01*
X56656659Y-30023000D01*
X56246341Y-30023000D01*
X55843911Y-29942952D01*
X55464829Y-29785931D01*
X55123665Y-29557972D01*
X54833528Y-29267835D01*
X54605569Y-28926671D01*
X54448548Y-28547589D01*
X54368500Y-28145158D01*
X54368500Y-27734842D01*
X54448548Y-27332411D01*
X54605569Y-26953329D01*
X54833528Y-26612165D01*
X55123665Y-26322028D01*
X55464829Y-26094069D01*
X55843911Y-25937048D01*
X56045127Y-25897024D01*
X56246341Y-25857000D01*
X56656659Y-25857000D01*
X56857873Y-25897024D01*
X56857873Y-25897024D01*
G37*
G36*
X44168589Y-25873548D02*
G01*
X44547671Y-26030569D01*
X44888835Y-26258528D01*
X45178972Y-26548665D01*
X45406931Y-26889829D01*
X45563952Y-27268911D01*
X45644000Y-27671342D01*
X45644000Y-28081658D01*
X45563952Y-28484089D01*
X45406931Y-28863171D01*
X45178972Y-29204335D01*
X44888835Y-29494472D01*
X44547671Y-29722431D01*
X44168589Y-29879452D01*
X43766159Y-29959500D01*
X43355841Y-29959500D01*
X42953411Y-29879452D01*
X42574329Y-29722431D01*
X42233165Y-29494472D01*
X41943028Y-29204335D01*
X41715069Y-28863171D01*
X41558048Y-28484089D01*
X41478000Y-28081658D01*
X41478000Y-27671342D01*
X41558048Y-27268911D01*
X41715069Y-26889829D01*
X41943028Y-26548665D01*
X42233165Y-26258528D01*
X42574329Y-26030569D01*
X42953411Y-25873548D01*
X43355841Y-25793500D01*
X43766159Y-25793500D01*
X44168589Y-25873548D01*
X44168589Y-25873548D01*
G37*
G36*
X69949589Y-25810048D02*
G01*
X70328671Y-25967069D01*
X70669835Y-26195028D01*
X70959972Y-26485165D01*
X71187931Y-26826329D01*
X71344952Y-27205411D01*
X71425000Y-27607842D01*
X71425000Y-28018158D01*
X71344952Y-28420589D01*
X71187931Y-28799671D01*
X70959972Y-29140835D01*
X70669835Y-29430972D01*
X70328671Y-29658931D01*
X69949589Y-29815952D01*
X69547159Y-29896000D01*
X69136841Y-29896000D01*
X68734411Y-29815952D01*
X68355329Y-29658931D01*
X68014165Y-29430972D01*
X67724028Y-29140835D01*
X67496069Y-28799671D01*
X67339048Y-28420589D01*
X67259000Y-28018158D01*
X67259000Y-27607842D01*
X67339048Y-27205411D01*
X67496069Y-26826329D01*
X67724028Y-26485165D01*
X68014165Y-26195028D01*
X68355329Y-25967069D01*
X68734411Y-25810048D01*
X69136841Y-25730000D01*
X69547159Y-25730000D01*
X69949589Y-25810048D01*
X69949589Y-25810048D01*
G37*
M02*
