G04 #@! TF.GenerationSoftware,KiCad,Pcbnew,(5.1.4)-1*
G04 #@! TF.CreationDate,2019-11-27T15:40:33+01:00*
G04 #@! TF.ProjectId,picoballoon,7069636f-6261-46c6-9c6f-6f6e2e6b6963,rev?*
G04 #@! TF.SameCoordinates,Original*
G04 #@! TF.FileFunction,Copper,L1,Top*
G04 #@! TF.FilePolarity,Positive*
%FSLAX46Y46*%
G04 Gerber Fmt 4.6, Leading zero omitted, Abs format (unit mm)*
G04 Created by KiCad (PCBNEW (5.1.4)-1) date 2019-11-27 15:40:33*
%MOMM*%
%LPD*%
G04 APERTURE LIST*
%ADD10R,0.800000X0.750000*%
%ADD11R,0.750000X0.800000*%
%ADD12R,1.950000X2.500000*%
%ADD13R,0.800000X0.800000*%
%ADD14R,3.000000X1.500000*%
%ADD15O,1.700000X1.700000*%
%ADD16R,1.700000X1.700000*%
%ADD17R,1.500000X1.000000*%
%ADD18R,1.000000X1.400000*%
%ADD19R,0.500000X0.900000*%
%ADD20R,0.900000X0.500000*%
%ADD21R,1.100000X0.250000*%
%ADD22R,2.000000X0.700000*%
%ADD23R,1.000000X2.000000*%
%ADD24R,0.600000X1.550000*%
%ADD25R,2.000000X2.000000*%
%ADD26R,0.250000X1.300000*%
%ADD27R,1.300000X0.250000*%
%ADD28R,4.064000X4.064000*%
%ADD29C,2.499360*%
%ADD30R,2.540000X2.670000*%
%ADD31R,1.270000X0.762000*%
%ADD32C,4.064000*%
%ADD33R,1.000000X2.200000*%
%ADD34R,1.050000X1.000000*%
%ADD35C,0.600000*%
%ADD36C,1.000000*%
%ADD37C,0.825021*%
%ADD38C,0.250000*%
%ADD39C,0.254000*%
G04 APERTURE END LIST*
D10*
X46240000Y-65532000D03*
X47740000Y-65532000D03*
D11*
X44005500Y-43192000D03*
X44005500Y-44692000D03*
X45593000Y-44628500D03*
X45593000Y-43128500D03*
X41402000Y-65150300D03*
X41402000Y-66650300D03*
X44767500Y-39826500D03*
X44767500Y-41326500D03*
D10*
X46303500Y-59690000D03*
X47803500Y-59690000D03*
D12*
X45465000Y-56388000D03*
X48515000Y-56388000D03*
D11*
X41414700Y-60313000D03*
X41414700Y-58813000D03*
X54089300Y-78294800D03*
X54089300Y-79794800D03*
D12*
X48515000Y-52578000D03*
X45465000Y-52578000D03*
D11*
X46736000Y-72376600D03*
X46736000Y-73876600D03*
D10*
X41414000Y-78079600D03*
X42914000Y-78079600D03*
D11*
X52451000Y-50280000D03*
X52451000Y-48780000D03*
D10*
X57519000Y-47117000D03*
X56019000Y-47117000D03*
D11*
X67818000Y-49276000D03*
X67818000Y-47776000D03*
X51562000Y-53987000D03*
X51562000Y-55487000D03*
X53086000Y-55487000D03*
X53086000Y-53987000D03*
D13*
X64554000Y-46101000D03*
X62954000Y-46101000D03*
D14*
X69977000Y-50713000D03*
X69977000Y-53213000D03*
X69977000Y-55713000D03*
X69977000Y-58213000D03*
X69977000Y-60713000D03*
X69977000Y-63213000D03*
D15*
X41808400Y-34391600D03*
D16*
X41808400Y-36931600D03*
D17*
X52397000Y-66240000D03*
X52397000Y-63636500D03*
D18*
X41402000Y-44810500D03*
X42352000Y-47010500D03*
X40452000Y-47010500D03*
D19*
X43192000Y-49212500D03*
X44692000Y-49212500D03*
X42850500Y-39687500D03*
X41350500Y-39687500D03*
X47903700Y-47358300D03*
X49403700Y-47358300D03*
D20*
X61010800Y-46622400D03*
X61010800Y-45122400D03*
X59334400Y-45122400D03*
X59334400Y-46622400D03*
D19*
X51701000Y-45275500D03*
X53201000Y-45275500D03*
X55739600Y-64109600D03*
X57239600Y-64109600D03*
X55739600Y-62534800D03*
X57239600Y-62534800D03*
D20*
X41427400Y-61632400D03*
X41427400Y-63132400D03*
X64262000Y-37273800D03*
X64262000Y-38773800D03*
D19*
X65790000Y-39940000D03*
X64290000Y-39940000D03*
X67552000Y-46101000D03*
X66052000Y-46101000D03*
X63742000Y-62357000D03*
X62242000Y-62357000D03*
X62242000Y-60833000D03*
X63742000Y-60833000D03*
X54622000Y-59690000D03*
X56122000Y-59690000D03*
D21*
X49039000Y-61732000D03*
X49039000Y-62232000D03*
X49039000Y-62732000D03*
X49039000Y-63232000D03*
X49039000Y-63732000D03*
X44739000Y-63732000D03*
X44739000Y-63232000D03*
X44739000Y-62732000D03*
X44739000Y-62232000D03*
X44739000Y-61732000D03*
D22*
X57809000Y-34335000D03*
X57809000Y-35435000D03*
X57809000Y-36535000D03*
X57809000Y-37635000D03*
X57809000Y-38735000D03*
X57809000Y-39835000D03*
X57809000Y-40935000D03*
X57809000Y-42035000D03*
X57809000Y-43135000D03*
X48109000Y-43135000D03*
X48109000Y-42035000D03*
X48109000Y-40935000D03*
X48109000Y-39835000D03*
X48109000Y-38735000D03*
X48109000Y-37635000D03*
X48109000Y-36535000D03*
X48109000Y-35435000D03*
X48109000Y-34335000D03*
D23*
X70500000Y-82549000D03*
X68500000Y-82549000D03*
X66500000Y-82549000D03*
X64500000Y-82549000D03*
X62500000Y-82549000D03*
X60500000Y-82549000D03*
X58500000Y-82549000D03*
X56500000Y-82549000D03*
X56500000Y-66549000D03*
X58500000Y-66549000D03*
X60500000Y-66549000D03*
X62500000Y-66549000D03*
X64500000Y-66549000D03*
X66500000Y-66549000D03*
X68500000Y-66549000D03*
X70500000Y-66549000D03*
D24*
X52197000Y-77858600D03*
X50927000Y-77858600D03*
X49657000Y-77858600D03*
X48387000Y-77858600D03*
X48387000Y-72458600D03*
X49657000Y-72458600D03*
X50927000Y-72458600D03*
X52197000Y-72458600D03*
D25*
X43664000Y-76150600D03*
X40664000Y-76150600D03*
X43664000Y-73150600D03*
X40664000Y-73150600D03*
D26*
X57194000Y-48990000D03*
X57694000Y-48990000D03*
X58194000Y-48990000D03*
X58694000Y-48990000D03*
X59194000Y-48990000D03*
X59694000Y-48990000D03*
X60194000Y-48990000D03*
X60694000Y-48990000D03*
X61194000Y-48990000D03*
X61694000Y-48990000D03*
X62194000Y-48990000D03*
X62694000Y-48990000D03*
D27*
X64294000Y-50590000D03*
X64294000Y-51090000D03*
X64294000Y-51590000D03*
X64294000Y-52090000D03*
X64294000Y-52590000D03*
X64294000Y-53090000D03*
X64294000Y-53590000D03*
X64294000Y-54090000D03*
X64294000Y-54590000D03*
X64294000Y-55090000D03*
X64294000Y-55590000D03*
X64294000Y-56090000D03*
D26*
X62694000Y-57690000D03*
X62194000Y-57690000D03*
X61694000Y-57690000D03*
X61194000Y-57690000D03*
X60694000Y-57690000D03*
X60194000Y-57690000D03*
X59694000Y-57690000D03*
X59194000Y-57690000D03*
X58694000Y-57690000D03*
X58194000Y-57690000D03*
X57694000Y-57690000D03*
X57194000Y-57690000D03*
D27*
X55594000Y-56090000D03*
X55594000Y-55590000D03*
X55594000Y-55090000D03*
X55594000Y-54590000D03*
X55594000Y-54090000D03*
X55594000Y-53590000D03*
X55594000Y-53090000D03*
X55594000Y-52590000D03*
X55594000Y-52090000D03*
X55594000Y-51590000D03*
X55594000Y-51090000D03*
X55594000Y-50590000D03*
D28*
X56438800Y-89141300D03*
D29*
X49530000Y-67564000D03*
X42164000Y-54991000D03*
D28*
X48387000Y-89027000D03*
X64452500Y-89027000D03*
D30*
X52374800Y-60820300D03*
D31*
X52374800Y-58469300D03*
D11*
X53975000Y-50280000D03*
X53975000Y-48780000D03*
X66040000Y-50661000D03*
X66040000Y-49161000D03*
D10*
X63361000Y-59309000D03*
X61861000Y-59309000D03*
D32*
X43561000Y-27876500D03*
X56451500Y-27940000D03*
X69342000Y-27813000D03*
D33*
X62210000Y-33740000D03*
X66310000Y-33740000D03*
D34*
X64260000Y-35240000D03*
D35*
X67150000Y-38350000D03*
X50038000Y-62230000D03*
X44860000Y-65010000D03*
X45278998Y-65532000D03*
X44958000Y-66167000D03*
X45593000Y-66548000D03*
X40716200Y-67564000D03*
X41427400Y-67589400D03*
X42138600Y-67602100D03*
X40652700Y-57975500D03*
X41427400Y-57899300D03*
X42113200Y-57912000D03*
X43688000Y-51308000D03*
X43688000Y-52070000D03*
X43688000Y-52832000D03*
X43688000Y-53721000D03*
X43815000Y-55245000D03*
X43815000Y-56007000D03*
X43815000Y-56769000D03*
X43815000Y-57658000D03*
X45120000Y-58910000D03*
X45100000Y-59560000D03*
X45100000Y-60270000D03*
X52312000Y-53987000D03*
X57531000Y-46482000D03*
X53201000Y-48780000D03*
X61214000Y-60198000D03*
X67056000Y-50673000D03*
X56134000Y-58674000D03*
X40850000Y-79000000D03*
X46736000Y-71475600D03*
X49657000Y-76428600D03*
X66802000Y-47752000D03*
X68199000Y-46101000D03*
X55448200Y-86436200D03*
X55499000Y-85826600D03*
X55499000Y-85217000D03*
X55490000Y-84650000D03*
X55499000Y-84074000D03*
X55499000Y-83439000D03*
X55499000Y-82804000D03*
X55499000Y-82169000D03*
X55499000Y-81534000D03*
X55550000Y-80910000D03*
X56180000Y-80950000D03*
X56820000Y-80950000D03*
X57440000Y-81250000D03*
X57531000Y-82042000D03*
X57531000Y-82677000D03*
X57531000Y-83312000D03*
X57531000Y-83947000D03*
X57790000Y-84530000D03*
X57531000Y-85090000D03*
X57860000Y-85610000D03*
X57550000Y-86160000D03*
X58140000Y-86487000D03*
X58801000Y-86487000D03*
X59120000Y-87010000D03*
X59120000Y-87630000D03*
X59120000Y-88240000D03*
X59120000Y-88850000D03*
X59110000Y-89460000D03*
X59110000Y-90070000D03*
X59100000Y-90680000D03*
X59510000Y-91150000D03*
X54838600Y-86480000D03*
X54230000Y-86500000D03*
X53600000Y-86330000D03*
X53650000Y-87000000D03*
X53640000Y-87600000D03*
X53640000Y-88200000D03*
X53640000Y-88810000D03*
X53630000Y-89420000D03*
X53630000Y-90040000D03*
X53590000Y-90650000D03*
X61595000Y-90043000D03*
X61468000Y-88900000D03*
X61976000Y-87249000D03*
X63246000Y-85979000D03*
X66167000Y-85852000D03*
X67437000Y-86868000D03*
X67945000Y-89662000D03*
X45974000Y-85852000D03*
X44704000Y-89027000D03*
X45212000Y-90805000D03*
X45212000Y-87503000D03*
X48387000Y-85852000D03*
X51054000Y-85344000D03*
X51308000Y-87630000D03*
X51308000Y-90424000D03*
X51943000Y-88011000D03*
X43815000Y-87503000D03*
X40767000Y-80645000D03*
X45085000Y-80137000D03*
X49276000Y-80391000D03*
X53140000Y-80480000D03*
X58928000Y-79883000D03*
X40767000Y-84836000D03*
X72009000Y-90424000D03*
X72136000Y-85217000D03*
X67564000Y-84709000D03*
X71501000Y-88011000D03*
X44779500Y-44628500D03*
X43878500Y-41465500D03*
X71602600Y-38214300D03*
X70560000Y-39640000D03*
X70570000Y-40290000D03*
X70540000Y-40940000D03*
X70530000Y-41610000D03*
X70530000Y-42270000D03*
X70520000Y-42890000D03*
X70510000Y-43590000D03*
X70540000Y-44230000D03*
X70510000Y-44950000D03*
X70530000Y-45630000D03*
X70570000Y-46410000D03*
X71160000Y-46650000D03*
X71860000Y-46680000D03*
X72570000Y-46660000D03*
X73150000Y-46730000D03*
X73030000Y-47330000D03*
X73560000Y-47720000D03*
X74140000Y-47870000D03*
X70750000Y-36450000D03*
X71500000Y-36300000D03*
X72150000Y-36300000D03*
X72800000Y-36280000D03*
X74600000Y-36250000D03*
X73950000Y-36250000D03*
X73400000Y-36240000D03*
X69950000Y-39650000D03*
X69350000Y-39800000D03*
X68750000Y-40000000D03*
X68150000Y-40200000D03*
X67550000Y-40400000D03*
X66950000Y-40650000D03*
X66350000Y-40800000D03*
X65650000Y-40850000D03*
X65000000Y-40950000D03*
X64350000Y-40950000D03*
X63750000Y-41000000D03*
X63150000Y-41000000D03*
X62600000Y-41300000D03*
X62200000Y-41750000D03*
X61750000Y-42200000D03*
X61250000Y-42650000D03*
X60700000Y-43050000D03*
X60100000Y-43100000D03*
X59450000Y-43100000D03*
X59450000Y-41000000D03*
X60050000Y-40900000D03*
X60500000Y-40400000D03*
X60950000Y-39950000D03*
X61400000Y-39500000D03*
X61850000Y-39050000D03*
X62500000Y-38850000D03*
X63050000Y-38850000D03*
X63200000Y-38250000D03*
X63200000Y-37650000D03*
X63200000Y-37050000D03*
X65350000Y-38750000D03*
X65950000Y-38700000D03*
X66550000Y-38550000D03*
X67750000Y-38200000D03*
X68350000Y-38000000D03*
X68950000Y-37850000D03*
X69550000Y-37750000D03*
X70150000Y-37600000D03*
X70600000Y-37150000D03*
X63200000Y-36450000D03*
X63200000Y-35850000D03*
X65300000Y-35750000D03*
X65300000Y-36350000D03*
X65300000Y-36950000D03*
X65300000Y-37550000D03*
X65300000Y-38150000D03*
X61050000Y-34750000D03*
X61050000Y-33700000D03*
X61100000Y-32150000D03*
X62550000Y-31750000D03*
X64250000Y-31800000D03*
X65800000Y-31800000D03*
X67250000Y-31900000D03*
X67600000Y-33450000D03*
X67400000Y-35200000D03*
X66350000Y-35600000D03*
X64250000Y-34000000D03*
X64250000Y-33050000D03*
X63200000Y-35050000D03*
X65300000Y-34900000D03*
X56286400Y-42672000D03*
X46532800Y-34277300D03*
X49834800Y-34251900D03*
X39600000Y-34200000D03*
X41950000Y-31650000D03*
X38900000Y-24300000D03*
X50650000Y-27800000D03*
X63550000Y-28050000D03*
X62950000Y-24400000D03*
X49500000Y-24150000D03*
X72950000Y-24250000D03*
X73500000Y-32650000D03*
X48650000Y-31200000D03*
X55550000Y-32050000D03*
X54600000Y-38300000D03*
X52750000Y-36000000D03*
X54050000Y-34700000D03*
X59600000Y-31100000D03*
X39150000Y-30200000D03*
X41750000Y-23400000D03*
X64500000Y-43400000D03*
X68400000Y-42800000D03*
X69350000Y-46750000D03*
X72400000Y-48450000D03*
X74000000Y-51700000D03*
X73300000Y-54900000D03*
X74200000Y-57800000D03*
X72550000Y-60500000D03*
X73650000Y-63450000D03*
X72700000Y-65250000D03*
X70450000Y-64600000D03*
X70600000Y-68750000D03*
X73200000Y-70300000D03*
X73850000Y-73150000D03*
X74000000Y-68050000D03*
X70900000Y-72800000D03*
X73900000Y-76150000D03*
X72350000Y-75500000D03*
X70950000Y-77900000D03*
X72300000Y-80900000D03*
X74000000Y-82500000D03*
X73950000Y-89250000D03*
X46500000Y-83100000D03*
X50200000Y-83050000D03*
X41200000Y-89100000D03*
X42750000Y-85000000D03*
X39400000Y-87550000D03*
X44900000Y-68300000D03*
X39450000Y-68250000D03*
X43434000Y-63687002D03*
X39700000Y-55800000D03*
X40050000Y-52000000D03*
X42050000Y-52000000D03*
X38709600Y-76225400D03*
X38735000Y-72301100D03*
X38709600Y-69938900D03*
X41884600Y-68656200D03*
X39395400Y-83032600D03*
X43611800Y-82486500D03*
X56222900Y-42062400D03*
X56248300Y-41465500D03*
X56730900Y-40995600D03*
X56476900Y-68262500D03*
X45571858Y-61694698D03*
X48133000Y-64262000D03*
X43688000Y-62230000D03*
X41656000Y-64008000D03*
X60134500Y-60833000D03*
X52705000Y-57023000D03*
X56616600Y-60833000D03*
X46291500Y-63766700D03*
X50939700Y-75145900D03*
X67564000Y-51308000D03*
X62865000Y-50800000D03*
X69088000Y-49276000D03*
X65405000Y-47879000D03*
X67183000Y-54864000D03*
X67150977Y-53074216D03*
X62340000Y-52050000D03*
X60860000Y-51450000D03*
X57190000Y-51440000D03*
X55120000Y-45500000D03*
X50190000Y-40790000D03*
X44720000Y-37330000D03*
X45974000Y-48212500D03*
X41973500Y-49212500D03*
X51054000Y-49085500D03*
X59626500Y-56134000D03*
X60350400Y-47548800D03*
X59639200Y-55219600D03*
X59375506Y-47426437D03*
X58724800Y-55168800D03*
X53975000Y-47434500D03*
X57721500Y-54215000D03*
X58562258Y-64068942D03*
X61268261Y-64819151D03*
X58267600Y-62890400D03*
X63957200Y-57759600D03*
X65024000Y-62194001D03*
X62611000Y-68961000D03*
X50927000Y-70840600D03*
X52705000Y-71221600D03*
X65532000Y-68834000D03*
X66294000Y-62357000D03*
X64653000Y-60833000D03*
X66421000Y-54215000D03*
X66421000Y-52449216D03*
X65786000Y-63119285D03*
X65786000Y-64516000D03*
D36*
X56500000Y-88915000D02*
X56388000Y-89027000D01*
D37*
X56500000Y-82549000D02*
X56500000Y-88915000D01*
D38*
X43889002Y-63232000D02*
X44739000Y-63232000D01*
X43434000Y-63687002D02*
X43434000Y-63687002D01*
X46240000Y-65532000D02*
X45278998Y-65532000D01*
X49039000Y-62232000D02*
X50036000Y-62232000D01*
X50036000Y-62232000D02*
X50038000Y-62230000D01*
X45278998Y-65532000D02*
X45278998Y-65532000D01*
X53086000Y-53987000D02*
X52312000Y-53987000D01*
X52312000Y-53987000D02*
X51562000Y-53987000D01*
X57694000Y-47292000D02*
X57519000Y-47117000D01*
X57519000Y-47117000D02*
X57519000Y-46494000D01*
X57519000Y-46494000D02*
X57531000Y-46482000D01*
X53975000Y-48780000D02*
X53201000Y-48780000D01*
X53201000Y-48780000D02*
X52451000Y-48780000D01*
X54694000Y-54090000D02*
X55594000Y-54090000D01*
X53814000Y-54090000D02*
X54694000Y-54090000D01*
X53711000Y-53987000D02*
X53814000Y-54090000D01*
X53086000Y-53987000D02*
X53711000Y-53987000D01*
X65611000Y-51090000D02*
X66040000Y-50661000D01*
X64294000Y-51090000D02*
X65611000Y-51090000D01*
X66040000Y-50661000D02*
X67044000Y-50661000D01*
X67044000Y-50661000D02*
X67056000Y-50673000D01*
X56122000Y-59690000D02*
X56122000Y-58686000D01*
X56122000Y-58686000D02*
X56134000Y-58674000D01*
X41414000Y-76900600D02*
X41414000Y-78079600D01*
X40164000Y-75650600D02*
X41414000Y-76900600D01*
X41414000Y-78079600D02*
X41414000Y-78448600D01*
X41414000Y-78448600D02*
X40894000Y-78968600D01*
X46736000Y-72376600D02*
X46736000Y-71475600D01*
X48305000Y-72376600D02*
X48387000Y-72458600D01*
X46736000Y-72376600D02*
X48305000Y-72376600D01*
X50927000Y-77858600D02*
X49657000Y-77858600D01*
X48387000Y-77858600D02*
X49657000Y-77858600D01*
X49657000Y-77858600D02*
X49657000Y-76428600D01*
X67818000Y-47776000D02*
X66826000Y-47776000D01*
X66826000Y-47776000D02*
X66802000Y-47752000D01*
X61214000Y-59956000D02*
X61861000Y-59309000D01*
X61214000Y-60198000D02*
X61214000Y-59956000D01*
X62194000Y-58976000D02*
X61861000Y-59309000D01*
X62194000Y-57690000D02*
X62194000Y-58976000D01*
X67552000Y-46101000D02*
X68199000Y-46101000D01*
D36*
X44069000Y-44628500D02*
X44005500Y-44692000D01*
X45593000Y-44628500D02*
X44779500Y-44628500D01*
X44779500Y-44628500D02*
X44069000Y-44628500D01*
D38*
X44767500Y-41326500D02*
X44017500Y-41326500D01*
X44017500Y-41326500D02*
X43878500Y-41465500D01*
X59082500Y-47978500D02*
X57694000Y-47978500D01*
X59194000Y-48090000D02*
X59082500Y-47978500D01*
X59194000Y-48990000D02*
X59194000Y-48090000D01*
X57694000Y-48990000D02*
X57694000Y-47978500D01*
X57694000Y-47978500D02*
X57694000Y-47292000D01*
D37*
X71551800Y-38227000D02*
X67041800Y-39467000D01*
X67260000Y-39450000D02*
X65790000Y-39940000D01*
D38*
X43434000Y-63687002D02*
X43889002Y-63232000D01*
D36*
X56500000Y-66549000D02*
X56500000Y-68239400D01*
X56500000Y-68239400D02*
X56476900Y-68262500D01*
D38*
X51397000Y-66240000D02*
X52397000Y-66240000D01*
X51172000Y-66240000D02*
X51397000Y-66240000D01*
X49039000Y-64107000D02*
X51172000Y-66240000D01*
X49039000Y-64107000D02*
X49039000Y-63732000D01*
X49039000Y-64883000D02*
X49039000Y-64107000D01*
X48390000Y-65532000D02*
X49039000Y-64883000D01*
X47740000Y-65532000D02*
X48390000Y-65532000D01*
X44739000Y-61732000D02*
X45534556Y-61732000D01*
X45534556Y-61732000D02*
X45571858Y-61694698D01*
X54694000Y-55090000D02*
X54102000Y-55682000D01*
X55594000Y-55090000D02*
X54694000Y-55090000D01*
X54102000Y-58928000D02*
X54610000Y-59436000D01*
X54610000Y-59436000D02*
X54610000Y-65024000D01*
X54610000Y-65024000D02*
X54102000Y-65532000D01*
X54102000Y-65532000D02*
X53975000Y-65532000D01*
X54102000Y-55682000D02*
X54102000Y-57150000D01*
X54102000Y-57150000D02*
X54102000Y-58928000D01*
D36*
X43020500Y-43192000D02*
X44005500Y-43192000D01*
X41402000Y-44810500D02*
X43020500Y-43192000D01*
X45529500Y-43192000D02*
X45593000Y-43128500D01*
X44005500Y-43192000D02*
X45529500Y-43192000D01*
X46686500Y-42035000D02*
X48109000Y-42035000D01*
X45593000Y-43128500D02*
X46686500Y-42035000D01*
D38*
X44739000Y-62232000D02*
X43690000Y-62232000D01*
X43690000Y-62232000D02*
X43688000Y-62230000D01*
X41656000Y-64008000D02*
X41656000Y-63107000D01*
X41656000Y-65163000D02*
X41656000Y-64008000D01*
X44628500Y-39687500D02*
X44767500Y-39826500D01*
X42850500Y-39687500D02*
X44628500Y-39687500D01*
X48100500Y-39826500D02*
X48109000Y-39835000D01*
X44767500Y-39826500D02*
X48100500Y-39826500D01*
D36*
X48882300Y-74828400D02*
X48882300Y-74841100D01*
D38*
X50923498Y-58587500D02*
X52397000Y-58587500D01*
X47244000Y-62694000D02*
X47244000Y-62266998D01*
X44739000Y-63732000D02*
X46206000Y-63732000D01*
X46206000Y-63732000D02*
X46421900Y-63516100D01*
X53086000Y-55487000D02*
X51562000Y-55487000D01*
X52451000Y-50280000D02*
X53975000Y-50280000D01*
X55284000Y-50280000D02*
X55594000Y-50590000D01*
X53975000Y-50280000D02*
X55284000Y-50280000D01*
X56019000Y-47742000D02*
X56019000Y-47117000D01*
X56019000Y-48190000D02*
X56019000Y-47742000D01*
X56819000Y-48990000D02*
X56019000Y-48190000D01*
X57194000Y-48990000D02*
X56819000Y-48990000D01*
X54694000Y-54590000D02*
X55594000Y-54590000D01*
X53958000Y-54590000D02*
X54694000Y-54590000D01*
X53086000Y-55462000D02*
X53958000Y-54590000D01*
X53086000Y-55487000D02*
X53086000Y-55462000D01*
X62694000Y-57690000D02*
X62694000Y-57880000D01*
X65415000Y-49161000D02*
X66040000Y-49161000D01*
X65348000Y-49161000D02*
X65415000Y-49161000D01*
X43164000Y-75650600D02*
X42914000Y-75900600D01*
X43164000Y-75650600D02*
X44337000Y-75650600D01*
X62694000Y-58642000D02*
X63361000Y-59309000D01*
X62694000Y-57690000D02*
X62694000Y-58642000D01*
X64334001Y-50174999D02*
X56651999Y-50174999D01*
X64684000Y-49825000D02*
X64334001Y-50174999D01*
X64684000Y-49825000D02*
X65348000Y-49161000D01*
X64294000Y-50215000D02*
X64684000Y-49825000D01*
X64294000Y-50590000D02*
X64294000Y-50215000D01*
D36*
X60008999Y-50340001D02*
X61223999Y-50340001D01*
X56651999Y-50174999D02*
X56817001Y-50340001D01*
X56817001Y-50340001D02*
X60008999Y-50340001D01*
X64294000Y-49532000D02*
X64294000Y-50215000D01*
X64665000Y-49161000D02*
X64294000Y-49532000D01*
X66040000Y-49161000D02*
X64665000Y-49161000D01*
D38*
X62242000Y-62357000D02*
X62242000Y-60833000D01*
X62242000Y-60428000D02*
X63361000Y-59309000D01*
X62242000Y-60833000D02*
X62242000Y-60428000D01*
D36*
X44692000Y-49212500D02*
X47752000Y-49212500D01*
X47752000Y-49212500D02*
X48641000Y-50101500D01*
X43852000Y-47010500D02*
X42352000Y-47010500D01*
X43940000Y-47010500D02*
X43852000Y-47010500D01*
X44692000Y-47762500D02*
X43940000Y-47010500D01*
X44692000Y-49212500D02*
X44692000Y-47762500D01*
D38*
X40850500Y-39687500D02*
X40259000Y-40279000D01*
X41350500Y-39687500D02*
X40850500Y-39687500D01*
X42352000Y-46810500D02*
X42352000Y-47010500D01*
X41526999Y-45985499D02*
X42352000Y-46810500D01*
X40651499Y-45985499D02*
X41526999Y-45985499D01*
X40259000Y-45593000D02*
X40651499Y-45985499D01*
X40259000Y-40279000D02*
X40259000Y-45593000D01*
X61697002Y-60833000D02*
X60134500Y-60833000D01*
X62742000Y-59788002D02*
X61697002Y-60833000D01*
X62742000Y-60133000D02*
X62742000Y-59788002D01*
X62242000Y-60833000D02*
X62242000Y-60633000D01*
X62242000Y-60633000D02*
X62742000Y-60133000D01*
X55739600Y-64109600D02*
X55739600Y-62534800D01*
X55739600Y-61710000D02*
X56616600Y-60833000D01*
X55739600Y-62534800D02*
X55739600Y-61710000D01*
X64500000Y-82049000D02*
X64500000Y-82549000D01*
X46421900Y-63516100D02*
X47244000Y-62694000D01*
X41656000Y-61607000D02*
X41656000Y-60313000D01*
D36*
X64240000Y-39890000D02*
X64290000Y-39940000D01*
D37*
X62500000Y-39890000D02*
X64290000Y-39940000D01*
X60355000Y-42035000D02*
X62500000Y-39890000D01*
X57809000Y-42035000D02*
X60355000Y-42035000D01*
D38*
X69977000Y-50713000D02*
X68159000Y-50713000D01*
X68159000Y-50713000D02*
X67564000Y-51308000D01*
X56494000Y-53590000D02*
X55594000Y-53590000D01*
X59650736Y-53590000D02*
X56494000Y-53590000D01*
X62440736Y-50800000D02*
X59650736Y-53590000D01*
X62865000Y-50800000D02*
X62440736Y-50800000D01*
X68159000Y-50267000D02*
X68159000Y-50713000D01*
X67818000Y-49926000D02*
X68159000Y-50267000D01*
X67818000Y-49276000D02*
X67818000Y-49926000D01*
X51992500Y-63232000D02*
X52397000Y-63636500D01*
X49039000Y-63232000D02*
X51992500Y-63232000D01*
X52397000Y-63636500D02*
X52397000Y-60938500D01*
X64554000Y-46101000D02*
X66052000Y-46101000D01*
X62144001Y-48940001D02*
X62194000Y-48990000D01*
X62304000Y-46101000D02*
X62954000Y-46101000D01*
X62194000Y-46211000D02*
X62304000Y-46101000D01*
X62194000Y-48990000D02*
X62194000Y-46211000D01*
D37*
X64260000Y-37020000D02*
X64260000Y-35240000D01*
D38*
X65194000Y-51590000D02*
X64294000Y-51590000D01*
X66604000Y-51590000D02*
X65194000Y-51590000D01*
X68227000Y-53213000D02*
X66604000Y-51590000D01*
X69977000Y-53213000D02*
X68227000Y-53213000D01*
X71727000Y-55713000D02*
X72136000Y-55304000D01*
X69977000Y-55713000D02*
X71727000Y-55713000D01*
X71375002Y-49276000D02*
X69088000Y-49276000D01*
X72136000Y-55304000D02*
X72136000Y-50036998D01*
X72136000Y-50036998D02*
X71375002Y-49276000D01*
X62694000Y-48465000D02*
X62694000Y-48990000D01*
X63280000Y-47879000D02*
X62694000Y-48465000D01*
X65405000Y-47879000D02*
X63280000Y-47879000D01*
X69227000Y-58213000D02*
X67818000Y-56804000D01*
X69977000Y-58213000D02*
X69227000Y-58213000D01*
X67818000Y-56804000D02*
X67818000Y-54610000D01*
X66798000Y-53590000D02*
X64294000Y-53590000D01*
X67818000Y-54610000D02*
X66798000Y-53590000D01*
X67183000Y-58669000D02*
X67183000Y-54864000D01*
X69977000Y-60713000D02*
X69227000Y-60713000D01*
X69227000Y-60713000D02*
X67183000Y-58669000D01*
X64309784Y-53074216D02*
X64294000Y-53090000D01*
X67150977Y-53074216D02*
X64309784Y-53074216D01*
X64294000Y-52090000D02*
X62380000Y-52090000D01*
X62380000Y-52090000D02*
X62340000Y-52050000D01*
X60860000Y-51450000D02*
X57200000Y-51450000D01*
X57200000Y-51450000D02*
X57190000Y-51440000D01*
X55120000Y-45500000D02*
X50410000Y-40790000D01*
X50410000Y-40790000D02*
X50190000Y-40790000D01*
X42206800Y-37330000D02*
X41808400Y-36931600D01*
X44720000Y-37330000D02*
X42206800Y-37330000D01*
X41973500Y-49212500D02*
X43192000Y-49212500D01*
X43055500Y-49076000D02*
X43192000Y-49212500D01*
X40452000Y-47210500D02*
X40452000Y-47010500D01*
X42454000Y-49212500D02*
X40452000Y-47210500D01*
X43192000Y-49212500D02*
X42454000Y-49212500D01*
X46828200Y-47358300D02*
X45974000Y-48212500D01*
X47903700Y-47358300D02*
X46828200Y-47358300D01*
X59694000Y-56201500D02*
X59694000Y-57690000D01*
X59626500Y-56134000D02*
X59694000Y-56201500D01*
X51054000Y-49008600D02*
X49403700Y-47358300D01*
X51054000Y-49085500D02*
X51054000Y-49008600D01*
X61010800Y-46622400D02*
X61010800Y-46888400D01*
X61010800Y-46888400D02*
X60350400Y-47548800D01*
X59639200Y-55219600D02*
X58166000Y-56692800D01*
X57194000Y-56790000D02*
X57194000Y-57690000D01*
X57291200Y-56692800D02*
X57194000Y-56790000D01*
X58166000Y-56692800D02*
X57291200Y-56692800D01*
X47980000Y-35306000D02*
X48109000Y-35435000D01*
X61010800Y-44622400D02*
X60388400Y-44000000D01*
X61010800Y-45122400D02*
X61010800Y-44622400D01*
X49884010Y-36375008D02*
X49009002Y-35500000D01*
X49884010Y-37784010D02*
X49884010Y-36375008D01*
X60388400Y-44000000D02*
X56100000Y-44000000D01*
X56100000Y-44000000D02*
X49884010Y-37784010D01*
X49009002Y-35500000D02*
X47900000Y-35500000D01*
X47814000Y-36830000D02*
X48109000Y-36535000D01*
X55667402Y-45122400D02*
X52900000Y-42354998D01*
X59334400Y-45122400D02*
X55667402Y-45122400D01*
X49434001Y-37024999D02*
X48909002Y-36500000D01*
X49434001Y-39108999D02*
X49434001Y-37024999D01*
X52900000Y-42354998D02*
X52680000Y-42354998D01*
X52680000Y-42354998D02*
X49434001Y-39108999D01*
X48909002Y-36500000D02*
X47800000Y-36500000D01*
X59334400Y-46622400D02*
X59334400Y-47385331D01*
X59334400Y-47385331D02*
X59375506Y-47426437D01*
X57803600Y-56090000D02*
X55594000Y-56090000D01*
X58724800Y-55168800D02*
X57803600Y-56090000D01*
X48272000Y-43298000D02*
X48109000Y-43135000D01*
X49359000Y-43135000D02*
X48109000Y-43135000D01*
X50260500Y-43135000D02*
X49359000Y-43135000D01*
X51701000Y-44575500D02*
X50260500Y-43135000D01*
X51701000Y-45275500D02*
X51701000Y-44575500D01*
X53201000Y-45275500D02*
X53201000Y-46660500D01*
X53201000Y-46660500D02*
X53975000Y-47434500D01*
X56346500Y-55590000D02*
X55594000Y-55590000D01*
X57721500Y-54215000D02*
X56346500Y-55590000D01*
X62500000Y-66049000D02*
X62500000Y-66549000D01*
X57694000Y-61243000D02*
X62500000Y-66049000D01*
X57694000Y-57690000D02*
X57694000Y-61243000D01*
X57239600Y-64109600D02*
X58521600Y-64109600D01*
X58521600Y-64109600D02*
X58562258Y-64068942D01*
X60500000Y-66549000D02*
X60500000Y-65122800D01*
X60500000Y-65122800D02*
X58267600Y-62890400D01*
X63394000Y-54090000D02*
X64294000Y-54090000D01*
X62687200Y-54796800D02*
X63394000Y-54090000D01*
X62687200Y-56065336D02*
X62687200Y-54796800D01*
X63957200Y-57335336D02*
X62687200Y-56065336D01*
X63957200Y-57759600D02*
X63957200Y-57335336D01*
X57912000Y-62534800D02*
X58267600Y-62890400D01*
X57239600Y-62534800D02*
X57912000Y-62534800D01*
X65194000Y-55590000D02*
X65278000Y-55674000D01*
X64294000Y-55590000D02*
X65194000Y-55590000D01*
X65278000Y-55674000D02*
X65278000Y-61940001D01*
X65278000Y-61940001D02*
X65024000Y-62194001D01*
X42736000Y-70078600D02*
X52451000Y-70078600D01*
X40164000Y-72650600D02*
X42736000Y-70078600D01*
X63904999Y-62194001D02*
X63742000Y-62357000D01*
X65024000Y-62194001D02*
X63904999Y-62194001D01*
X62611000Y-68961000D02*
X61722000Y-69850000D01*
X52679600Y-69850000D02*
X52451000Y-70078600D01*
X61722000Y-69850000D02*
X52679600Y-69850000D01*
X52451000Y-70459600D02*
X52451000Y-70078600D01*
X50927000Y-71983600D02*
X52451000Y-70459600D01*
X50927000Y-72458600D02*
X50927000Y-71983600D01*
X43164000Y-72650600D02*
X44974000Y-70840600D01*
X44974000Y-70840600D02*
X50927000Y-70840600D01*
X52705000Y-71950600D02*
X52197000Y-72458600D01*
X52705000Y-71221600D02*
X52705000Y-71950600D01*
X65194000Y-55090000D02*
X64294000Y-55090000D01*
X65330410Y-55090000D02*
X65194000Y-55090000D01*
X65728009Y-55487599D02*
X65330410Y-55090000D01*
X65728010Y-61366746D02*
X65728009Y-55487599D01*
X66294000Y-61932736D02*
X65728010Y-61366746D01*
X66294000Y-62357000D02*
X66294000Y-61932736D01*
X63742000Y-60833000D02*
X64653000Y-60833000D01*
X63144400Y-71221600D02*
X52705000Y-71221600D01*
X65532000Y-68834000D02*
X63144400Y-71221600D01*
X66280216Y-52590000D02*
X64294000Y-52590000D01*
X66421000Y-52449216D02*
X66280216Y-52590000D01*
X66421000Y-58543410D02*
X67691000Y-59813410D01*
X66421000Y-54215000D02*
X66421000Y-58543410D01*
X67691000Y-63654998D02*
X69469000Y-65432998D01*
X67691000Y-59813410D02*
X67691000Y-63654998D01*
X66500000Y-82049000D02*
X66500000Y-82549000D01*
X69469000Y-79080000D02*
X66500000Y-82049000D01*
X69469000Y-65432998D02*
X69469000Y-79080000D01*
X58194000Y-57690000D02*
X58194000Y-61106590D01*
X58194000Y-61106590D02*
X61281705Y-64194295D01*
X64500000Y-66049000D02*
X64500000Y-66549000D01*
X62645295Y-64194295D02*
X64500000Y-66049000D01*
X61281705Y-64194295D02*
X62645295Y-64194295D01*
X59194000Y-57690000D02*
X59194000Y-60833770D01*
X65773284Y-63132001D02*
X65786000Y-63119285D01*
X59194000Y-60833770D02*
X61492231Y-63132001D01*
X61492231Y-63132001D02*
X65773284Y-63132001D01*
X65786000Y-65835000D02*
X66500000Y-66549000D01*
X65786000Y-64516000D02*
X65786000Y-65835000D01*
X58694000Y-57690000D02*
X58694000Y-60970180D01*
X68500000Y-66049000D02*
X68500000Y-66549000D01*
X66195285Y-63744285D02*
X68500000Y-66049000D01*
X61468105Y-63744285D02*
X66195285Y-63744285D01*
X58694000Y-60970180D02*
X61468105Y-63744285D01*
X64290000Y-38801800D02*
X64262000Y-38773800D01*
D37*
X64290000Y-39940000D02*
X64290000Y-38801800D01*
D39*
G36*
X53721000Y-59621801D02*
G01*
X53721000Y-64389000D01*
X51741606Y-64389000D01*
X50802311Y-63449705D01*
X50834021Y-62721626D01*
X50866586Y-62672889D01*
X50937068Y-62502729D01*
X50973000Y-62322089D01*
X50973000Y-62137911D01*
X50937068Y-61957271D01*
X50873948Y-61804885D01*
X50971589Y-59563000D01*
X53662199Y-59563000D01*
X53721000Y-59621801D01*
X53721000Y-59621801D01*
G37*
X53721000Y-59621801D02*
X53721000Y-64389000D01*
X51741606Y-64389000D01*
X50802311Y-63449705D01*
X50834021Y-62721626D01*
X50866586Y-62672889D01*
X50937068Y-62502729D01*
X50973000Y-62322089D01*
X50973000Y-62137911D01*
X50937068Y-61957271D01*
X50873948Y-61804885D01*
X50971589Y-59563000D01*
X53662199Y-59563000D01*
X53721000Y-59621801D01*
G36*
X48276304Y-63675322D02*
G01*
X48342492Y-63710701D01*
X48414311Y-63732487D01*
X48489000Y-63739843D01*
X49589000Y-63739843D01*
X49598093Y-63738947D01*
X49731815Y-63750091D01*
X50206411Y-64165363D01*
X51474529Y-65370075D01*
X51494172Y-65385371D01*
X51516423Y-65396540D01*
X51540424Y-65403154D01*
X51562000Y-65405000D01*
X54102000Y-65405000D01*
X54102000Y-69215000D01*
X47371000Y-69215000D01*
X47371000Y-64446628D01*
X48264017Y-63665238D01*
X48276304Y-63675322D01*
X48276304Y-63675322D01*
G37*
X48276304Y-63675322D02*
X48342492Y-63710701D01*
X48414311Y-63732487D01*
X48489000Y-63739843D01*
X49589000Y-63739843D01*
X49598093Y-63738947D01*
X49731815Y-63750091D01*
X50206411Y-64165363D01*
X51474529Y-65370075D01*
X51494172Y-65385371D01*
X51516423Y-65396540D01*
X51540424Y-65403154D01*
X51562000Y-65405000D01*
X54102000Y-65405000D01*
X54102000Y-69215000D01*
X47371000Y-69215000D01*
X47371000Y-64446628D01*
X48264017Y-63665238D01*
X48276304Y-63675322D01*
G36*
X46736000Y-60579000D02*
G01*
X43307000Y-60579000D01*
X43282224Y-60581440D01*
X43258399Y-60588667D01*
X43236443Y-60600403D01*
X43217197Y-60616197D01*
X43201403Y-60635443D01*
X43189667Y-60657399D01*
X43182440Y-60681224D01*
X43180001Y-60705629D01*
X43176865Y-61778056D01*
X43159033Y-61795888D01*
X43084506Y-61907426D01*
X43033171Y-62031360D01*
X43007000Y-62162927D01*
X43007000Y-62297073D01*
X43033171Y-62428640D01*
X43084506Y-62552574D01*
X43159033Y-62664112D01*
X43174230Y-62679309D01*
X43173001Y-63099629D01*
X43175368Y-63124412D01*
X43182526Y-63148258D01*
X43194198Y-63170248D01*
X43209935Y-63189540D01*
X43229134Y-63205390D01*
X43251056Y-63217190D01*
X43274859Y-63224487D01*
X43297941Y-63226983D01*
X44003007Y-63238416D01*
X44002935Y-63242063D01*
X43812359Y-63246027D01*
X43787639Y-63248982D01*
X43763970Y-63256703D01*
X43742262Y-63268893D01*
X43723349Y-63285084D01*
X43707959Y-63304654D01*
X43696682Y-63326850D01*
X43689952Y-63350819D01*
X43688000Y-63373000D01*
X43688000Y-64389000D01*
X43690440Y-64413776D01*
X43697667Y-64437601D01*
X43709403Y-64459557D01*
X43725197Y-64478803D01*
X43744443Y-64494597D01*
X43766399Y-64506333D01*
X43790224Y-64513560D01*
X43815000Y-64516000D01*
X46736000Y-64516000D01*
X46736000Y-69216735D01*
X38023000Y-69336584D01*
X38023000Y-66283623D01*
X42421368Y-66166955D01*
X42446071Y-66163859D01*
X42469695Y-66156003D01*
X42491333Y-66143689D01*
X42510152Y-66127390D01*
X42525430Y-66107733D01*
X42536580Y-66085473D01*
X42543173Y-66061465D01*
X42544977Y-66042396D01*
X42671977Y-59311396D01*
X42670005Y-59286578D01*
X42663229Y-59262621D01*
X42651909Y-59240447D01*
X42636481Y-59220908D01*
X42617537Y-59204753D01*
X42595806Y-59192605D01*
X42572122Y-59184930D01*
X42539842Y-59182105D01*
X38767692Y-59335444D01*
X38829356Y-50640760D01*
X46736000Y-50609995D01*
X46736000Y-60579000D01*
X46736000Y-60579000D01*
G37*
X46736000Y-60579000D02*
X43307000Y-60579000D01*
X43282224Y-60581440D01*
X43258399Y-60588667D01*
X43236443Y-60600403D01*
X43217197Y-60616197D01*
X43201403Y-60635443D01*
X43189667Y-60657399D01*
X43182440Y-60681224D01*
X43180001Y-60705629D01*
X43176865Y-61778056D01*
X43159033Y-61795888D01*
X43084506Y-61907426D01*
X43033171Y-62031360D01*
X43007000Y-62162927D01*
X43007000Y-62297073D01*
X43033171Y-62428640D01*
X43084506Y-62552574D01*
X43159033Y-62664112D01*
X43174230Y-62679309D01*
X43173001Y-63099629D01*
X43175368Y-63124412D01*
X43182526Y-63148258D01*
X43194198Y-63170248D01*
X43209935Y-63189540D01*
X43229134Y-63205390D01*
X43251056Y-63217190D01*
X43274859Y-63224487D01*
X43297941Y-63226983D01*
X44003007Y-63238416D01*
X44002935Y-63242063D01*
X43812359Y-63246027D01*
X43787639Y-63248982D01*
X43763970Y-63256703D01*
X43742262Y-63268893D01*
X43723349Y-63285084D01*
X43707959Y-63304654D01*
X43696682Y-63326850D01*
X43689952Y-63350819D01*
X43688000Y-63373000D01*
X43688000Y-64389000D01*
X43690440Y-64413776D01*
X43697667Y-64437601D01*
X43709403Y-64459557D01*
X43725197Y-64478803D01*
X43744443Y-64494597D01*
X43766399Y-64506333D01*
X43790224Y-64513560D01*
X43815000Y-64516000D01*
X46736000Y-64516000D01*
X46736000Y-69216735D01*
X38023000Y-69336584D01*
X38023000Y-66283623D01*
X42421368Y-66166955D01*
X42446071Y-66163859D01*
X42469695Y-66156003D01*
X42491333Y-66143689D01*
X42510152Y-66127390D01*
X42525430Y-66107733D01*
X42536580Y-66085473D01*
X42543173Y-66061465D01*
X42544977Y-66042396D01*
X42671977Y-59311396D01*
X42670005Y-59286578D01*
X42663229Y-59262621D01*
X42651909Y-59240447D01*
X42636481Y-59220908D01*
X42617537Y-59204753D01*
X42595806Y-59192605D01*
X42572122Y-59184930D01*
X42539842Y-59182105D01*
X38767692Y-59335444D01*
X38829356Y-50640760D01*
X46736000Y-50609995D01*
X46736000Y-60579000D01*
G36*
X53340000Y-52959000D02*
G01*
X50927000Y-52959000D01*
X50902224Y-52961440D01*
X50878399Y-52968667D01*
X50856443Y-52980403D01*
X50837197Y-52996197D01*
X50821403Y-53015443D01*
X50809667Y-53037399D01*
X50802440Y-53061224D01*
X50800000Y-53086000D01*
X50800000Y-54991000D01*
X50802440Y-55015776D01*
X50809667Y-55039601D01*
X50821403Y-55061557D01*
X50837197Y-55080803D01*
X50856443Y-55096597D01*
X50878399Y-55108333D01*
X50902224Y-55115560D01*
X50927000Y-55118000D01*
X53467000Y-55118000D01*
X53467000Y-58801000D01*
X50292000Y-58801000D01*
X50267224Y-58803440D01*
X50243399Y-58810667D01*
X50221443Y-58822403D01*
X50202197Y-58838197D01*
X50186403Y-58857443D01*
X50174667Y-58879399D01*
X50167440Y-58903224D01*
X50165021Y-58925673D01*
X50125186Y-61099545D01*
X47999162Y-61214184D01*
X47974553Y-61217955D01*
X47951152Y-61226454D01*
X47929859Y-61239356D01*
X47911492Y-61256163D01*
X47896757Y-61276231D01*
X47886221Y-61298787D01*
X47880287Y-61322966D01*
X47879000Y-61341000D01*
X47879000Y-63309500D01*
X46947667Y-64008000D01*
X44340860Y-64008000D01*
X44371920Y-63772625D01*
X45191473Y-63739843D01*
X45289000Y-63739843D01*
X45355698Y-63733274D01*
X46015076Y-63706899D01*
X46039735Y-63703470D01*
X46063252Y-63695296D01*
X46084722Y-63682692D01*
X46103320Y-63666142D01*
X46118332Y-63646281D01*
X46129181Y-63623872D01*
X46135450Y-63599778D01*
X46136973Y-63577359D01*
X46106666Y-62120069D01*
X46175352Y-62017272D01*
X46226687Y-61893338D01*
X46237494Y-61839011D01*
X47309341Y-61195902D01*
X47329331Y-61181062D01*
X47346042Y-61162607D01*
X47358832Y-61141247D01*
X47367208Y-61117802D01*
X47371000Y-61087000D01*
X47371000Y-49784000D01*
X53340000Y-49784000D01*
X53340000Y-52959000D01*
X53340000Y-52959000D01*
G37*
X53340000Y-52959000D02*
X50927000Y-52959000D01*
X50902224Y-52961440D01*
X50878399Y-52968667D01*
X50856443Y-52980403D01*
X50837197Y-52996197D01*
X50821403Y-53015443D01*
X50809667Y-53037399D01*
X50802440Y-53061224D01*
X50800000Y-53086000D01*
X50800000Y-54991000D01*
X50802440Y-55015776D01*
X50809667Y-55039601D01*
X50821403Y-55061557D01*
X50837197Y-55080803D01*
X50856443Y-55096597D01*
X50878399Y-55108333D01*
X50902224Y-55115560D01*
X50927000Y-55118000D01*
X53467000Y-55118000D01*
X53467000Y-58801000D01*
X50292000Y-58801000D01*
X50267224Y-58803440D01*
X50243399Y-58810667D01*
X50221443Y-58822403D01*
X50202197Y-58838197D01*
X50186403Y-58857443D01*
X50174667Y-58879399D01*
X50167440Y-58903224D01*
X50165021Y-58925673D01*
X50125186Y-61099545D01*
X47999162Y-61214184D01*
X47974553Y-61217955D01*
X47951152Y-61226454D01*
X47929859Y-61239356D01*
X47911492Y-61256163D01*
X47896757Y-61276231D01*
X47886221Y-61298787D01*
X47880287Y-61322966D01*
X47879000Y-61341000D01*
X47879000Y-63309500D01*
X46947667Y-64008000D01*
X44340860Y-64008000D01*
X44371920Y-63772625D01*
X45191473Y-63739843D01*
X45289000Y-63739843D01*
X45355698Y-63733274D01*
X46015076Y-63706899D01*
X46039735Y-63703470D01*
X46063252Y-63695296D01*
X46084722Y-63682692D01*
X46103320Y-63666142D01*
X46118332Y-63646281D01*
X46129181Y-63623872D01*
X46135450Y-63599778D01*
X46136973Y-63577359D01*
X46106666Y-62120069D01*
X46175352Y-62017272D01*
X46226687Y-61893338D01*
X46237494Y-61839011D01*
X47309341Y-61195902D01*
X47329331Y-61181062D01*
X47346042Y-61162607D01*
X47358832Y-61141247D01*
X47367208Y-61117802D01*
X47371000Y-61087000D01*
X47371000Y-49784000D01*
X53340000Y-49784000D01*
X53340000Y-52959000D01*
G36*
X42037000Y-65532000D02*
G01*
X40767000Y-65532000D01*
X40767000Y-62865000D01*
X42037000Y-62865000D01*
X42037000Y-65532000D01*
X42037000Y-65532000D01*
G37*
X42037000Y-65532000D02*
X40767000Y-65532000D01*
X40767000Y-62865000D01*
X42037000Y-62865000D01*
X42037000Y-65532000D01*
G36*
X41983000Y-59955882D02*
G01*
X41983000Y-61852653D01*
X40767000Y-61849345D01*
X40767000Y-59945128D01*
X41983000Y-59955882D01*
X41983000Y-59955882D01*
G37*
X41983000Y-59955882D02*
X41983000Y-61852653D01*
X40767000Y-61849345D01*
X40767000Y-59945128D01*
X41983000Y-59955882D01*
G36*
X56388000Y-48006000D02*
G01*
X56390440Y-48030776D01*
X56397667Y-48054601D01*
X56409403Y-48076557D01*
X56425197Y-48095803D01*
X56444443Y-48111597D01*
X56466399Y-48123333D01*
X56490224Y-48130560D01*
X56515000Y-48133000D01*
X57150000Y-48133000D01*
X57150000Y-50673000D01*
X56488770Y-50673000D01*
X56456696Y-50646678D01*
X56390508Y-50611299D01*
X56318689Y-50589513D01*
X56244000Y-50582157D01*
X54944000Y-50582157D01*
X54869311Y-50589513D01*
X54797492Y-50611299D01*
X54731304Y-50646678D01*
X54699230Y-50673000D01*
X50546000Y-50673000D01*
X50546000Y-49784000D01*
X54737000Y-49784000D01*
X54761776Y-49781560D01*
X54785601Y-49774333D01*
X54807557Y-49762597D01*
X54826803Y-49746803D01*
X54842597Y-49727557D01*
X54854333Y-49705601D01*
X54861560Y-49681776D01*
X54864000Y-49657000D01*
X54864000Y-46609000D01*
X56388000Y-46609000D01*
X56388000Y-48006000D01*
X56388000Y-48006000D01*
G37*
X56388000Y-48006000D02*
X56390440Y-48030776D01*
X56397667Y-48054601D01*
X56409403Y-48076557D01*
X56425197Y-48095803D01*
X56444443Y-48111597D01*
X56466399Y-48123333D01*
X56490224Y-48130560D01*
X56515000Y-48133000D01*
X57150000Y-48133000D01*
X57150000Y-50673000D01*
X56488770Y-50673000D01*
X56456696Y-50646678D01*
X56390508Y-50611299D01*
X56318689Y-50589513D01*
X56244000Y-50582157D01*
X54944000Y-50582157D01*
X54869311Y-50589513D01*
X54797492Y-50611299D01*
X54731304Y-50646678D01*
X54699230Y-50673000D01*
X50546000Y-50673000D01*
X50546000Y-49784000D01*
X54737000Y-49784000D01*
X54761776Y-49781560D01*
X54785601Y-49774333D01*
X54807557Y-49762597D01*
X54826803Y-49746803D01*
X54842597Y-49727557D01*
X54854333Y-49705601D01*
X54861560Y-49681776D01*
X54864000Y-49657000D01*
X54864000Y-46609000D01*
X56388000Y-46609000D01*
X56388000Y-48006000D01*
G36*
X41910002Y-79234589D02*
G01*
X41912303Y-79259378D01*
X41919397Y-79283243D01*
X41931010Y-79305265D01*
X41946696Y-79324598D01*
X41965852Y-79340500D01*
X41987743Y-79352359D01*
X42011526Y-79359719D01*
X42035025Y-79362285D01*
X55791750Y-79576251D01*
X55800331Y-81223715D01*
X55787304Y-81230678D01*
X55729289Y-81278289D01*
X55681678Y-81336304D01*
X55646299Y-81402492D01*
X55624513Y-81474311D01*
X55617157Y-81549000D01*
X55617157Y-83549000D01*
X55624513Y-83623689D01*
X55646299Y-83695508D01*
X55681678Y-83761696D01*
X55706490Y-83791930D01*
X55706491Y-86657978D01*
X54803820Y-86726457D01*
X54406800Y-86726457D01*
X54332111Y-86733813D01*
X54260292Y-86755599D01*
X54233930Y-86769690D01*
X54105093Y-86779464D01*
X54080572Y-86783771D01*
X54057363Y-86792780D01*
X54036357Y-86806143D01*
X54018362Y-86823348D01*
X54004069Y-86843733D01*
X53994027Y-86866514D01*
X53988623Y-86890817D01*
X53987704Y-86905148D01*
X53953115Y-91517000D01*
X38023000Y-91517000D01*
X38023000Y-74828400D01*
X41934687Y-74828400D01*
X41910002Y-79234589D01*
X41910002Y-79234589D01*
G37*
X41910002Y-79234589D02*
X41912303Y-79259378D01*
X41919397Y-79283243D01*
X41931010Y-79305265D01*
X41946696Y-79324598D01*
X41965852Y-79340500D01*
X41987743Y-79352359D01*
X42011526Y-79359719D01*
X42035025Y-79362285D01*
X55791750Y-79576251D01*
X55800331Y-81223715D01*
X55787304Y-81230678D01*
X55729289Y-81278289D01*
X55681678Y-81336304D01*
X55646299Y-81402492D01*
X55624513Y-81474311D01*
X55617157Y-81549000D01*
X55617157Y-83549000D01*
X55624513Y-83623689D01*
X55646299Y-83695508D01*
X55681678Y-83761696D01*
X55706490Y-83791930D01*
X55706491Y-86657978D01*
X54803820Y-86726457D01*
X54406800Y-86726457D01*
X54332111Y-86733813D01*
X54260292Y-86755599D01*
X54233930Y-86769690D01*
X54105093Y-86779464D01*
X54080572Y-86783771D01*
X54057363Y-86792780D01*
X54036357Y-86806143D01*
X54018362Y-86823348D01*
X54004069Y-86843733D01*
X53994027Y-86866514D01*
X53988623Y-86890817D01*
X53987704Y-86905148D01*
X53953115Y-91517000D01*
X38023000Y-91517000D01*
X38023000Y-74828400D01*
X41934687Y-74828400D01*
X41910002Y-79234589D01*
G36*
X59309000Y-79500996D02*
G01*
X59309000Y-84074000D01*
X59311440Y-84098776D01*
X59318667Y-84122601D01*
X59330403Y-84144557D01*
X59346197Y-84163803D01*
X59365443Y-84179597D01*
X59387399Y-84191333D01*
X59411224Y-84198560D01*
X59436000Y-84201000D01*
X59816895Y-84201000D01*
X74753001Y-84213334D01*
X74753001Y-91517000D01*
X58779701Y-91517000D01*
X58783560Y-91392774D01*
X58789122Y-91385996D01*
X58824501Y-91319808D01*
X58846287Y-91247989D01*
X58853643Y-91173300D01*
X58853643Y-89136665D01*
X58927939Y-86744943D01*
X58926269Y-86720103D01*
X58919785Y-86696066D01*
X58908736Y-86673755D01*
X58893548Y-86654029D01*
X58874802Y-86637645D01*
X58853220Y-86625233D01*
X58829632Y-86617270D01*
X58804943Y-86614061D01*
X58791052Y-86614390D01*
X57364750Y-86726457D01*
X57293510Y-86726457D01*
X57293510Y-83791930D01*
X57318322Y-83761696D01*
X57353701Y-83695508D01*
X57375487Y-83623689D01*
X57382843Y-83549000D01*
X57382843Y-81549000D01*
X57375487Y-81474311D01*
X57353701Y-81402492D01*
X57318322Y-81336304D01*
X57270711Y-81278289D01*
X57212696Y-81230678D01*
X57161398Y-81203258D01*
X57160315Y-81192003D01*
X57153141Y-81168162D01*
X57141455Y-81146180D01*
X57125704Y-81126899D01*
X57106494Y-81111062D01*
X57084564Y-81099277D01*
X57060756Y-81091996D01*
X57037479Y-81089512D01*
X43561000Y-80900766D01*
X43561000Y-79376012D01*
X59309000Y-79500996D01*
X59309000Y-79500996D01*
G37*
X59309000Y-79500996D02*
X59309000Y-84074000D01*
X59311440Y-84098776D01*
X59318667Y-84122601D01*
X59330403Y-84144557D01*
X59346197Y-84163803D01*
X59365443Y-84179597D01*
X59387399Y-84191333D01*
X59411224Y-84198560D01*
X59436000Y-84201000D01*
X59816895Y-84201000D01*
X74753001Y-84213334D01*
X74753001Y-91517000D01*
X58779701Y-91517000D01*
X58783560Y-91392774D01*
X58789122Y-91385996D01*
X58824501Y-91319808D01*
X58846287Y-91247989D01*
X58853643Y-91173300D01*
X58853643Y-89136665D01*
X58927939Y-86744943D01*
X58926269Y-86720103D01*
X58919785Y-86696066D01*
X58908736Y-86673755D01*
X58893548Y-86654029D01*
X58874802Y-86637645D01*
X58853220Y-86625233D01*
X58829632Y-86617270D01*
X58804943Y-86614061D01*
X58791052Y-86614390D01*
X57364750Y-86726457D01*
X57293510Y-86726457D01*
X57293510Y-83791930D01*
X57318322Y-83761696D01*
X57353701Y-83695508D01*
X57375487Y-83623689D01*
X57382843Y-83549000D01*
X57382843Y-81549000D01*
X57375487Y-81474311D01*
X57353701Y-81402492D01*
X57318322Y-81336304D01*
X57270711Y-81278289D01*
X57212696Y-81230678D01*
X57161398Y-81203258D01*
X57160315Y-81192003D01*
X57153141Y-81168162D01*
X57141455Y-81146180D01*
X57125704Y-81126899D01*
X57106494Y-81111062D01*
X57084564Y-81099277D01*
X57060756Y-81091996D01*
X57037479Y-81089512D01*
X43561000Y-80900766D01*
X43561000Y-79376012D01*
X59309000Y-79500996D01*
G36*
X74753000Y-36500096D02*
G01*
X70899904Y-36503000D01*
X70875130Y-36505459D01*
X70851311Y-36512704D01*
X70829363Y-36524457D01*
X70810130Y-36540265D01*
X70794350Y-36559522D01*
X70782631Y-36581488D01*
X70775422Y-36605317D01*
X70773000Y-36630262D01*
X70775052Y-37623345D01*
X68130229Y-38281559D01*
X68119082Y-38284882D01*
X66880832Y-38716682D01*
X66879741Y-38717068D01*
X66152211Y-38978233D01*
X65090101Y-39071948D01*
X65094843Y-39023800D01*
X65094843Y-38523800D01*
X65087487Y-38449111D01*
X65080059Y-38424623D01*
X65112860Y-37112574D01*
X65110680Y-37085757D01*
X65103670Y-37061868D01*
X65094843Y-37044986D01*
X65094843Y-37023800D01*
X65087487Y-36949111D01*
X65065701Y-36877292D01*
X65053510Y-36854485D01*
X65053510Y-36012517D01*
X65055711Y-36010711D01*
X65103322Y-35952696D01*
X65138701Y-35886508D01*
X65160487Y-35814689D01*
X65167843Y-35740000D01*
X65167843Y-34740000D01*
X65160487Y-34665311D01*
X65138701Y-34593492D01*
X65103322Y-34527304D01*
X65055711Y-34469289D01*
X64997696Y-34421678D01*
X64931508Y-34386299D01*
X64859689Y-34364513D01*
X64785000Y-34357157D01*
X63735000Y-34357157D01*
X63660311Y-34364513D01*
X63588492Y-34386299D01*
X63522304Y-34421678D01*
X63464289Y-34469289D01*
X63416678Y-34527304D01*
X63381299Y-34593492D01*
X63359513Y-34665311D01*
X63352157Y-34740000D01*
X63352157Y-35740000D01*
X63359513Y-35814689D01*
X63381299Y-35886508D01*
X63416678Y-35952696D01*
X63464289Y-36010711D01*
X63466491Y-36012518D01*
X63466490Y-36861968D01*
X63458299Y-36877292D01*
X63436513Y-36949111D01*
X63429157Y-37023800D01*
X63429157Y-37523800D01*
X63436513Y-37598489D01*
X63451479Y-37647826D01*
X63436324Y-38451025D01*
X63429157Y-38523800D01*
X63429157Y-38830902D01*
X63423823Y-39113604D01*
X63424493Y-39122005D01*
X62550029Y-39097579D01*
X62499999Y-39092651D01*
X62433233Y-39099227D01*
X62366342Y-39103934D01*
X62355563Y-39106878D01*
X62344444Y-39107973D01*
X62280258Y-39127444D01*
X62215556Y-39145114D01*
X62205560Y-39150103D01*
X62194867Y-39153347D01*
X62135691Y-39184977D01*
X62075702Y-39214919D01*
X62066877Y-39221758D01*
X62057016Y-39227029D01*
X62005145Y-39269598D01*
X61952152Y-39310667D01*
X61919198Y-39348610D01*
X60026319Y-41241490D01*
X57770022Y-41241490D01*
X57653445Y-41252972D01*
X57503868Y-41298346D01*
X57496738Y-41302157D01*
X56809000Y-41302157D01*
X56734311Y-41309513D01*
X56662492Y-41331299D01*
X56596304Y-41366678D01*
X56538289Y-41414289D01*
X56490678Y-41472304D01*
X56455299Y-41538492D01*
X56433513Y-41610311D01*
X56426157Y-41685000D01*
X56426157Y-42385000D01*
X56433513Y-42459689D01*
X56455299Y-42531508D01*
X56490678Y-42597696D01*
X56538289Y-42655711D01*
X56596304Y-42703322D01*
X56662492Y-42738701D01*
X56734311Y-42760487D01*
X56809000Y-42767843D01*
X57496738Y-42767843D01*
X57503868Y-42771654D01*
X57653445Y-42817028D01*
X57770022Y-42828510D01*
X60316025Y-42828510D01*
X60355000Y-42832349D01*
X60393975Y-42828510D01*
X60393978Y-42828510D01*
X60510555Y-42817028D01*
X60660132Y-42771654D01*
X60797983Y-42697971D01*
X60918811Y-42598811D01*
X60943665Y-42568526D01*
X62819450Y-40692742D01*
X63852121Y-40721587D01*
X63893492Y-40743701D01*
X63965311Y-40765487D01*
X63981612Y-40767092D01*
X64117295Y-40808251D01*
X64290000Y-40825262D01*
X64462706Y-40808251D01*
X64598389Y-40767092D01*
X64614689Y-40765487D01*
X64686508Y-40743701D01*
X64752696Y-40708322D01*
X64810711Y-40660711D01*
X64831698Y-40635138D01*
X64862334Y-40609995D01*
X66346580Y-40589188D01*
X66361265Y-40588128D01*
X66385516Y-40582496D01*
X68035503Y-40024039D01*
X69654762Y-39505370D01*
X70778418Y-39252765D01*
X70793000Y-46310262D01*
X70795492Y-46335034D01*
X70802768Y-46358843D01*
X70814549Y-46380775D01*
X70830383Y-46399988D01*
X70849661Y-46415742D01*
X70871642Y-46427433D01*
X70895481Y-46434611D01*
X70918061Y-46436985D01*
X73407624Y-46474994D01*
X73373112Y-47294657D01*
X73374508Y-47319515D01*
X73380727Y-47343622D01*
X73391529Y-47366053D01*
X73406499Y-47385945D01*
X73425063Y-47402535D01*
X73446506Y-47415184D01*
X73470005Y-47423407D01*
X73500401Y-47426999D01*
X74753000Y-47423041D01*
X74753001Y-85819577D01*
X70097263Y-85608636D01*
X70100884Y-83931843D01*
X71000000Y-83931843D01*
X71074689Y-83924487D01*
X71146508Y-83902701D01*
X71212696Y-83867322D01*
X71270711Y-83819711D01*
X71318322Y-83761696D01*
X71353701Y-83695508D01*
X71375487Y-83623689D01*
X71382843Y-83549000D01*
X71382843Y-81549000D01*
X71375487Y-81474311D01*
X71353701Y-81402492D01*
X71318322Y-81336304D01*
X71270711Y-81278289D01*
X71212696Y-81230678D01*
X71146508Y-81195299D01*
X71074689Y-81173513D01*
X71000000Y-81166157D01*
X70106858Y-81166157D01*
X70107000Y-81100274D01*
X70106994Y-81098721D01*
X69975000Y-67990067D01*
X69975000Y-65457852D01*
X69977448Y-65432998D01*
X69967678Y-65333805D01*
X69947587Y-65267571D01*
X69946994Y-65208721D01*
X69944304Y-65183971D01*
X69936837Y-65160220D01*
X69924881Y-65138383D01*
X69908285Y-65118705D01*
X68998285Y-64238705D01*
X68984357Y-64227044D01*
X68963767Y-64212173D01*
X68486375Y-63734782D01*
X68403980Y-62169283D01*
X71817854Y-62226982D01*
X71842668Y-62224961D01*
X71866611Y-62218137D01*
X71888763Y-62206774D01*
X71908272Y-62191307D01*
X71924389Y-62172332D01*
X71936495Y-62150577D01*
X71944123Y-62126878D01*
X71946988Y-62101755D01*
X72026097Y-56376243D01*
X72593501Y-55973569D01*
X72612294Y-55957240D01*
X72627540Y-55937558D01*
X72638654Y-55915280D01*
X72645208Y-55891262D01*
X72646957Y-55873292D01*
X72806957Y-49703292D01*
X72805160Y-49678461D01*
X72798553Y-49654457D01*
X72787390Y-49632204D01*
X72772100Y-49612556D01*
X72744074Y-49590348D01*
X71928189Y-49113596D01*
X71750378Y-48935785D01*
X71734529Y-48916473D01*
X71657481Y-48853241D01*
X71569577Y-48806255D01*
X71474195Y-48777322D01*
X71399856Y-48770000D01*
X71399848Y-48770000D01*
X71375002Y-48767553D01*
X71350156Y-48770000D01*
X71340179Y-48770000D01*
X71084074Y-48620348D01*
X71061451Y-48609955D01*
X71026968Y-48603191D01*
X69206968Y-48503191D01*
X69206643Y-48503174D01*
X67222913Y-48399264D01*
X67116925Y-45325623D01*
X67113632Y-45300946D01*
X67105588Y-45277385D01*
X67093102Y-45255845D01*
X67076654Y-45237156D01*
X67056876Y-45222035D01*
X67034528Y-45211062D01*
X67010469Y-45204660D01*
X66993653Y-45203053D01*
X62936933Y-45086313D01*
X62866543Y-44259230D01*
X62862010Y-44234750D01*
X62852789Y-44211624D01*
X62839233Y-44190742D01*
X62821864Y-44172906D01*
X62801349Y-44158800D01*
X62778476Y-44148969D01*
X62744657Y-44143085D01*
X61190026Y-44086034D01*
X60763776Y-43659785D01*
X60747927Y-43640473D01*
X60670879Y-43577241D01*
X60582975Y-43530255D01*
X60487593Y-43501322D01*
X60413254Y-43494000D01*
X60413246Y-43494000D01*
X60388400Y-43491553D01*
X60363554Y-43494000D01*
X56309592Y-43494000D01*
X50390010Y-37574419D01*
X50390010Y-36399853D01*
X50392457Y-36375007D01*
X50390010Y-36350161D01*
X50390010Y-36350154D01*
X50382688Y-36275815D01*
X50375623Y-36252522D01*
X50353755Y-36180433D01*
X50347025Y-36167843D01*
X50306769Y-36092529D01*
X50243537Y-36015481D01*
X50224230Y-35999636D01*
X50115275Y-35890681D01*
X50106997Y-34769063D01*
X50104373Y-34744305D01*
X50096971Y-34720535D01*
X50085073Y-34698665D01*
X50069137Y-34679537D01*
X50049776Y-34663886D01*
X50027734Y-34652312D01*
X50003857Y-34645261D01*
X49981867Y-34643014D01*
X46581867Y-34593014D01*
X46557058Y-34595089D01*
X46533130Y-34601965D01*
X46511003Y-34613377D01*
X46491528Y-34628887D01*
X46475452Y-34647897D01*
X46463395Y-34669679D01*
X46454728Y-34699121D01*
X46424728Y-34879121D01*
X46423055Y-34903734D01*
X46439223Y-35453455D01*
X42829541Y-35466032D01*
X43003578Y-35272955D01*
X43152557Y-35022852D01*
X43249881Y-34748491D01*
X43129214Y-34518600D01*
X41935400Y-34518600D01*
X41935400Y-34538600D01*
X41681400Y-34538600D01*
X41681400Y-34518600D01*
X40487586Y-34518600D01*
X40366919Y-34748491D01*
X40464243Y-35022852D01*
X40613222Y-35272955D01*
X40793653Y-35473126D01*
X38023000Y-35482780D01*
X38023000Y-34034709D01*
X40366919Y-34034709D01*
X40487586Y-34264600D01*
X41681400Y-34264600D01*
X41681400Y-33071445D01*
X41935400Y-33071445D01*
X41935400Y-34264600D01*
X43129214Y-34264600D01*
X43249881Y-34034709D01*
X43232248Y-33985000D01*
X56426157Y-33985000D01*
X56426157Y-34685000D01*
X56433513Y-34759689D01*
X56455299Y-34831508D01*
X56483892Y-34885000D01*
X56455299Y-34938492D01*
X56433513Y-35010311D01*
X56426157Y-35085000D01*
X56426157Y-35785000D01*
X56433513Y-35859689D01*
X56455299Y-35931508D01*
X56483892Y-35985000D01*
X56455299Y-36038492D01*
X56433513Y-36110311D01*
X56426157Y-36185000D01*
X56426157Y-36885000D01*
X56433513Y-36959689D01*
X56455299Y-37031508D01*
X56483892Y-37085000D01*
X56455299Y-37138492D01*
X56433513Y-37210311D01*
X56426157Y-37285000D01*
X56426157Y-37985000D01*
X56433513Y-38059689D01*
X56455299Y-38131508D01*
X56483892Y-38185000D01*
X56455299Y-38238492D01*
X56433513Y-38310311D01*
X56426157Y-38385000D01*
X56426157Y-39085000D01*
X56433513Y-39159689D01*
X56455299Y-39231508D01*
X56483892Y-39285000D01*
X56455299Y-39338492D01*
X56433513Y-39410311D01*
X56426157Y-39485000D01*
X56426157Y-40185000D01*
X56433513Y-40259689D01*
X56455299Y-40331508D01*
X56490678Y-40397696D01*
X56538289Y-40455711D01*
X56596304Y-40503322D01*
X56662492Y-40538701D01*
X56734311Y-40560487D01*
X56809000Y-40567843D01*
X58809000Y-40567843D01*
X58883689Y-40560487D01*
X58955508Y-40538701D01*
X59021696Y-40503322D01*
X59079711Y-40455711D01*
X59127322Y-40397696D01*
X59162701Y-40331508D01*
X59184487Y-40259689D01*
X59191843Y-40185000D01*
X59191843Y-39485000D01*
X59184487Y-39410311D01*
X59162701Y-39338492D01*
X59134108Y-39285000D01*
X59162701Y-39231508D01*
X59184487Y-39159689D01*
X59191843Y-39085000D01*
X59191843Y-38385000D01*
X59184487Y-38310311D01*
X59162701Y-38238492D01*
X59134108Y-38185000D01*
X59162701Y-38131508D01*
X59184487Y-38059689D01*
X59191843Y-37985000D01*
X59191843Y-37285000D01*
X59184487Y-37210311D01*
X59162701Y-37138492D01*
X59134108Y-37085000D01*
X59162701Y-37031508D01*
X59184487Y-36959689D01*
X59191843Y-36885000D01*
X59191843Y-36185000D01*
X59184487Y-36110311D01*
X59162701Y-36038492D01*
X59134108Y-35985000D01*
X59162701Y-35931508D01*
X59184487Y-35859689D01*
X59191843Y-35785000D01*
X59191843Y-35085000D01*
X59184487Y-35010311D01*
X59162701Y-34938492D01*
X59134108Y-34885000D01*
X59162701Y-34831508D01*
X59184487Y-34759689D01*
X59191843Y-34685000D01*
X59191843Y-33985000D01*
X59184487Y-33910311D01*
X59162701Y-33838492D01*
X59127322Y-33772304D01*
X59079711Y-33714289D01*
X59021696Y-33666678D01*
X58955508Y-33631299D01*
X58883689Y-33609513D01*
X58809000Y-33602157D01*
X56809000Y-33602157D01*
X56734311Y-33609513D01*
X56662492Y-33631299D01*
X56596304Y-33666678D01*
X56538289Y-33714289D01*
X56490678Y-33772304D01*
X56455299Y-33838492D01*
X56433513Y-33910311D01*
X56426157Y-33985000D01*
X43232248Y-33985000D01*
X43152557Y-33760348D01*
X43003578Y-33510245D01*
X42808669Y-33294012D01*
X42575320Y-33119959D01*
X42312499Y-32994775D01*
X42165290Y-32950124D01*
X41935400Y-33071445D01*
X41681400Y-33071445D01*
X41451510Y-32950124D01*
X41304301Y-32994775D01*
X41041480Y-33119959D01*
X40808131Y-33294012D01*
X40613222Y-33510245D01*
X40464243Y-33760348D01*
X40366919Y-34034709D01*
X38023000Y-34034709D01*
X38023000Y-29746764D01*
X41870341Y-29746764D01*
X42090307Y-30116801D01*
X42555627Y-30360672D01*
X43059583Y-30509078D01*
X43582808Y-30556315D01*
X44105195Y-30500569D01*
X44606669Y-30343981D01*
X45031693Y-30116801D01*
X45213911Y-29810264D01*
X54760841Y-29810264D01*
X54980807Y-30180301D01*
X55446127Y-30424172D01*
X55950083Y-30572578D01*
X56473308Y-30619815D01*
X56995695Y-30564069D01*
X57497169Y-30407481D01*
X57922193Y-30180301D01*
X58142159Y-29810264D01*
X58015159Y-29683264D01*
X67651341Y-29683264D01*
X67871307Y-30053301D01*
X68336627Y-30297172D01*
X68840583Y-30445578D01*
X69363808Y-30492815D01*
X69886195Y-30437069D01*
X70387669Y-30280481D01*
X70812693Y-30053301D01*
X71032659Y-29683264D01*
X69342000Y-27992605D01*
X67651341Y-29683264D01*
X58015159Y-29683264D01*
X56451500Y-28119605D01*
X54760841Y-29810264D01*
X45213911Y-29810264D01*
X45251659Y-29746764D01*
X43561000Y-28056105D01*
X41870341Y-29746764D01*
X38023000Y-29746764D01*
X38023000Y-27898308D01*
X40881185Y-27898308D01*
X40936931Y-28420695D01*
X41093519Y-28922169D01*
X41320699Y-29347193D01*
X41690736Y-29567159D01*
X43381395Y-27876500D01*
X43740605Y-27876500D01*
X45431264Y-29567159D01*
X45801301Y-29347193D01*
X46045172Y-28881873D01*
X46193578Y-28377917D01*
X46231144Y-27961808D01*
X53771685Y-27961808D01*
X53827431Y-28484195D01*
X53984019Y-28985669D01*
X54211199Y-29410693D01*
X54581236Y-29630659D01*
X56271895Y-27940000D01*
X56631105Y-27940000D01*
X58321764Y-29630659D01*
X58691801Y-29410693D01*
X58935672Y-28945373D01*
X59084078Y-28441417D01*
X59131315Y-27918192D01*
X59122417Y-27834808D01*
X66662185Y-27834808D01*
X66717931Y-28357195D01*
X66874519Y-28858669D01*
X67101699Y-29283693D01*
X67471736Y-29503659D01*
X69162395Y-27813000D01*
X69521605Y-27813000D01*
X71212264Y-29503659D01*
X71582301Y-29283693D01*
X71826172Y-28818373D01*
X71974578Y-28314417D01*
X72021815Y-27791192D01*
X71966069Y-27268805D01*
X71809481Y-26767331D01*
X71582301Y-26342307D01*
X71212264Y-26122341D01*
X69521605Y-27813000D01*
X69162395Y-27813000D01*
X67471736Y-26122341D01*
X67101699Y-26342307D01*
X66857828Y-26807627D01*
X66709422Y-27311583D01*
X66662185Y-27834808D01*
X59122417Y-27834808D01*
X59075569Y-27395805D01*
X58918981Y-26894331D01*
X58691801Y-26469307D01*
X58321764Y-26249341D01*
X56631105Y-27940000D01*
X56271895Y-27940000D01*
X54581236Y-26249341D01*
X54211199Y-26469307D01*
X53967328Y-26934627D01*
X53818922Y-27438583D01*
X53771685Y-27961808D01*
X46231144Y-27961808D01*
X46240815Y-27854692D01*
X46185069Y-27332305D01*
X46028481Y-26830831D01*
X45801301Y-26405807D01*
X45431264Y-26185841D01*
X43740605Y-27876500D01*
X43381395Y-27876500D01*
X41690736Y-26185841D01*
X41320699Y-26405807D01*
X41076828Y-26871127D01*
X40928422Y-27375083D01*
X40881185Y-27898308D01*
X38023000Y-27898308D01*
X38023000Y-26006236D01*
X41870341Y-26006236D01*
X43561000Y-27696895D01*
X45188159Y-26069736D01*
X54760841Y-26069736D01*
X56451500Y-27760395D01*
X58142159Y-26069736D01*
X58066665Y-25942736D01*
X67651341Y-25942736D01*
X69342000Y-27633395D01*
X71032659Y-25942736D01*
X70812693Y-25572699D01*
X70347373Y-25328828D01*
X69843417Y-25180422D01*
X69320192Y-25133185D01*
X68797805Y-25188931D01*
X68296331Y-25345519D01*
X67871307Y-25572699D01*
X67651341Y-25942736D01*
X58066665Y-25942736D01*
X57922193Y-25699699D01*
X57456873Y-25455828D01*
X56952917Y-25307422D01*
X56429692Y-25260185D01*
X55907305Y-25315931D01*
X55405831Y-25472519D01*
X54980807Y-25699699D01*
X54760841Y-26069736D01*
X45188159Y-26069736D01*
X45251659Y-26006236D01*
X45031693Y-25636199D01*
X44566373Y-25392328D01*
X44062417Y-25243922D01*
X43539192Y-25196685D01*
X43016805Y-25252431D01*
X42515331Y-25409019D01*
X42090307Y-25636199D01*
X41870341Y-26006236D01*
X38023000Y-26006236D01*
X38023000Y-22275000D01*
X74753000Y-22275000D01*
X74753000Y-36500096D01*
X74753000Y-36500096D01*
G37*
X74753000Y-36500096D02*
X70899904Y-36503000D01*
X70875130Y-36505459D01*
X70851311Y-36512704D01*
X70829363Y-36524457D01*
X70810130Y-36540265D01*
X70794350Y-36559522D01*
X70782631Y-36581488D01*
X70775422Y-36605317D01*
X70773000Y-36630262D01*
X70775052Y-37623345D01*
X68130229Y-38281559D01*
X68119082Y-38284882D01*
X66880832Y-38716682D01*
X66879741Y-38717068D01*
X66152211Y-38978233D01*
X65090101Y-39071948D01*
X65094843Y-39023800D01*
X65094843Y-38523800D01*
X65087487Y-38449111D01*
X65080059Y-38424623D01*
X65112860Y-37112574D01*
X65110680Y-37085757D01*
X65103670Y-37061868D01*
X65094843Y-37044986D01*
X65094843Y-37023800D01*
X65087487Y-36949111D01*
X65065701Y-36877292D01*
X65053510Y-36854485D01*
X65053510Y-36012517D01*
X65055711Y-36010711D01*
X65103322Y-35952696D01*
X65138701Y-35886508D01*
X65160487Y-35814689D01*
X65167843Y-35740000D01*
X65167843Y-34740000D01*
X65160487Y-34665311D01*
X65138701Y-34593492D01*
X65103322Y-34527304D01*
X65055711Y-34469289D01*
X64997696Y-34421678D01*
X64931508Y-34386299D01*
X64859689Y-34364513D01*
X64785000Y-34357157D01*
X63735000Y-34357157D01*
X63660311Y-34364513D01*
X63588492Y-34386299D01*
X63522304Y-34421678D01*
X63464289Y-34469289D01*
X63416678Y-34527304D01*
X63381299Y-34593492D01*
X63359513Y-34665311D01*
X63352157Y-34740000D01*
X63352157Y-35740000D01*
X63359513Y-35814689D01*
X63381299Y-35886508D01*
X63416678Y-35952696D01*
X63464289Y-36010711D01*
X63466491Y-36012518D01*
X63466490Y-36861968D01*
X63458299Y-36877292D01*
X63436513Y-36949111D01*
X63429157Y-37023800D01*
X63429157Y-37523800D01*
X63436513Y-37598489D01*
X63451479Y-37647826D01*
X63436324Y-38451025D01*
X63429157Y-38523800D01*
X63429157Y-38830902D01*
X63423823Y-39113604D01*
X63424493Y-39122005D01*
X62550029Y-39097579D01*
X62499999Y-39092651D01*
X62433233Y-39099227D01*
X62366342Y-39103934D01*
X62355563Y-39106878D01*
X62344444Y-39107973D01*
X62280258Y-39127444D01*
X62215556Y-39145114D01*
X62205560Y-39150103D01*
X62194867Y-39153347D01*
X62135691Y-39184977D01*
X62075702Y-39214919D01*
X62066877Y-39221758D01*
X62057016Y-39227029D01*
X62005145Y-39269598D01*
X61952152Y-39310667D01*
X61919198Y-39348610D01*
X60026319Y-41241490D01*
X57770022Y-41241490D01*
X57653445Y-41252972D01*
X57503868Y-41298346D01*
X57496738Y-41302157D01*
X56809000Y-41302157D01*
X56734311Y-41309513D01*
X56662492Y-41331299D01*
X56596304Y-41366678D01*
X56538289Y-41414289D01*
X56490678Y-41472304D01*
X56455299Y-41538492D01*
X56433513Y-41610311D01*
X56426157Y-41685000D01*
X56426157Y-42385000D01*
X56433513Y-42459689D01*
X56455299Y-42531508D01*
X56490678Y-42597696D01*
X56538289Y-42655711D01*
X56596304Y-42703322D01*
X56662492Y-42738701D01*
X56734311Y-42760487D01*
X56809000Y-42767843D01*
X57496738Y-42767843D01*
X57503868Y-42771654D01*
X57653445Y-42817028D01*
X57770022Y-42828510D01*
X60316025Y-42828510D01*
X60355000Y-42832349D01*
X60393975Y-42828510D01*
X60393978Y-42828510D01*
X60510555Y-42817028D01*
X60660132Y-42771654D01*
X60797983Y-42697971D01*
X60918811Y-42598811D01*
X60943665Y-42568526D01*
X62819450Y-40692742D01*
X63852121Y-40721587D01*
X63893492Y-40743701D01*
X63965311Y-40765487D01*
X63981612Y-40767092D01*
X64117295Y-40808251D01*
X64290000Y-40825262D01*
X64462706Y-40808251D01*
X64598389Y-40767092D01*
X64614689Y-40765487D01*
X64686508Y-40743701D01*
X64752696Y-40708322D01*
X64810711Y-40660711D01*
X64831698Y-40635138D01*
X64862334Y-40609995D01*
X66346580Y-40589188D01*
X66361265Y-40588128D01*
X66385516Y-40582496D01*
X68035503Y-40024039D01*
X69654762Y-39505370D01*
X70778418Y-39252765D01*
X70793000Y-46310262D01*
X70795492Y-46335034D01*
X70802768Y-46358843D01*
X70814549Y-46380775D01*
X70830383Y-46399988D01*
X70849661Y-46415742D01*
X70871642Y-46427433D01*
X70895481Y-46434611D01*
X70918061Y-46436985D01*
X73407624Y-46474994D01*
X73373112Y-47294657D01*
X73374508Y-47319515D01*
X73380727Y-47343622D01*
X73391529Y-47366053D01*
X73406499Y-47385945D01*
X73425063Y-47402535D01*
X73446506Y-47415184D01*
X73470005Y-47423407D01*
X73500401Y-47426999D01*
X74753000Y-47423041D01*
X74753001Y-85819577D01*
X70097263Y-85608636D01*
X70100884Y-83931843D01*
X71000000Y-83931843D01*
X71074689Y-83924487D01*
X71146508Y-83902701D01*
X71212696Y-83867322D01*
X71270711Y-83819711D01*
X71318322Y-83761696D01*
X71353701Y-83695508D01*
X71375487Y-83623689D01*
X71382843Y-83549000D01*
X71382843Y-81549000D01*
X71375487Y-81474311D01*
X71353701Y-81402492D01*
X71318322Y-81336304D01*
X71270711Y-81278289D01*
X71212696Y-81230678D01*
X71146508Y-81195299D01*
X71074689Y-81173513D01*
X71000000Y-81166157D01*
X70106858Y-81166157D01*
X70107000Y-81100274D01*
X70106994Y-81098721D01*
X69975000Y-67990067D01*
X69975000Y-65457852D01*
X69977448Y-65432998D01*
X69967678Y-65333805D01*
X69947587Y-65267571D01*
X69946994Y-65208721D01*
X69944304Y-65183971D01*
X69936837Y-65160220D01*
X69924881Y-65138383D01*
X69908285Y-65118705D01*
X68998285Y-64238705D01*
X68984357Y-64227044D01*
X68963767Y-64212173D01*
X68486375Y-63734782D01*
X68403980Y-62169283D01*
X71817854Y-62226982D01*
X71842668Y-62224961D01*
X71866611Y-62218137D01*
X71888763Y-62206774D01*
X71908272Y-62191307D01*
X71924389Y-62172332D01*
X71936495Y-62150577D01*
X71944123Y-62126878D01*
X71946988Y-62101755D01*
X72026097Y-56376243D01*
X72593501Y-55973569D01*
X72612294Y-55957240D01*
X72627540Y-55937558D01*
X72638654Y-55915280D01*
X72645208Y-55891262D01*
X72646957Y-55873292D01*
X72806957Y-49703292D01*
X72805160Y-49678461D01*
X72798553Y-49654457D01*
X72787390Y-49632204D01*
X72772100Y-49612556D01*
X72744074Y-49590348D01*
X71928189Y-49113596D01*
X71750378Y-48935785D01*
X71734529Y-48916473D01*
X71657481Y-48853241D01*
X71569577Y-48806255D01*
X71474195Y-48777322D01*
X71399856Y-48770000D01*
X71399848Y-48770000D01*
X71375002Y-48767553D01*
X71350156Y-48770000D01*
X71340179Y-48770000D01*
X71084074Y-48620348D01*
X71061451Y-48609955D01*
X71026968Y-48603191D01*
X69206968Y-48503191D01*
X69206643Y-48503174D01*
X67222913Y-48399264D01*
X67116925Y-45325623D01*
X67113632Y-45300946D01*
X67105588Y-45277385D01*
X67093102Y-45255845D01*
X67076654Y-45237156D01*
X67056876Y-45222035D01*
X67034528Y-45211062D01*
X67010469Y-45204660D01*
X66993653Y-45203053D01*
X62936933Y-45086313D01*
X62866543Y-44259230D01*
X62862010Y-44234750D01*
X62852789Y-44211624D01*
X62839233Y-44190742D01*
X62821864Y-44172906D01*
X62801349Y-44158800D01*
X62778476Y-44148969D01*
X62744657Y-44143085D01*
X61190026Y-44086034D01*
X60763776Y-43659785D01*
X60747927Y-43640473D01*
X60670879Y-43577241D01*
X60582975Y-43530255D01*
X60487593Y-43501322D01*
X60413254Y-43494000D01*
X60413246Y-43494000D01*
X60388400Y-43491553D01*
X60363554Y-43494000D01*
X56309592Y-43494000D01*
X50390010Y-37574419D01*
X50390010Y-36399853D01*
X50392457Y-36375007D01*
X50390010Y-36350161D01*
X50390010Y-36350154D01*
X50382688Y-36275815D01*
X50375623Y-36252522D01*
X50353755Y-36180433D01*
X50347025Y-36167843D01*
X50306769Y-36092529D01*
X50243537Y-36015481D01*
X50224230Y-35999636D01*
X50115275Y-35890681D01*
X50106997Y-34769063D01*
X50104373Y-34744305D01*
X50096971Y-34720535D01*
X50085073Y-34698665D01*
X50069137Y-34679537D01*
X50049776Y-34663886D01*
X50027734Y-34652312D01*
X50003857Y-34645261D01*
X49981867Y-34643014D01*
X46581867Y-34593014D01*
X46557058Y-34595089D01*
X46533130Y-34601965D01*
X46511003Y-34613377D01*
X46491528Y-34628887D01*
X46475452Y-34647897D01*
X46463395Y-34669679D01*
X46454728Y-34699121D01*
X46424728Y-34879121D01*
X46423055Y-34903734D01*
X46439223Y-35453455D01*
X42829541Y-35466032D01*
X43003578Y-35272955D01*
X43152557Y-35022852D01*
X43249881Y-34748491D01*
X43129214Y-34518600D01*
X41935400Y-34518600D01*
X41935400Y-34538600D01*
X41681400Y-34538600D01*
X41681400Y-34518600D01*
X40487586Y-34518600D01*
X40366919Y-34748491D01*
X40464243Y-35022852D01*
X40613222Y-35272955D01*
X40793653Y-35473126D01*
X38023000Y-35482780D01*
X38023000Y-34034709D01*
X40366919Y-34034709D01*
X40487586Y-34264600D01*
X41681400Y-34264600D01*
X41681400Y-33071445D01*
X41935400Y-33071445D01*
X41935400Y-34264600D01*
X43129214Y-34264600D01*
X43249881Y-34034709D01*
X43232248Y-33985000D01*
X56426157Y-33985000D01*
X56426157Y-34685000D01*
X56433513Y-34759689D01*
X56455299Y-34831508D01*
X56483892Y-34885000D01*
X56455299Y-34938492D01*
X56433513Y-35010311D01*
X56426157Y-35085000D01*
X56426157Y-35785000D01*
X56433513Y-35859689D01*
X56455299Y-35931508D01*
X56483892Y-35985000D01*
X56455299Y-36038492D01*
X56433513Y-36110311D01*
X56426157Y-36185000D01*
X56426157Y-36885000D01*
X56433513Y-36959689D01*
X56455299Y-37031508D01*
X56483892Y-37085000D01*
X56455299Y-37138492D01*
X56433513Y-37210311D01*
X56426157Y-37285000D01*
X56426157Y-37985000D01*
X56433513Y-38059689D01*
X56455299Y-38131508D01*
X56483892Y-38185000D01*
X56455299Y-38238492D01*
X56433513Y-38310311D01*
X56426157Y-38385000D01*
X56426157Y-39085000D01*
X56433513Y-39159689D01*
X56455299Y-39231508D01*
X56483892Y-39285000D01*
X56455299Y-39338492D01*
X56433513Y-39410311D01*
X56426157Y-39485000D01*
X56426157Y-40185000D01*
X56433513Y-40259689D01*
X56455299Y-40331508D01*
X56490678Y-40397696D01*
X56538289Y-40455711D01*
X56596304Y-40503322D01*
X56662492Y-40538701D01*
X56734311Y-40560487D01*
X56809000Y-40567843D01*
X58809000Y-40567843D01*
X58883689Y-40560487D01*
X58955508Y-40538701D01*
X59021696Y-40503322D01*
X59079711Y-40455711D01*
X59127322Y-40397696D01*
X59162701Y-40331508D01*
X59184487Y-40259689D01*
X59191843Y-40185000D01*
X59191843Y-39485000D01*
X59184487Y-39410311D01*
X59162701Y-39338492D01*
X59134108Y-39285000D01*
X59162701Y-39231508D01*
X59184487Y-39159689D01*
X59191843Y-39085000D01*
X59191843Y-38385000D01*
X59184487Y-38310311D01*
X59162701Y-38238492D01*
X59134108Y-38185000D01*
X59162701Y-38131508D01*
X59184487Y-38059689D01*
X59191843Y-37985000D01*
X59191843Y-37285000D01*
X59184487Y-37210311D01*
X59162701Y-37138492D01*
X59134108Y-37085000D01*
X59162701Y-37031508D01*
X59184487Y-36959689D01*
X59191843Y-36885000D01*
X59191843Y-36185000D01*
X59184487Y-36110311D01*
X59162701Y-36038492D01*
X59134108Y-35985000D01*
X59162701Y-35931508D01*
X59184487Y-35859689D01*
X59191843Y-35785000D01*
X59191843Y-35085000D01*
X59184487Y-35010311D01*
X59162701Y-34938492D01*
X59134108Y-34885000D01*
X59162701Y-34831508D01*
X59184487Y-34759689D01*
X59191843Y-34685000D01*
X59191843Y-33985000D01*
X59184487Y-33910311D01*
X59162701Y-33838492D01*
X59127322Y-33772304D01*
X59079711Y-33714289D01*
X59021696Y-33666678D01*
X58955508Y-33631299D01*
X58883689Y-33609513D01*
X58809000Y-33602157D01*
X56809000Y-33602157D01*
X56734311Y-33609513D01*
X56662492Y-33631299D01*
X56596304Y-33666678D01*
X56538289Y-33714289D01*
X56490678Y-33772304D01*
X56455299Y-33838492D01*
X56433513Y-33910311D01*
X56426157Y-33985000D01*
X43232248Y-33985000D01*
X43152557Y-33760348D01*
X43003578Y-33510245D01*
X42808669Y-33294012D01*
X42575320Y-33119959D01*
X42312499Y-32994775D01*
X42165290Y-32950124D01*
X41935400Y-33071445D01*
X41681400Y-33071445D01*
X41451510Y-32950124D01*
X41304301Y-32994775D01*
X41041480Y-33119959D01*
X40808131Y-33294012D01*
X40613222Y-33510245D01*
X40464243Y-33760348D01*
X40366919Y-34034709D01*
X38023000Y-34034709D01*
X38023000Y-29746764D01*
X41870341Y-29746764D01*
X42090307Y-30116801D01*
X42555627Y-30360672D01*
X43059583Y-30509078D01*
X43582808Y-30556315D01*
X44105195Y-30500569D01*
X44606669Y-30343981D01*
X45031693Y-30116801D01*
X45213911Y-29810264D01*
X54760841Y-29810264D01*
X54980807Y-30180301D01*
X55446127Y-30424172D01*
X55950083Y-30572578D01*
X56473308Y-30619815D01*
X56995695Y-30564069D01*
X57497169Y-30407481D01*
X57922193Y-30180301D01*
X58142159Y-29810264D01*
X58015159Y-29683264D01*
X67651341Y-29683264D01*
X67871307Y-30053301D01*
X68336627Y-30297172D01*
X68840583Y-30445578D01*
X69363808Y-30492815D01*
X69886195Y-30437069D01*
X70387669Y-30280481D01*
X70812693Y-30053301D01*
X71032659Y-29683264D01*
X69342000Y-27992605D01*
X67651341Y-29683264D01*
X58015159Y-29683264D01*
X56451500Y-28119605D01*
X54760841Y-29810264D01*
X45213911Y-29810264D01*
X45251659Y-29746764D01*
X43561000Y-28056105D01*
X41870341Y-29746764D01*
X38023000Y-29746764D01*
X38023000Y-27898308D01*
X40881185Y-27898308D01*
X40936931Y-28420695D01*
X41093519Y-28922169D01*
X41320699Y-29347193D01*
X41690736Y-29567159D01*
X43381395Y-27876500D01*
X43740605Y-27876500D01*
X45431264Y-29567159D01*
X45801301Y-29347193D01*
X46045172Y-28881873D01*
X46193578Y-28377917D01*
X46231144Y-27961808D01*
X53771685Y-27961808D01*
X53827431Y-28484195D01*
X53984019Y-28985669D01*
X54211199Y-29410693D01*
X54581236Y-29630659D01*
X56271895Y-27940000D01*
X56631105Y-27940000D01*
X58321764Y-29630659D01*
X58691801Y-29410693D01*
X58935672Y-28945373D01*
X59084078Y-28441417D01*
X59131315Y-27918192D01*
X59122417Y-27834808D01*
X66662185Y-27834808D01*
X66717931Y-28357195D01*
X66874519Y-28858669D01*
X67101699Y-29283693D01*
X67471736Y-29503659D01*
X69162395Y-27813000D01*
X69521605Y-27813000D01*
X71212264Y-29503659D01*
X71582301Y-29283693D01*
X71826172Y-28818373D01*
X71974578Y-28314417D01*
X72021815Y-27791192D01*
X71966069Y-27268805D01*
X71809481Y-26767331D01*
X71582301Y-26342307D01*
X71212264Y-26122341D01*
X69521605Y-27813000D01*
X69162395Y-27813000D01*
X67471736Y-26122341D01*
X67101699Y-26342307D01*
X66857828Y-26807627D01*
X66709422Y-27311583D01*
X66662185Y-27834808D01*
X59122417Y-27834808D01*
X59075569Y-27395805D01*
X58918981Y-26894331D01*
X58691801Y-26469307D01*
X58321764Y-26249341D01*
X56631105Y-27940000D01*
X56271895Y-27940000D01*
X54581236Y-26249341D01*
X54211199Y-26469307D01*
X53967328Y-26934627D01*
X53818922Y-27438583D01*
X53771685Y-27961808D01*
X46231144Y-27961808D01*
X46240815Y-27854692D01*
X46185069Y-27332305D01*
X46028481Y-26830831D01*
X45801301Y-26405807D01*
X45431264Y-26185841D01*
X43740605Y-27876500D01*
X43381395Y-27876500D01*
X41690736Y-26185841D01*
X41320699Y-26405807D01*
X41076828Y-26871127D01*
X40928422Y-27375083D01*
X40881185Y-27898308D01*
X38023000Y-27898308D01*
X38023000Y-26006236D01*
X41870341Y-26006236D01*
X43561000Y-27696895D01*
X45188159Y-26069736D01*
X54760841Y-26069736D01*
X56451500Y-27760395D01*
X58142159Y-26069736D01*
X58066665Y-25942736D01*
X67651341Y-25942736D01*
X69342000Y-27633395D01*
X71032659Y-25942736D01*
X70812693Y-25572699D01*
X70347373Y-25328828D01*
X69843417Y-25180422D01*
X69320192Y-25133185D01*
X68797805Y-25188931D01*
X68296331Y-25345519D01*
X67871307Y-25572699D01*
X67651341Y-25942736D01*
X58066665Y-25942736D01*
X57922193Y-25699699D01*
X57456873Y-25455828D01*
X56952917Y-25307422D01*
X56429692Y-25260185D01*
X55907305Y-25315931D01*
X55405831Y-25472519D01*
X54980807Y-25699699D01*
X54760841Y-26069736D01*
X45188159Y-26069736D01*
X45251659Y-26006236D01*
X45031693Y-25636199D01*
X44566373Y-25392328D01*
X44062417Y-25243922D01*
X43539192Y-25196685D01*
X43016805Y-25252431D01*
X42515331Y-25409019D01*
X42090307Y-25636199D01*
X41870341Y-26006236D01*
X38023000Y-26006236D01*
X38023000Y-22275000D01*
X74753000Y-22275000D01*
X74753000Y-36500096D01*
G36*
X39254438Y-69155362D02*
G01*
X39195359Y-74720685D01*
X39133463Y-74796106D01*
X39074498Y-74906420D01*
X39071058Y-74917760D01*
X38023000Y-75030052D01*
X38023000Y-69067402D01*
X39254438Y-69155362D01*
X39254438Y-69155362D01*
G37*
X39254438Y-69155362D02*
X39195359Y-74720685D01*
X39133463Y-74796106D01*
X39074498Y-74906420D01*
X39071058Y-74917760D01*
X38023000Y-75030052D01*
X38023000Y-69067402D01*
X39254438Y-69155362D01*
G36*
X47997594Y-74186112D02*
G01*
X48015385Y-74203527D01*
X48036232Y-74217137D01*
X48059334Y-74226418D01*
X48083802Y-74231014D01*
X48097250Y-74231478D01*
X65126256Y-73916359D01*
X65175725Y-83649376D01*
X63930874Y-83596628D01*
X63893696Y-78726331D01*
X63891067Y-78701573D01*
X63883658Y-78677805D01*
X63871755Y-78655939D01*
X63855814Y-78636815D01*
X63836449Y-78621168D01*
X63814404Y-78609600D01*
X63790525Y-78602555D01*
X63766431Y-78600300D01*
X51917883Y-78625429D01*
X51923950Y-75895482D01*
X51921564Y-75870700D01*
X51914390Y-75846860D01*
X51902703Y-75824877D01*
X51886952Y-75805597D01*
X51867742Y-75789760D01*
X51845811Y-75777976D01*
X51822003Y-75770696D01*
X51795107Y-75768213D01*
X49908333Y-75795597D01*
X49855640Y-75773771D01*
X49724073Y-75747600D01*
X49589927Y-75747600D01*
X49458360Y-75773771D01*
X49387414Y-75803158D01*
X47419957Y-75831713D01*
X47395218Y-75834513D01*
X47371502Y-75842085D01*
X47349718Y-75854138D01*
X47330704Y-75870210D01*
X47315191Y-75889682D01*
X47303774Y-75911807D01*
X47296894Y-75935734D01*
X47294831Y-75955916D01*
X47234127Y-78724041D01*
X42582700Y-78603538D01*
X42570811Y-74930000D01*
X44792900Y-74930000D01*
X44817676Y-74927560D01*
X44841501Y-74920333D01*
X44863457Y-74908597D01*
X44882703Y-74892803D01*
X44895030Y-74878488D01*
X45937223Y-73468463D01*
X47376072Y-73445067D01*
X47997594Y-74186112D01*
X47997594Y-74186112D01*
G37*
X47997594Y-74186112D02*
X48015385Y-74203527D01*
X48036232Y-74217137D01*
X48059334Y-74226418D01*
X48083802Y-74231014D01*
X48097250Y-74231478D01*
X65126256Y-73916359D01*
X65175725Y-83649376D01*
X63930874Y-83596628D01*
X63893696Y-78726331D01*
X63891067Y-78701573D01*
X63883658Y-78677805D01*
X63871755Y-78655939D01*
X63855814Y-78636815D01*
X63836449Y-78621168D01*
X63814404Y-78609600D01*
X63790525Y-78602555D01*
X63766431Y-78600300D01*
X51917883Y-78625429D01*
X51923950Y-75895482D01*
X51921564Y-75870700D01*
X51914390Y-75846860D01*
X51902703Y-75824877D01*
X51886952Y-75805597D01*
X51867742Y-75789760D01*
X51845811Y-75777976D01*
X51822003Y-75770696D01*
X51795107Y-75768213D01*
X49908333Y-75795597D01*
X49855640Y-75773771D01*
X49724073Y-75747600D01*
X49589927Y-75747600D01*
X49458360Y-75773771D01*
X49387414Y-75803158D01*
X47419957Y-75831713D01*
X47395218Y-75834513D01*
X47371502Y-75842085D01*
X47349718Y-75854138D01*
X47330704Y-75870210D01*
X47315191Y-75889682D01*
X47303774Y-75911807D01*
X47296894Y-75935734D01*
X47294831Y-75955916D01*
X47234127Y-78724041D01*
X42582700Y-78603538D01*
X42570811Y-74930000D01*
X44792900Y-74930000D01*
X44817676Y-74927560D01*
X44841501Y-74920333D01*
X44863457Y-74908597D01*
X44882703Y-74892803D01*
X44895030Y-74878488D01*
X45937223Y-73468463D01*
X47376072Y-73445067D01*
X47997594Y-74186112D01*
M02*
