%FSLAX45Y45*%
G04 Gerber Fmt 4.5, Leading zero omitted, Abs format (unit mm)*
G04 Created by KiCad (PCBNEW (5.1.4)-1) date 2019-11-27 15:40:36*
%MOMM*%
%LPD*%
G04 APERTURE LIST*
%ADD10C,0.100000*%
%ADD11C,0.200000*%
%ADD12C,0.300000*%
G04 APERTURE END LIST*
D10*
X3759200Y-9194800D02*
X3759200Y-2184400D01*
X7518400Y-9194800D02*
X3759200Y-9194800D01*
X7518400Y-2184400D02*
X7518400Y-9194800D01*
X3759200Y-2184400D02*
X7518400Y-2184400D01*
D11*
X3855960Y-6978890D02*
X3885960Y-7008890D01*
X3885960Y-6978890D02*
X3855960Y-7008890D01*
X3855960Y-7607540D02*
X3885960Y-7637540D01*
X3885960Y-7607540D02*
X3855960Y-7637540D01*
X3858500Y-7215110D02*
X3888500Y-7245110D01*
X3888500Y-7215110D02*
X3858500Y-7245110D01*
X3875000Y-2415000D02*
X3905000Y-2445000D01*
X3905000Y-2415000D02*
X3875000Y-2445000D01*
X3900000Y-3005000D02*
X3930000Y-3035000D01*
X3930000Y-3005000D02*
X3900000Y-3035000D01*
X3924540Y-8288260D02*
X3954540Y-8318260D01*
X3954540Y-8288260D02*
X3924540Y-8318260D01*
X3925000Y-8740000D02*
X3955000Y-8770000D01*
X3955000Y-8740000D02*
X3925000Y-8770000D01*
X3930000Y-6810000D02*
X3960000Y-6840000D01*
X3960000Y-6810000D02*
X3930000Y-6840000D01*
X3945000Y-3405000D02*
X3975000Y-3435000D01*
X3975000Y-3405000D02*
X3945000Y-3435000D01*
X3955000Y-5565000D02*
X3985000Y-5595000D01*
X3985000Y-5565000D02*
X3955000Y-5595000D01*
X3990000Y-5185000D02*
X4020000Y-5215000D01*
X4020000Y-5185000D02*
X3990000Y-5215000D01*
X4050270Y-5782550D02*
X4080270Y-5812550D01*
X4080270Y-5782550D02*
X4050270Y-5812550D01*
X4056620Y-6741400D02*
X4086620Y-6771400D01*
X4086620Y-6741400D02*
X4056620Y-6771400D01*
X4061700Y-8049500D02*
X4091700Y-8079500D01*
X4091700Y-8049500D02*
X4061700Y-8079500D01*
X4061700Y-8468600D02*
X4091700Y-8498600D01*
X4091700Y-8468600D02*
X4061700Y-8498600D01*
X4070000Y-7885000D02*
X4100000Y-7915000D01*
X4100000Y-7885000D02*
X4070000Y-7915000D01*
X4105000Y-8895000D02*
X4135000Y-8925000D01*
X4135000Y-8895000D02*
X4105000Y-8925000D01*
X4127740Y-5774930D02*
X4157740Y-5804930D01*
X4157740Y-5774930D02*
X4127740Y-5804930D01*
X4127740Y-6743940D02*
X4157740Y-6773940D01*
X4157740Y-6743940D02*
X4127740Y-6773940D01*
X4150600Y-6385800D02*
X4180600Y-6415800D01*
X4180600Y-6385800D02*
X4150600Y-6415800D01*
X4160000Y-2325000D02*
X4190000Y-2355000D01*
X4190000Y-2325000D02*
X4160000Y-2355000D01*
X4173460Y-6850620D02*
X4203460Y-6880620D01*
X4203460Y-6850620D02*
X4173460Y-6880620D01*
X4180000Y-3150000D02*
X4210000Y-3180000D01*
X4210000Y-3150000D02*
X4180000Y-3180000D01*
X4182350Y-4906250D02*
X4212350Y-4936250D01*
X4212350Y-4906250D02*
X4182350Y-4936250D01*
X4190000Y-5185000D02*
X4220000Y-5215000D01*
X4220000Y-5185000D02*
X4190000Y-5215000D01*
X4196320Y-5776200D02*
X4226320Y-5806200D01*
X4226320Y-5776200D02*
X4196320Y-5806200D01*
X4198860Y-6745210D02*
X4228860Y-6775210D01*
X4228860Y-6745210D02*
X4198860Y-6775210D01*
X4260000Y-8485000D02*
X4290000Y-8515000D01*
X4290000Y-8485000D02*
X4260000Y-8515000D01*
X4328400Y-6353700D02*
X4358400Y-6383700D01*
X4358400Y-6353700D02*
X4328400Y-6383700D01*
X4346180Y-8233650D02*
X4376180Y-8263650D01*
X4376180Y-8233650D02*
X4346180Y-8263650D01*
X4353800Y-5115800D02*
X4383800Y-5145800D01*
X4383800Y-5115800D02*
X4353800Y-5145800D01*
X4353800Y-5192000D02*
X4383800Y-5222000D01*
X4383800Y-5192000D02*
X4353800Y-5222000D01*
X4353800Y-5268200D02*
X4383800Y-5298200D01*
X4383800Y-5268200D02*
X4353800Y-5298200D01*
X4353800Y-5357100D02*
X4383800Y-5387100D01*
X4383800Y-5357100D02*
X4353800Y-5387100D01*
X4353800Y-6208000D02*
X4383800Y-6238000D01*
X4383800Y-6208000D02*
X4353800Y-6238000D01*
X4366500Y-5509500D02*
X4396500Y-5539500D01*
X4396500Y-5509500D02*
X4366500Y-5539500D01*
X4366500Y-5585700D02*
X4396500Y-5615700D01*
X4396500Y-5585700D02*
X4366500Y-5615700D01*
X4366500Y-5661900D02*
X4396500Y-5691900D01*
X4396500Y-5661900D02*
X4366500Y-5691900D01*
X4366500Y-5750800D02*
X4396500Y-5780800D01*
X4396500Y-5750800D02*
X4366500Y-5780800D01*
X4366500Y-8735300D02*
X4396500Y-8765300D01*
X4396500Y-8735300D02*
X4366500Y-8765300D01*
X4372850Y-4131550D02*
X4402850Y-4161550D01*
X4402850Y-4131550D02*
X4372850Y-4161550D01*
X4455400Y-8887700D02*
X4485400Y-8917700D01*
X4485400Y-8887700D02*
X4455400Y-8917700D01*
X4457000Y-3718000D02*
X4487000Y-3748000D01*
X4487000Y-3718000D02*
X4457000Y-3748000D01*
X4462950Y-4447850D02*
X4492950Y-4477850D01*
X4492950Y-4447850D02*
X4462950Y-4477850D01*
X4471000Y-6486000D02*
X4501000Y-6516000D01*
X4501000Y-6486000D02*
X4471000Y-6516000D01*
X4475000Y-6815000D02*
X4505000Y-6845000D01*
X4505000Y-6815000D02*
X4475000Y-6845000D01*
X4480800Y-6601700D02*
X4510800Y-6631700D01*
X4510800Y-6601700D02*
X4480800Y-6631700D01*
X4493500Y-7998700D02*
X4523500Y-8028700D01*
X4523500Y-7998700D02*
X4493500Y-8028700D01*
X4495000Y-5941000D02*
X4525000Y-5971000D01*
X4525000Y-5941000D02*
X4495000Y-5971000D01*
X4495000Y-6012000D02*
X4525000Y-6042000D01*
X4525000Y-6012000D02*
X4495000Y-6042000D01*
X4497000Y-5876000D02*
X4527000Y-5906000D01*
X4527000Y-5876000D02*
X4497000Y-5906000D01*
X4506200Y-8735300D02*
X4536200Y-8765300D01*
X4536200Y-8735300D02*
X4506200Y-8765300D01*
X4506200Y-9065500D02*
X4536200Y-9095500D01*
X4536200Y-9065500D02*
X4506200Y-9095500D01*
X4512900Y-6538200D02*
X4542900Y-6568200D01*
X4542900Y-6538200D02*
X4512900Y-6568200D01*
X4542186Y-6154470D02*
X4572186Y-6184470D01*
X4572186Y-6154470D02*
X4542186Y-6184470D01*
X4544300Y-6639800D02*
X4574300Y-6669800D01*
X4574300Y-6639800D02*
X4544300Y-6669800D01*
X4582400Y-4806250D02*
X4612400Y-4836250D01*
X4612400Y-4806250D02*
X4582400Y-4836250D01*
X4582400Y-8570200D02*
X4612400Y-8600200D01*
X4612400Y-8570200D02*
X4582400Y-8600200D01*
X4614150Y-6361670D02*
X4644150Y-6391670D01*
X4644150Y-6361670D02*
X4614150Y-6391670D01*
X4635000Y-8295000D02*
X4665000Y-8325000D01*
X4665000Y-8295000D02*
X4635000Y-8325000D01*
X4638280Y-3412730D02*
X4668280Y-3442730D01*
X4668280Y-3412730D02*
X4638280Y-3442730D01*
X4658600Y-7132560D02*
X4688600Y-7162560D01*
X4688600Y-7132560D02*
X4658600Y-7162560D01*
X4798300Y-6411200D02*
X4828300Y-6441200D01*
X4828300Y-6411200D02*
X4798300Y-6441200D01*
X4823700Y-8570200D02*
X4853700Y-8600200D01*
X4853700Y-8570200D02*
X4823700Y-8600200D01*
X4850000Y-3105000D02*
X4880000Y-3135000D01*
X4880000Y-3105000D02*
X4850000Y-3135000D01*
X4912600Y-8024100D02*
X4942600Y-8054100D01*
X4942600Y-8024100D02*
X4912600Y-8054100D01*
X4935000Y-2400000D02*
X4965000Y-2430000D01*
X4965000Y-2400000D02*
X4935000Y-2430000D01*
X4950700Y-7627860D02*
X4980700Y-7657860D01*
X4980700Y-7627860D02*
X4950700Y-7657860D01*
X4968480Y-3410190D02*
X4998480Y-3440190D01*
X4998480Y-3410190D02*
X4968480Y-3440190D01*
X4988800Y-6208000D02*
X5018800Y-6238000D01*
X5018800Y-6208000D02*
X4988800Y-6238000D01*
X5004000Y-4064000D02*
X5034000Y-4094000D01*
X5034000Y-4064000D02*
X5004000Y-4094000D01*
X5005000Y-8290000D02*
X5035000Y-8320000D01*
X5035000Y-8290000D02*
X5005000Y-8320000D01*
X5050000Y-2765000D02*
X5080000Y-2795000D01*
X5080000Y-2765000D02*
X5050000Y-2795000D01*
X5077700Y-7069060D02*
X5107700Y-7099060D01*
X5107700Y-7069060D02*
X5077700Y-7099060D01*
X5078970Y-7499590D02*
X5108970Y-7529590D01*
X5108970Y-7499590D02*
X5078970Y-7529590D01*
X5090400Y-4893550D02*
X5120400Y-4923550D01*
X5120400Y-4893550D02*
X5090400Y-4923550D01*
X5090400Y-8519400D02*
X5120400Y-8549400D01*
X5120400Y-8519400D02*
X5090400Y-8549400D01*
X5115800Y-8748000D02*
X5145800Y-8778000D01*
X5145800Y-8748000D02*
X5115800Y-8778000D01*
X5115800Y-9027400D02*
X5145800Y-9057400D01*
X5145800Y-9027400D02*
X5115800Y-9057400D01*
X5179300Y-8786100D02*
X5209300Y-8816100D01*
X5209300Y-8786100D02*
X5179300Y-8816100D01*
X5216200Y-5383700D02*
X5246200Y-5413700D01*
X5246200Y-5383700D02*
X5216200Y-5413700D01*
X5255500Y-5687300D02*
X5285500Y-5717300D01*
X5285500Y-5687300D02*
X5255500Y-5717300D01*
X5255500Y-7107160D02*
X5285500Y-7137160D01*
X5285500Y-7107160D02*
X5255500Y-7137160D01*
X5260000Y-3585000D02*
X5290000Y-3615000D01*
X5290000Y-3585000D02*
X5260000Y-3615000D01*
X5299000Y-8033000D02*
X5329000Y-8063000D01*
X5329000Y-8033000D02*
X5299000Y-8063000D01*
X5305100Y-4863000D02*
X5335100Y-4893000D01*
X5335100Y-4863000D02*
X5305100Y-4893000D01*
X5344000Y-9050000D02*
X5374000Y-9080000D01*
X5374000Y-9050000D02*
X5344000Y-9080000D01*
X5345000Y-8618000D02*
X5375000Y-8648000D01*
X5375000Y-8618000D02*
X5345000Y-8648000D01*
X5348000Y-8927000D02*
X5378000Y-8957000D01*
X5378000Y-8927000D02*
X5348000Y-8957000D01*
X5348000Y-8989000D02*
X5378000Y-9019000D01*
X5378000Y-8989000D02*
X5348000Y-9019000D01*
X5349000Y-8745000D02*
X5379000Y-8775000D01*
X5379000Y-8745000D02*
X5349000Y-8775000D01*
X5349000Y-8805000D02*
X5379000Y-8835000D01*
X5379000Y-8805000D02*
X5349000Y-8835000D01*
X5349000Y-8866000D02*
X5379000Y-8896000D01*
X5379000Y-8866000D02*
X5349000Y-8896000D01*
X5350000Y-8685000D02*
X5380000Y-8715000D01*
X5380000Y-8685000D02*
X5350000Y-8715000D01*
X5382500Y-4728450D02*
X5412500Y-4758450D01*
X5412500Y-4728450D02*
X5382500Y-4758450D01*
X5390000Y-3455000D02*
X5420000Y-3485000D01*
X5420000Y-3455000D02*
X5390000Y-3485000D01*
X5408000Y-8635000D02*
X5438000Y-8665000D01*
X5438000Y-8635000D02*
X5408000Y-8665000D01*
X5445000Y-3815000D02*
X5475000Y-3845000D01*
X5475000Y-3815000D02*
X5445000Y-3845000D01*
X5468860Y-8633000D02*
X5498860Y-8663000D01*
X5498860Y-8633000D02*
X5468860Y-8663000D01*
X5497000Y-4535000D02*
X5527000Y-4565000D01*
X5527000Y-4535000D02*
X5497000Y-4565000D01*
X5529820Y-8628620D02*
X5559820Y-8658620D01*
X5559820Y-8628620D02*
X5529820Y-8658620D01*
X5534000Y-8450000D02*
X5564000Y-8480000D01*
X5564000Y-8450000D02*
X5534000Y-8480000D01*
X5534900Y-8138400D02*
X5564900Y-8168400D01*
X5564900Y-8138400D02*
X5534900Y-8168400D01*
X5534900Y-8201900D02*
X5564900Y-8231900D01*
X5564900Y-8201900D02*
X5534900Y-8231900D01*
X5534900Y-8265400D02*
X5564900Y-8295400D01*
X5564900Y-8265400D02*
X5534900Y-8295400D01*
X5534900Y-8328900D02*
X5564900Y-8358900D01*
X5564900Y-8328900D02*
X5534900Y-8358900D01*
X5534900Y-8392400D02*
X5564900Y-8422400D01*
X5564900Y-8392400D02*
X5534900Y-8422400D01*
X5534900Y-8506700D02*
X5564900Y-8536700D01*
X5564900Y-8506700D02*
X5534900Y-8536700D01*
X5534900Y-8567660D02*
X5564900Y-8597660D01*
X5564900Y-8567660D02*
X5534900Y-8597660D01*
X5540000Y-3190000D02*
X5570000Y-3220000D01*
X5570000Y-3190000D02*
X5540000Y-3220000D01*
X5540000Y-8076000D02*
X5570000Y-8106000D01*
X5570000Y-8076000D02*
X5540000Y-8106000D01*
X5598400Y-5852400D02*
X5628400Y-5882400D01*
X5628400Y-5852400D02*
X5598400Y-5882400D01*
X5603000Y-8080000D02*
X5633000Y-8110000D01*
X5633000Y-8080000D02*
X5603000Y-8110000D01*
X5607290Y-4191240D02*
X5637290Y-4221240D01*
X5637290Y-4191240D02*
X5607290Y-4221240D01*
X5609830Y-4131550D02*
X5639830Y-4161550D01*
X5639830Y-4131550D02*
X5609830Y-4161550D01*
X5613640Y-4252200D02*
X5643640Y-4282200D01*
X5643640Y-4252200D02*
X5613640Y-4282200D01*
X5632690Y-6811250D02*
X5662690Y-6841250D01*
X5662690Y-6811250D02*
X5632690Y-6841250D01*
X5646660Y-6068300D02*
X5676660Y-6098300D01*
X5676660Y-6068300D02*
X5646660Y-6098300D01*
X5658090Y-4084560D02*
X5688090Y-4114560D01*
X5688090Y-4084560D02*
X5658090Y-4114560D01*
X5667000Y-8080000D02*
X5697000Y-8110000D01*
X5697000Y-8080000D02*
X5667000Y-8110000D01*
X5704000Y-5129000D02*
X5734000Y-5159000D01*
X5734000Y-5129000D02*
X5704000Y-5159000D01*
X5729000Y-8110000D02*
X5759000Y-8140000D01*
X5759000Y-8110000D02*
X5729000Y-8140000D01*
X5738100Y-4633200D02*
X5768100Y-4663200D01*
X5768100Y-4633200D02*
X5738100Y-4663200D01*
X5738100Y-8189200D02*
X5768100Y-8219200D01*
X5768100Y-8189200D02*
X5738100Y-8219200D01*
X5738100Y-8252700D02*
X5768100Y-8282700D01*
X5768100Y-8252700D02*
X5738100Y-8282700D01*
X5738100Y-8316200D02*
X5768100Y-8346200D01*
X5768100Y-8316200D02*
X5738100Y-8346200D01*
X5738100Y-8379700D02*
X5768100Y-8409700D01*
X5768100Y-8379700D02*
X5738100Y-8409700D01*
X5738100Y-8494000D02*
X5768100Y-8524000D01*
X5768100Y-8494000D02*
X5738100Y-8524000D01*
X5740000Y-8601000D02*
X5770000Y-8631000D01*
X5770000Y-8601000D02*
X5740000Y-8631000D01*
X5757150Y-5406500D02*
X5787150Y-5436500D01*
X5787150Y-5406500D02*
X5757150Y-5436500D01*
X5764000Y-8438000D02*
X5794000Y-8468000D01*
X5794000Y-8438000D02*
X5764000Y-8468000D01*
X5771000Y-8546000D02*
X5801000Y-8576000D01*
X5801000Y-8546000D02*
X5771000Y-8576000D01*
X5799000Y-8633700D02*
X5829000Y-8663700D01*
X5829000Y-8633700D02*
X5799000Y-8663700D01*
X5811760Y-6274040D02*
X5841760Y-6304040D01*
X5841760Y-6274040D02*
X5811760Y-6304040D01*
X5841226Y-6391894D02*
X5871226Y-6421894D01*
X5871226Y-6391894D02*
X5841226Y-6421894D01*
X5857480Y-5501880D02*
X5887480Y-5531880D01*
X5887480Y-5501880D02*
X5857480Y-5531880D01*
X5865100Y-8633700D02*
X5895100Y-8663700D01*
X5895100Y-8633700D02*
X5865100Y-8663700D01*
X5877800Y-7973300D02*
X5907800Y-8003300D01*
X5907800Y-7973300D02*
X5877800Y-8003300D01*
X5895000Y-9053000D02*
X5925000Y-9083000D01*
X5925000Y-9053000D02*
X5895000Y-9083000D01*
X5896000Y-8931000D02*
X5926000Y-8961000D01*
X5926000Y-8931000D02*
X5896000Y-8961000D01*
X5896000Y-8992000D02*
X5926000Y-9022000D01*
X5926000Y-8992000D02*
X5896000Y-9022000D01*
X5897000Y-8686000D02*
X5927000Y-8716000D01*
X5927000Y-8686000D02*
X5897000Y-8716000D01*
X5897000Y-8748000D02*
X5927000Y-8778000D01*
X5927000Y-8748000D02*
X5897000Y-8778000D01*
X5897000Y-8809000D02*
X5927000Y-8839000D01*
X5927000Y-8809000D02*
X5897000Y-8839000D01*
X5897000Y-8870000D02*
X5927000Y-8900000D01*
X5927000Y-8870000D02*
X5897000Y-8900000D01*
X5922551Y-4727644D02*
X5952551Y-4757644D01*
X5952551Y-4727644D02*
X5922551Y-4757644D01*
X5930000Y-4085000D02*
X5960000Y-4115000D01*
X5960000Y-4085000D02*
X5930000Y-4115000D01*
X5930000Y-4295000D02*
X5960000Y-4325000D01*
X5960000Y-4295000D02*
X5930000Y-4325000D01*
X5936000Y-9100000D02*
X5966000Y-9130000D01*
X5966000Y-9100000D02*
X5936000Y-9130000D01*
X5945000Y-3095000D02*
X5975000Y-3125000D01*
X5975000Y-3095000D02*
X5945000Y-3125000D01*
X5947650Y-5598400D02*
X5977650Y-5628400D01*
X5977650Y-5598400D02*
X5947650Y-5628400D01*
X5948920Y-5506960D02*
X5978920Y-5536960D01*
X5978920Y-5506960D02*
X5948920Y-5536960D01*
X5990000Y-4075000D02*
X6020000Y-4105000D01*
X6020000Y-4075000D02*
X5990000Y-4105000D01*
X5995000Y-4295000D02*
X6025000Y-4325000D01*
X6025000Y-4295000D02*
X5995000Y-4325000D01*
X5998450Y-6068300D02*
X6028450Y-6098300D01*
X6028450Y-6068300D02*
X5998450Y-6098300D01*
X6020040Y-4739880D02*
X6050040Y-4769880D01*
X6050040Y-4739880D02*
X6020040Y-4769880D01*
X6035000Y-4025000D02*
X6065000Y-4055000D01*
X6065000Y-4025000D02*
X6035000Y-4055000D01*
X6055000Y-4290000D02*
X6085000Y-4320000D01*
X6085000Y-4290000D02*
X6055000Y-4320000D01*
X6071000Y-5130000D02*
X6101000Y-5160000D01*
X6101000Y-5130000D02*
X6071000Y-5160000D01*
X6080000Y-3980000D02*
X6110000Y-4010000D01*
X6110000Y-3980000D02*
X6080000Y-4010000D01*
X6090000Y-3355000D02*
X6120000Y-3385000D01*
X6120000Y-3355000D02*
X6090000Y-3385000D01*
X6090000Y-3460000D02*
X6120000Y-3490000D01*
X6120000Y-3460000D02*
X6090000Y-3490000D01*
X6095000Y-3200000D02*
X6125000Y-3230000D01*
X6125000Y-3200000D02*
X6095000Y-3230000D01*
X6106400Y-6004800D02*
X6136400Y-6034800D01*
X6136400Y-6004800D02*
X6106400Y-6034800D01*
X6110000Y-4250000D02*
X6140000Y-4280000D01*
X6140000Y-4250000D02*
X6110000Y-4280000D01*
X6111826Y-6466915D02*
X6141826Y-6496915D01*
X6141826Y-6466915D02*
X6111826Y-6496915D01*
X6125000Y-3935000D02*
X6155000Y-3965000D01*
X6155000Y-3935000D02*
X6125000Y-3965000D01*
X6131800Y-8875000D02*
X6161800Y-8905000D01*
X6161800Y-8875000D02*
X6131800Y-8905000D01*
X6144500Y-8989300D02*
X6174500Y-9019300D01*
X6174500Y-8989300D02*
X6144500Y-9019300D01*
X6160000Y-4205000D02*
X6190000Y-4235000D01*
X6190000Y-4205000D02*
X6160000Y-4235000D01*
X6170000Y-3890000D02*
X6200000Y-3920000D01*
X6200000Y-3890000D02*
X6170000Y-3920000D01*
X6182600Y-8709900D02*
X6212600Y-8739900D01*
X6212600Y-8709900D02*
X6182600Y-8739900D01*
X6205000Y-4160000D02*
X6235000Y-4190000D01*
X6235000Y-4160000D02*
X6205000Y-4190000D01*
X6219000Y-5190000D02*
X6249000Y-5220000D01*
X6249000Y-5190000D02*
X6219000Y-5220000D01*
X6235000Y-3870000D02*
X6265000Y-3900000D01*
X6265000Y-3870000D02*
X6235000Y-3900000D01*
X6240000Y-3160000D02*
X6270000Y-3190000D01*
X6270000Y-3160000D02*
X6240000Y-3190000D01*
X6245000Y-4115000D02*
X6275000Y-4145000D01*
X6275000Y-4115000D02*
X6245000Y-4145000D01*
X6246100Y-6881100D02*
X6276100Y-6911100D01*
X6276100Y-6881100D02*
X6246100Y-6911100D01*
X6271500Y-5065000D02*
X6301500Y-5095000D01*
X6301500Y-5065000D02*
X6271500Y-5095000D01*
X6280000Y-2425000D02*
X6310000Y-2455000D01*
X6310000Y-2425000D02*
X6280000Y-2455000D01*
X6290000Y-3870000D02*
X6320000Y-3900000D01*
X6320000Y-3870000D02*
X6290000Y-3900000D01*
X6300000Y-4085000D02*
X6330000Y-4115000D01*
X6330000Y-4085000D02*
X6300000Y-4115000D01*
X6305000Y-3490000D02*
X6335000Y-3520000D01*
X6335000Y-3490000D02*
X6305000Y-3520000D01*
X6305000Y-3570000D02*
X6335000Y-3600000D01*
X6335000Y-3570000D02*
X6305000Y-3600000D01*
X6305000Y-3630000D02*
X6335000Y-3660000D01*
X6335000Y-3630000D02*
X6305000Y-3660000D01*
X6305000Y-3690000D02*
X6335000Y-3720000D01*
X6335000Y-3690000D02*
X6305000Y-3720000D01*
X6305000Y-3750000D02*
X6335000Y-3780000D01*
X6335000Y-3750000D02*
X6305000Y-3780000D01*
X6305000Y-3810000D02*
X6335000Y-3840000D01*
X6335000Y-3810000D02*
X6305000Y-3840000D01*
X6309600Y-8582900D02*
X6339600Y-8612900D01*
X6339600Y-8582900D02*
X6309600Y-8612900D01*
X6340000Y-2790000D02*
X6370000Y-2820000D01*
X6370000Y-2790000D02*
X6340000Y-2820000D01*
X6360000Y-4085000D02*
X6390000Y-4115000D01*
X6390000Y-4085000D02*
X6360000Y-4115000D01*
X6380720Y-5760960D02*
X6410720Y-5790960D01*
X6410720Y-5760960D02*
X6380720Y-5790960D01*
X6410000Y-3165000D02*
X6440000Y-3195000D01*
X6440000Y-3165000D02*
X6410000Y-3195000D01*
X6410000Y-3290000D02*
X6440000Y-3320000D01*
X6440000Y-3290000D02*
X6410000Y-3320000D01*
X6410000Y-3385000D02*
X6440000Y-3415000D01*
X6440000Y-3385000D02*
X6410000Y-3415000D01*
X6420000Y-4080000D02*
X6450000Y-4110000D01*
X6450000Y-4080000D02*
X6420000Y-4110000D01*
X6435000Y-4325000D02*
X6465000Y-4355000D01*
X6465000Y-4325000D02*
X6435000Y-4355000D01*
X6450300Y-6068300D02*
X6480300Y-6098300D01*
X6480300Y-6068300D02*
X6450300Y-6098300D01*
X6485000Y-4080000D02*
X6515000Y-4110000D01*
X6515000Y-4080000D02*
X6485000Y-4110000D01*
X6487400Y-6204400D02*
X6517400Y-6234400D01*
X6517400Y-6204400D02*
X6487400Y-6234400D01*
X6515000Y-3475000D02*
X6545000Y-3505000D01*
X6545000Y-3475000D02*
X6515000Y-3505000D01*
X6515000Y-3560000D02*
X6545000Y-3590000D01*
X6545000Y-3560000D02*
X6515000Y-3590000D01*
X6515000Y-3620000D02*
X6545000Y-3650000D01*
X6545000Y-3620000D02*
X6515000Y-3650000D01*
X6515000Y-3680000D02*
X6545000Y-3710000D01*
X6545000Y-3680000D02*
X6515000Y-3710000D01*
X6515000Y-3740000D02*
X6545000Y-3770000D01*
X6545000Y-3740000D02*
X6515000Y-3770000D01*
X6515000Y-3800000D02*
X6545000Y-3830000D01*
X6545000Y-3800000D02*
X6515000Y-3830000D01*
X6520000Y-3860000D02*
X6550000Y-3890000D01*
X6550000Y-3860000D02*
X6520000Y-3890000D01*
X6525500Y-4772900D02*
X6555500Y-4802900D01*
X6555500Y-4772900D02*
X6525500Y-4802900D01*
X6538200Y-6868400D02*
X6568200Y-6898400D01*
X6568200Y-6868400D02*
X6538200Y-6898400D01*
X6550000Y-4070000D02*
X6580000Y-4100000D01*
X6580000Y-4070000D02*
X6550000Y-4100000D01*
X6563600Y-6296928D02*
X6593600Y-6326928D01*
X6593600Y-6296928D02*
X6563600Y-6326928D01*
X6563600Y-6436600D02*
X6593600Y-6466600D01*
X6593600Y-6436600D02*
X6563600Y-6466600D01*
X6565000Y-3165000D02*
X6595000Y-3195000D01*
X6595000Y-3165000D02*
X6565000Y-3195000D01*
X6580000Y-3855000D02*
X6610000Y-3885000D01*
X6610000Y-3855000D02*
X6580000Y-3885000D01*
X6601700Y-8570200D02*
X6631700Y-8600200D01*
X6631700Y-8570200D02*
X6601700Y-8600200D01*
X6614400Y-6220700D02*
X6644400Y-6250700D01*
X6644400Y-6220700D02*
X6614400Y-6250700D01*
X6620000Y-3545000D02*
X6650000Y-3575000D01*
X6650000Y-3545000D02*
X6620000Y-3575000D01*
X6620000Y-4065000D02*
X6650000Y-4095000D01*
X6650000Y-4065000D02*
X6620000Y-4095000D01*
X6627100Y-5229922D02*
X6657100Y-5259922D01*
X6657100Y-5229922D02*
X6627100Y-5259922D01*
X6627100Y-5406500D02*
X6657100Y-5436500D01*
X6657100Y-5406500D02*
X6627100Y-5436500D01*
X6640000Y-3840000D02*
X6670000Y-3870000D01*
X6670000Y-3840000D02*
X6640000Y-3870000D01*
X6665200Y-4760200D02*
X6695200Y-4790200D01*
X6695200Y-4760200D02*
X6665200Y-4790200D01*
X6680000Y-4050000D02*
X6710000Y-4080000D01*
X6710000Y-4050000D02*
X6680000Y-4080000D01*
X6690600Y-5052300D02*
X6720600Y-5082300D01*
X6720600Y-5052300D02*
X6690600Y-5082300D01*
X6700000Y-3820000D02*
X6730000Y-3850000D01*
X6730000Y-3820000D02*
X6700000Y-3850000D01*
X6700098Y-5292422D02*
X6730098Y-5322422D01*
X6730098Y-5292422D02*
X6700098Y-5322422D01*
X6703300Y-5471400D02*
X6733300Y-5501400D01*
X6733300Y-5471400D02*
X6703300Y-5501400D01*
X6710000Y-3175000D02*
X6740000Y-3205000D01*
X6740000Y-3175000D02*
X6710000Y-3205000D01*
X6725000Y-3505000D02*
X6755000Y-3535000D01*
X6755000Y-3505000D02*
X6725000Y-3535000D01*
X6728700Y-8671800D02*
X6758700Y-8701800D01*
X6758700Y-8671800D02*
X6728700Y-8701800D01*
X6740000Y-4025000D02*
X6770000Y-4055000D01*
X6770000Y-4025000D02*
X6740000Y-4055000D01*
X6741400Y-5115800D02*
X6771400Y-5145800D01*
X6771400Y-5115800D02*
X6741400Y-5145800D01*
X6741400Y-8455900D02*
X6771400Y-8485900D01*
X6771400Y-8455900D02*
X6741400Y-8485900D01*
X6745000Y-3330000D02*
X6775000Y-3360000D01*
X6775000Y-3330000D02*
X6745000Y-3360000D01*
X6760000Y-3805000D02*
X6790000Y-3835000D01*
X6790000Y-3805000D02*
X6760000Y-3835000D01*
X6779500Y-8951200D02*
X6809500Y-8981200D01*
X6809500Y-8951200D02*
X6779500Y-8981200D01*
X6800000Y-4005000D02*
X6830000Y-4035000D01*
X6830000Y-4005000D02*
X6800000Y-4035000D01*
X6804900Y-4595100D02*
X6834900Y-4625100D01*
X6834900Y-4595100D02*
X6804900Y-4625100D01*
X6820000Y-3785000D02*
X6850000Y-3815000D01*
X6850000Y-3785000D02*
X6820000Y-3815000D01*
X6825000Y-4265000D02*
X6855000Y-4295000D01*
X6855000Y-4265000D02*
X6825000Y-4295000D01*
X6860000Y-3985000D02*
X6890000Y-4015000D01*
X6890000Y-3985000D02*
X6860000Y-4015000D01*
X6880000Y-3770000D02*
X6910000Y-3800000D01*
X6910000Y-3770000D02*
X6880000Y-3800000D01*
X6893800Y-4912600D02*
X6923800Y-4942600D01*
X6923800Y-4912600D02*
X6893800Y-4942600D01*
X6920000Y-3965000D02*
X6950000Y-3995000D01*
X6950000Y-3965000D02*
X6920000Y-3995000D01*
X6920000Y-4660000D02*
X6950000Y-4690000D01*
X6950000Y-4660000D02*
X6920000Y-4690000D01*
X6940000Y-3760000D02*
X6970000Y-3790000D01*
X6970000Y-3760000D02*
X6940000Y-3790000D01*
X6980000Y-3950000D02*
X7010000Y-3980000D01*
X7010000Y-3950000D02*
X6980000Y-3980000D01*
X7000000Y-3745000D02*
X7030000Y-3775000D01*
X7030000Y-3745000D02*
X7000000Y-3775000D01*
X7030000Y-6445000D02*
X7060000Y-6475000D01*
X7060000Y-6445000D02*
X7030000Y-6475000D01*
X7036000Y-4344000D02*
X7066000Y-4374000D01*
X7066000Y-4344000D02*
X7036000Y-4374000D01*
X7036000Y-4480000D02*
X7066000Y-4510000D01*
X7066000Y-4480000D02*
X7036000Y-4510000D01*
X7037000Y-4274000D02*
X7067000Y-4304000D01*
X7067000Y-4274000D02*
X7037000Y-4304000D01*
X7038000Y-4146000D02*
X7068000Y-4176000D01*
X7068000Y-4146000D02*
X7038000Y-4176000D01*
X7038000Y-4212000D02*
X7068000Y-4242000D01*
X7068000Y-4212000D02*
X7038000Y-4242000D01*
X7038000Y-4548000D02*
X7068000Y-4578000D01*
X7068000Y-4548000D02*
X7038000Y-4578000D01*
X7039000Y-4079000D02*
X7069000Y-4109000D01*
X7069000Y-4079000D02*
X7039000Y-4109000D01*
X7039000Y-4408000D02*
X7069000Y-4438000D01*
X7069000Y-4408000D02*
X7039000Y-4438000D01*
X7041000Y-3949000D02*
X7071000Y-3979000D01*
X7071000Y-3949000D02*
X7041000Y-3979000D01*
X7042000Y-4014000D02*
X7072000Y-4044000D01*
X7072000Y-4014000D02*
X7042000Y-4044000D01*
X7042000Y-4626000D02*
X7072000Y-4656000D01*
X7072000Y-4626000D02*
X7042000Y-4656000D01*
X7045000Y-3700000D02*
X7075000Y-3730000D01*
X7075000Y-3700000D02*
X7045000Y-3730000D01*
X7045000Y-6860000D02*
X7075000Y-6890000D01*
X7075000Y-6860000D02*
X7045000Y-6890000D01*
X7060000Y-3630000D02*
X7090000Y-3660000D01*
X7090000Y-3630000D02*
X7060000Y-3660000D01*
X7075000Y-7265000D02*
X7105000Y-7295000D01*
X7105000Y-7265000D02*
X7075000Y-7295000D01*
X7080000Y-7775000D02*
X7110000Y-7805000D01*
X7110000Y-7775000D02*
X7080000Y-7805000D01*
X7101000Y-4650000D02*
X7131000Y-4680000D01*
X7131000Y-4650000D02*
X7101000Y-4680000D01*
X7135000Y-3615000D02*
X7165000Y-3645000D01*
X7165000Y-3615000D02*
X7135000Y-3645000D01*
X7135100Y-8786100D02*
X7165100Y-8816100D01*
X7165100Y-8786100D02*
X7135100Y-8816100D01*
X7145260Y-3806430D02*
X7175260Y-3836430D01*
X7175260Y-3806430D02*
X7145260Y-3836430D01*
X7171000Y-4653000D02*
X7201000Y-4683000D01*
X7201000Y-4653000D02*
X7171000Y-4683000D01*
X7185900Y-9027400D02*
X7215900Y-9057400D01*
X7215900Y-9027400D02*
X7185900Y-9057400D01*
X7198600Y-8506700D02*
X7228600Y-8536700D01*
X7228600Y-8506700D02*
X7198600Y-8536700D01*
X7200000Y-3615000D02*
X7230000Y-3645000D01*
X7230000Y-3615000D02*
X7200000Y-3645000D01*
X7215000Y-8075000D02*
X7245000Y-8105000D01*
X7245000Y-8075000D02*
X7215000Y-8105000D01*
X7220000Y-7535000D02*
X7250000Y-7565000D01*
X7250000Y-7535000D02*
X7220000Y-7565000D01*
X7225000Y-4830000D02*
X7255000Y-4860000D01*
X7255000Y-4830000D02*
X7225000Y-4860000D01*
X7240000Y-6035000D02*
X7270000Y-6065000D01*
X7270000Y-6035000D02*
X7240000Y-6065000D01*
X7242000Y-4651000D02*
X7272000Y-4681000D01*
X7272000Y-4651000D02*
X7242000Y-4681000D01*
X7255000Y-6510000D02*
X7285000Y-6540000D01*
X7285000Y-6510000D02*
X7255000Y-6540000D01*
X7265000Y-3613000D02*
X7295000Y-3643000D01*
X7295000Y-3613000D02*
X7265000Y-3643000D01*
X7280000Y-2410000D02*
X7310000Y-2440000D01*
X7310000Y-2410000D02*
X7280000Y-2440000D01*
X7288000Y-4718000D02*
X7318000Y-4748000D01*
X7318000Y-4718000D02*
X7288000Y-4748000D01*
X7300000Y-4658000D02*
X7330000Y-4688000D01*
X7330000Y-4658000D02*
X7300000Y-4688000D01*
X7305000Y-7015000D02*
X7335000Y-7045000D01*
X7335000Y-7015000D02*
X7305000Y-7045000D01*
X7315000Y-5475000D02*
X7345000Y-5505000D01*
X7345000Y-5475000D02*
X7315000Y-5505000D01*
X7325000Y-3609000D02*
X7355000Y-3639000D01*
X7355000Y-3609000D02*
X7325000Y-3639000D01*
X7335000Y-3250000D02*
X7365000Y-3280000D01*
X7365000Y-3250000D02*
X7335000Y-3280000D01*
X7341000Y-4757000D02*
X7371000Y-4787000D01*
X7371000Y-4757000D02*
X7341000Y-4787000D01*
X7350000Y-6330000D02*
X7380000Y-6360000D01*
X7380000Y-6330000D02*
X7350000Y-6360000D01*
X7370000Y-7300000D02*
X7400000Y-7330000D01*
X7400000Y-7300000D02*
X7370000Y-7330000D01*
X7375000Y-7600000D02*
X7405000Y-7630000D01*
X7405000Y-7600000D02*
X7375000Y-7630000D01*
X7380000Y-3610000D02*
X7410000Y-3640000D01*
X7410000Y-3610000D02*
X7380000Y-3640000D01*
X7380000Y-8910000D02*
X7410000Y-8940000D01*
X7410000Y-8910000D02*
X7380000Y-8940000D01*
X7385000Y-5155000D02*
X7415000Y-5185000D01*
X7415000Y-5155000D02*
X7385000Y-5185000D01*
X7385000Y-6790000D02*
X7415000Y-6820000D01*
X7415000Y-6790000D02*
X7385000Y-6820000D01*
X7385000Y-8235000D02*
X7415000Y-8265000D01*
X7415000Y-8235000D02*
X7385000Y-8265000D01*
X7399000Y-4772000D02*
X7429000Y-4802000D01*
X7429000Y-4772000D02*
X7399000Y-4802000D01*
X7405000Y-5765000D02*
X7435000Y-5795000D01*
X7435000Y-5765000D02*
X7405000Y-5795000D01*
X7445000Y-3610000D02*
X7475000Y-3640000D01*
X7475000Y-3610000D02*
X7445000Y-3640000D01*
X4230840Y-3439160D02*
G75*
G03X4230840Y-3439160I-50000J0D01*
G01*
X4230840Y-3693160D02*
G75*
G03X4230840Y-3693160I-50000J0D01*
G01*
X4953000Y-6706362D02*
X4953000Y-6806438D01*
X4902962Y-6756400D02*
X5003038Y-6756400D01*
X4216400Y-5449062D02*
X4216400Y-5549138D01*
X4166362Y-5499100D02*
X4266438Y-5499100D01*
X4463864Y-2895414D02*
X4463864Y-2679886D01*
X4248336Y-2679886D01*
X4248336Y-2895414D01*
X4463864Y-2895414D01*
X5752914Y-2901764D02*
X5752914Y-2686236D01*
X5537386Y-2686236D01*
X5537386Y-2901764D01*
X5752914Y-2901764D01*
X7041964Y-2889064D02*
X7041964Y-2673536D01*
X6826436Y-2673536D01*
X6826436Y-2889064D01*
X7041964Y-2889064D01*
D12*
X4040628Y-9665514D02*
X4040628Y-9365514D01*
X4112057Y-9365514D01*
X4154914Y-9379800D01*
X4183486Y-9408372D01*
X4197771Y-9436943D01*
X4212057Y-9494086D01*
X4212057Y-9536943D01*
X4197771Y-9594086D01*
X4183486Y-9622657D01*
X4154914Y-9651229D01*
X4112057Y-9665514D01*
X4040628Y-9665514D01*
X4340628Y-9665514D02*
X4340628Y-9465514D01*
X4340628Y-9522657D02*
X4354914Y-9494086D01*
X4369200Y-9479800D01*
X4397771Y-9465514D01*
X4426343Y-9465514D01*
X4526343Y-9665514D02*
X4526343Y-9465514D01*
X4526343Y-9365514D02*
X4512057Y-9379800D01*
X4526343Y-9394086D01*
X4540628Y-9379800D01*
X4526343Y-9365514D01*
X4526343Y-9394086D01*
X4712057Y-9665514D02*
X4683486Y-9651229D01*
X4669200Y-9622657D01*
X4669200Y-9365514D01*
X4869200Y-9665514D02*
X4840628Y-9651229D01*
X4826343Y-9622657D01*
X4826343Y-9365514D01*
X5212057Y-9665514D02*
X5212057Y-9365514D01*
X5312057Y-9579800D01*
X5412057Y-9365514D01*
X5412057Y-9665514D01*
X5683486Y-9665514D02*
X5683486Y-9508372D01*
X5669200Y-9479800D01*
X5640628Y-9465514D01*
X5583486Y-9465514D01*
X5554914Y-9479800D01*
X5683486Y-9651229D02*
X5654914Y-9665514D01*
X5583486Y-9665514D01*
X5554914Y-9651229D01*
X5540628Y-9622657D01*
X5540628Y-9594086D01*
X5554914Y-9565514D01*
X5583486Y-9551229D01*
X5654914Y-9551229D01*
X5683486Y-9536943D01*
X5826343Y-9465514D02*
X5826343Y-9765514D01*
X5826343Y-9479800D02*
X5854914Y-9465514D01*
X5912057Y-9465514D01*
X5940628Y-9479800D01*
X5954914Y-9494086D01*
X5969200Y-9522657D01*
X5969200Y-9608372D01*
X5954914Y-9636943D01*
X5940628Y-9651229D01*
X5912057Y-9665514D01*
X5854914Y-9665514D01*
X5826343Y-9651229D01*
X6097771Y-9636943D02*
X6112057Y-9651229D01*
X6097771Y-9665514D01*
X6083486Y-9651229D01*
X6097771Y-9636943D01*
X6097771Y-9665514D01*
X6097771Y-9479800D02*
X6112057Y-9494086D01*
X6097771Y-9508372D01*
X6083486Y-9494086D01*
X6097771Y-9479800D01*
X6097771Y-9508372D01*
X3724200Y-10144800D02*
X3754200Y-10174800D01*
X3754200Y-10144800D02*
X3724200Y-10174800D01*
X4097771Y-9995514D02*
X4126343Y-9995514D01*
X4154914Y-10009800D01*
X4169200Y-10024086D01*
X4183486Y-10052657D01*
X4197771Y-10109800D01*
X4197771Y-10181229D01*
X4183486Y-10238372D01*
X4169200Y-10266943D01*
X4154914Y-10281229D01*
X4126343Y-10295514D01*
X4097771Y-10295514D01*
X4069200Y-10281229D01*
X4054914Y-10266943D01*
X4040628Y-10238372D01*
X4026343Y-10181229D01*
X4026343Y-10109800D01*
X4040628Y-10052657D01*
X4054914Y-10024086D01*
X4069200Y-10009800D01*
X4097771Y-9995514D01*
X4326343Y-10266943D02*
X4340628Y-10281229D01*
X4326343Y-10295514D01*
X4312057Y-10281229D01*
X4326343Y-10266943D01*
X4326343Y-10295514D01*
X4440628Y-9995514D02*
X4626343Y-9995514D01*
X4526343Y-10109800D01*
X4569200Y-10109800D01*
X4597771Y-10124086D01*
X4612057Y-10138372D01*
X4626343Y-10166943D01*
X4626343Y-10238372D01*
X4612057Y-10266943D01*
X4597771Y-10281229D01*
X4569200Y-10295514D01*
X4483486Y-10295514D01*
X4454914Y-10281229D01*
X4440628Y-10266943D01*
X4812057Y-9995514D02*
X4840628Y-9995514D01*
X4869200Y-10009800D01*
X4883486Y-10024086D01*
X4897771Y-10052657D01*
X4912057Y-10109800D01*
X4912057Y-10181229D01*
X4897771Y-10238372D01*
X4883486Y-10266943D01*
X4869200Y-10281229D01*
X4840628Y-10295514D01*
X4812057Y-10295514D01*
X4783486Y-10281229D01*
X4769200Y-10266943D01*
X4754914Y-10238372D01*
X4740628Y-10181229D01*
X4740628Y-10109800D01*
X4754914Y-10052657D01*
X4769200Y-10024086D01*
X4783486Y-10009800D01*
X4812057Y-9995514D01*
X5040628Y-10295514D02*
X5040628Y-10095514D01*
X5040628Y-10124086D02*
X5054914Y-10109800D01*
X5083486Y-10095514D01*
X5126343Y-10095514D01*
X5154914Y-10109800D01*
X5169200Y-10138372D01*
X5169200Y-10295514D01*
X5169200Y-10138372D02*
X5183486Y-10109800D01*
X5212057Y-10095514D01*
X5254914Y-10095514D01*
X5283486Y-10109800D01*
X5297771Y-10138372D01*
X5297771Y-10295514D01*
X5440628Y-10295514D02*
X5440628Y-10095514D01*
X5440628Y-10124086D02*
X5454914Y-10109800D01*
X5483486Y-10095514D01*
X5526343Y-10095514D01*
X5554914Y-10109800D01*
X5569200Y-10138372D01*
X5569200Y-10295514D01*
X5569200Y-10138372D02*
X5583486Y-10109800D01*
X5612057Y-10095514D01*
X5654914Y-10095514D01*
X5683486Y-10109800D01*
X5697771Y-10138372D01*
X5697771Y-10295514D01*
X6283486Y-9981229D02*
X6026343Y-10366943D01*
X6669200Y-9995514D02*
X6697771Y-9995514D01*
X6726343Y-10009800D01*
X6740628Y-10024086D01*
X6754914Y-10052657D01*
X6769200Y-10109800D01*
X6769200Y-10181229D01*
X6754914Y-10238372D01*
X6740628Y-10266943D01*
X6726343Y-10281229D01*
X6697771Y-10295514D01*
X6669200Y-10295514D01*
X6640628Y-10281229D01*
X6626343Y-10266943D01*
X6612057Y-10238372D01*
X6597771Y-10181229D01*
X6597771Y-10109800D01*
X6612057Y-10052657D01*
X6626343Y-10024086D01*
X6640628Y-10009800D01*
X6669200Y-9995514D01*
X6897771Y-10266943D02*
X6912057Y-10281229D01*
X6897771Y-10295514D01*
X6883486Y-10281229D01*
X6897771Y-10266943D01*
X6897771Y-10295514D01*
X7097771Y-9995514D02*
X7126343Y-9995514D01*
X7154914Y-10009800D01*
X7169200Y-10024086D01*
X7183486Y-10052657D01*
X7197771Y-10109800D01*
X7197771Y-10181229D01*
X7183486Y-10238372D01*
X7169200Y-10266943D01*
X7154914Y-10281229D01*
X7126343Y-10295514D01*
X7097771Y-10295514D01*
X7069200Y-10281229D01*
X7054914Y-10266943D01*
X7040628Y-10238372D01*
X7026343Y-10181229D01*
X7026343Y-10109800D01*
X7040628Y-10052657D01*
X7054914Y-10024086D01*
X7069200Y-10009800D01*
X7097771Y-9995514D01*
X7483486Y-10295514D02*
X7312057Y-10295514D01*
X7397771Y-10295514D02*
X7397771Y-9995514D01*
X7369200Y-10038372D01*
X7340628Y-10066943D01*
X7312057Y-10081229D01*
X7597771Y-10024086D02*
X7612057Y-10009800D01*
X7640628Y-9995514D01*
X7712057Y-9995514D01*
X7740628Y-10009800D01*
X7754914Y-10024086D01*
X7769200Y-10052657D01*
X7769200Y-10081229D01*
X7754914Y-10124086D01*
X7583486Y-10295514D01*
X7769200Y-10295514D01*
X7883486Y-9995514D02*
X7883486Y-10052657D01*
X7997771Y-9995514D02*
X7997771Y-10052657D01*
X8440628Y-10409800D02*
X8426343Y-10395514D01*
X8397771Y-10352657D01*
X8383486Y-10324086D01*
X8369200Y-10281229D01*
X8354914Y-10209800D01*
X8354914Y-10152657D01*
X8369200Y-10081229D01*
X8383486Y-10038372D01*
X8397771Y-10009800D01*
X8426343Y-9966943D01*
X8440628Y-9952657D01*
X8540628Y-10024086D02*
X8554914Y-10009800D01*
X8583486Y-9995514D01*
X8654914Y-9995514D01*
X8683486Y-10009800D01*
X8697771Y-10024086D01*
X8712057Y-10052657D01*
X8712057Y-10081229D01*
X8697771Y-10124086D01*
X8526343Y-10295514D01*
X8712057Y-10295514D01*
X8854914Y-10295514D02*
X8912057Y-10295514D01*
X8940628Y-10281229D01*
X8954914Y-10266943D01*
X8983486Y-10224086D01*
X8997771Y-10166943D01*
X8997771Y-10052657D01*
X8983486Y-10024086D01*
X8969200Y-10009800D01*
X8940628Y-9995514D01*
X8883486Y-9995514D01*
X8854914Y-10009800D01*
X8840628Y-10024086D01*
X8826343Y-10052657D01*
X8826343Y-10124086D01*
X8840628Y-10152657D01*
X8854914Y-10166943D01*
X8883486Y-10181229D01*
X8940628Y-10181229D01*
X8969200Y-10166943D01*
X8983486Y-10152657D01*
X8997771Y-10124086D01*
X9140628Y-10295514D02*
X9197771Y-10295514D01*
X9226343Y-10281229D01*
X9240628Y-10266943D01*
X9269200Y-10224086D01*
X9283486Y-10166943D01*
X9283486Y-10052657D01*
X9269200Y-10024086D01*
X9254914Y-10009800D01*
X9226343Y-9995514D01*
X9169200Y-9995514D01*
X9140628Y-10009800D01*
X9126343Y-10024086D01*
X9112057Y-10052657D01*
X9112057Y-10124086D01*
X9126343Y-10152657D01*
X9140628Y-10166943D01*
X9169200Y-10181229D01*
X9226343Y-10181229D01*
X9254914Y-10166943D01*
X9269200Y-10152657D01*
X9283486Y-10124086D01*
X9640628Y-10295514D02*
X9640628Y-9995514D01*
X9769200Y-10295514D02*
X9769200Y-10138372D01*
X9754914Y-10109800D01*
X9726343Y-10095514D01*
X9683486Y-10095514D01*
X9654914Y-10109800D01*
X9640628Y-10124086D01*
X9954914Y-10295514D02*
X9926343Y-10281229D01*
X9912057Y-10266943D01*
X9897771Y-10238372D01*
X9897771Y-10152657D01*
X9912057Y-10124086D01*
X9926343Y-10109800D01*
X9954914Y-10095514D01*
X9997771Y-10095514D01*
X10026343Y-10109800D01*
X10040628Y-10124086D01*
X10054914Y-10152657D01*
X10054914Y-10238372D01*
X10040628Y-10266943D01*
X10026343Y-10281229D01*
X9997771Y-10295514D01*
X9954914Y-10295514D01*
X10226343Y-10295514D02*
X10197771Y-10281229D01*
X10183486Y-10252657D01*
X10183486Y-9995514D01*
X10454914Y-10281229D02*
X10426343Y-10295514D01*
X10369200Y-10295514D01*
X10340628Y-10281229D01*
X10326343Y-10252657D01*
X10326343Y-10138372D01*
X10340628Y-10109800D01*
X10369200Y-10095514D01*
X10426343Y-10095514D01*
X10454914Y-10109800D01*
X10469200Y-10138372D01*
X10469200Y-10166943D01*
X10326343Y-10195514D01*
X10583486Y-10281229D02*
X10612057Y-10295514D01*
X10669200Y-10295514D01*
X10697771Y-10281229D01*
X10712057Y-10252657D01*
X10712057Y-10238372D01*
X10697771Y-10209800D01*
X10669200Y-10195514D01*
X10626343Y-10195514D01*
X10597771Y-10181229D01*
X10583486Y-10152657D01*
X10583486Y-10138372D01*
X10597771Y-10109800D01*
X10626343Y-10095514D01*
X10669200Y-10095514D01*
X10697771Y-10109800D01*
X10812057Y-10409800D02*
X10826343Y-10395514D01*
X10854914Y-10352657D01*
X10869200Y-10324086D01*
X10883486Y-10281229D01*
X10897771Y-10209800D01*
X10897771Y-10152657D01*
X10883486Y-10081229D01*
X10869200Y-10038372D01*
X10854914Y-10009800D01*
X10826343Y-9966943D01*
X10812057Y-9952657D01*
X3754200Y-10555800D02*
G75*
G03X3754200Y-10555800I-50000J0D01*
G01*
X4197771Y-10691514D02*
X4026343Y-10691514D01*
X4112057Y-10691514D02*
X4112057Y-10391514D01*
X4083486Y-10434372D01*
X4054914Y-10462943D01*
X4026343Y-10477229D01*
X4326343Y-10662943D02*
X4340628Y-10677229D01*
X4326343Y-10691514D01*
X4312057Y-10677229D01*
X4326343Y-10662943D01*
X4326343Y-10691514D01*
X4526343Y-10391514D02*
X4554914Y-10391514D01*
X4583486Y-10405800D01*
X4597771Y-10420086D01*
X4612057Y-10448657D01*
X4626343Y-10505800D01*
X4626343Y-10577229D01*
X4612057Y-10634372D01*
X4597771Y-10662943D01*
X4583486Y-10677229D01*
X4554914Y-10691514D01*
X4526343Y-10691514D01*
X4497771Y-10677229D01*
X4483486Y-10662943D01*
X4469200Y-10634372D01*
X4454914Y-10577229D01*
X4454914Y-10505800D01*
X4469200Y-10448657D01*
X4483486Y-10420086D01*
X4497771Y-10405800D01*
X4526343Y-10391514D01*
X4812057Y-10391514D02*
X4840628Y-10391514D01*
X4869200Y-10405800D01*
X4883486Y-10420086D01*
X4897771Y-10448657D01*
X4912057Y-10505800D01*
X4912057Y-10577229D01*
X4897771Y-10634372D01*
X4883486Y-10662943D01*
X4869200Y-10677229D01*
X4840628Y-10691514D01*
X4812057Y-10691514D01*
X4783486Y-10677229D01*
X4769200Y-10662943D01*
X4754914Y-10634372D01*
X4740628Y-10577229D01*
X4740628Y-10505800D01*
X4754914Y-10448657D01*
X4769200Y-10420086D01*
X4783486Y-10405800D01*
X4812057Y-10391514D01*
X5040628Y-10691514D02*
X5040628Y-10491514D01*
X5040628Y-10520086D02*
X5054914Y-10505800D01*
X5083486Y-10491514D01*
X5126343Y-10491514D01*
X5154914Y-10505800D01*
X5169200Y-10534372D01*
X5169200Y-10691514D01*
X5169200Y-10534372D02*
X5183486Y-10505800D01*
X5212057Y-10491514D01*
X5254914Y-10491514D01*
X5283486Y-10505800D01*
X5297771Y-10534372D01*
X5297771Y-10691514D01*
X5440628Y-10691514D02*
X5440628Y-10491514D01*
X5440628Y-10520086D02*
X5454914Y-10505800D01*
X5483486Y-10491514D01*
X5526343Y-10491514D01*
X5554914Y-10505800D01*
X5569200Y-10534372D01*
X5569200Y-10691514D01*
X5569200Y-10534372D02*
X5583486Y-10505800D01*
X5612057Y-10491514D01*
X5654914Y-10491514D01*
X5683486Y-10505800D01*
X5697771Y-10534372D01*
X5697771Y-10691514D01*
X6283486Y-10377229D02*
X6026343Y-10762943D01*
X6669200Y-10391514D02*
X6697771Y-10391514D01*
X6726343Y-10405800D01*
X6740628Y-10420086D01*
X6754914Y-10448657D01*
X6769200Y-10505800D01*
X6769200Y-10577229D01*
X6754914Y-10634372D01*
X6740628Y-10662943D01*
X6726343Y-10677229D01*
X6697771Y-10691514D01*
X6669200Y-10691514D01*
X6640628Y-10677229D01*
X6626343Y-10662943D01*
X6612057Y-10634372D01*
X6597771Y-10577229D01*
X6597771Y-10505800D01*
X6612057Y-10448657D01*
X6626343Y-10420086D01*
X6640628Y-10405800D01*
X6669200Y-10391514D01*
X6897771Y-10662943D02*
X6912057Y-10677229D01*
X6897771Y-10691514D01*
X6883486Y-10677229D01*
X6897771Y-10662943D01*
X6897771Y-10691514D01*
X7097771Y-10391514D02*
X7126343Y-10391514D01*
X7154914Y-10405800D01*
X7169200Y-10420086D01*
X7183486Y-10448657D01*
X7197771Y-10505800D01*
X7197771Y-10577229D01*
X7183486Y-10634372D01*
X7169200Y-10662943D01*
X7154914Y-10677229D01*
X7126343Y-10691514D01*
X7097771Y-10691514D01*
X7069200Y-10677229D01*
X7054914Y-10662943D01*
X7040628Y-10634372D01*
X7026343Y-10577229D01*
X7026343Y-10505800D01*
X7040628Y-10448657D01*
X7054914Y-10420086D01*
X7069200Y-10405800D01*
X7097771Y-10391514D01*
X7297771Y-10391514D02*
X7483486Y-10391514D01*
X7383486Y-10505800D01*
X7426343Y-10505800D01*
X7454914Y-10520086D01*
X7469200Y-10534372D01*
X7483486Y-10562943D01*
X7483486Y-10634372D01*
X7469200Y-10662943D01*
X7454914Y-10677229D01*
X7426343Y-10691514D01*
X7340628Y-10691514D01*
X7312057Y-10677229D01*
X7297771Y-10662943D01*
X7626343Y-10691514D02*
X7683486Y-10691514D01*
X7712057Y-10677229D01*
X7726343Y-10662943D01*
X7754914Y-10620086D01*
X7769200Y-10562943D01*
X7769200Y-10448657D01*
X7754914Y-10420086D01*
X7740628Y-10405800D01*
X7712057Y-10391514D01*
X7654914Y-10391514D01*
X7626343Y-10405800D01*
X7612057Y-10420086D01*
X7597771Y-10448657D01*
X7597771Y-10520086D01*
X7612057Y-10548657D01*
X7626343Y-10562943D01*
X7654914Y-10577229D01*
X7712057Y-10577229D01*
X7740628Y-10562943D01*
X7754914Y-10548657D01*
X7769200Y-10520086D01*
X7883486Y-10391514D02*
X7883486Y-10448657D01*
X7997771Y-10391514D02*
X7997771Y-10448657D01*
X8440628Y-10805800D02*
X8426343Y-10791514D01*
X8397771Y-10748657D01*
X8383486Y-10720086D01*
X8369200Y-10677229D01*
X8354914Y-10605800D01*
X8354914Y-10548657D01*
X8369200Y-10477229D01*
X8383486Y-10434372D01*
X8397771Y-10405800D01*
X8426343Y-10362943D01*
X8440628Y-10348657D01*
X8540628Y-10420086D02*
X8554914Y-10405800D01*
X8583486Y-10391514D01*
X8654914Y-10391514D01*
X8683486Y-10405800D01*
X8697771Y-10420086D01*
X8712057Y-10448657D01*
X8712057Y-10477229D01*
X8697771Y-10520086D01*
X8526343Y-10691514D01*
X8712057Y-10691514D01*
X9069200Y-10691514D02*
X9069200Y-10391514D01*
X9197771Y-10691514D02*
X9197771Y-10534372D01*
X9183486Y-10505800D01*
X9154914Y-10491514D01*
X9112057Y-10491514D01*
X9083486Y-10505800D01*
X9069200Y-10520086D01*
X9383486Y-10691514D02*
X9354914Y-10677229D01*
X9340628Y-10662943D01*
X9326343Y-10634372D01*
X9326343Y-10548657D01*
X9340628Y-10520086D01*
X9354914Y-10505800D01*
X9383486Y-10491514D01*
X9426343Y-10491514D01*
X9454914Y-10505800D01*
X9469200Y-10520086D01*
X9483486Y-10548657D01*
X9483486Y-10634372D01*
X9469200Y-10662943D01*
X9454914Y-10677229D01*
X9426343Y-10691514D01*
X9383486Y-10691514D01*
X9654914Y-10691514D02*
X9626343Y-10677229D01*
X9612057Y-10648657D01*
X9612057Y-10391514D01*
X9883486Y-10677229D02*
X9854914Y-10691514D01*
X9797771Y-10691514D01*
X9769200Y-10677229D01*
X9754914Y-10648657D01*
X9754914Y-10534372D01*
X9769200Y-10505800D01*
X9797771Y-10491514D01*
X9854914Y-10491514D01*
X9883486Y-10505800D01*
X9897771Y-10534372D01*
X9897771Y-10562943D01*
X9754914Y-10591514D01*
X10012057Y-10677229D02*
X10040628Y-10691514D01*
X10097771Y-10691514D01*
X10126343Y-10677229D01*
X10140628Y-10648657D01*
X10140628Y-10634372D01*
X10126343Y-10605800D01*
X10097771Y-10591514D01*
X10054914Y-10591514D01*
X10026343Y-10577229D01*
X10012057Y-10548657D01*
X10012057Y-10534372D01*
X10026343Y-10505800D01*
X10054914Y-10491514D01*
X10097771Y-10491514D01*
X10126343Y-10505800D01*
X10240628Y-10805800D02*
X10254914Y-10791514D01*
X10283486Y-10748657D01*
X10297771Y-10720086D01*
X10312057Y-10677229D01*
X10326343Y-10605800D01*
X10326343Y-10548657D01*
X10312057Y-10477229D01*
X10297771Y-10434372D01*
X10283486Y-10405800D01*
X10254914Y-10362943D01*
X10240628Y-10348657D01*
X3704162Y-10901762D02*
X3704162Y-11001838D01*
X3654124Y-10951800D02*
X3754200Y-10951800D01*
X4197771Y-11087514D02*
X4026343Y-11087514D01*
X4112057Y-11087514D02*
X4112057Y-10787514D01*
X4083486Y-10830372D01*
X4054914Y-10858943D01*
X4026343Y-10873229D01*
X4326343Y-11058943D02*
X4340628Y-11073229D01*
X4326343Y-11087514D01*
X4312057Y-11073229D01*
X4326343Y-11058943D01*
X4326343Y-11087514D01*
X4526343Y-10787514D02*
X4554914Y-10787514D01*
X4583486Y-10801800D01*
X4597771Y-10816086D01*
X4612057Y-10844657D01*
X4626343Y-10901800D01*
X4626343Y-10973229D01*
X4612057Y-11030372D01*
X4597771Y-11058943D01*
X4583486Y-11073229D01*
X4554914Y-11087514D01*
X4526343Y-11087514D01*
X4497771Y-11073229D01*
X4483486Y-11058943D01*
X4469200Y-11030372D01*
X4454914Y-10973229D01*
X4454914Y-10901800D01*
X4469200Y-10844657D01*
X4483486Y-10816086D01*
X4497771Y-10801800D01*
X4526343Y-10787514D01*
X4812057Y-10787514D02*
X4840628Y-10787514D01*
X4869200Y-10801800D01*
X4883486Y-10816086D01*
X4897771Y-10844657D01*
X4912057Y-10901800D01*
X4912057Y-10973229D01*
X4897771Y-11030372D01*
X4883486Y-11058943D01*
X4869200Y-11073229D01*
X4840628Y-11087514D01*
X4812057Y-11087514D01*
X4783486Y-11073229D01*
X4769200Y-11058943D01*
X4754914Y-11030372D01*
X4740628Y-10973229D01*
X4740628Y-10901800D01*
X4754914Y-10844657D01*
X4769200Y-10816086D01*
X4783486Y-10801800D01*
X4812057Y-10787514D01*
X5040628Y-11087514D02*
X5040628Y-10887514D01*
X5040628Y-10916086D02*
X5054914Y-10901800D01*
X5083486Y-10887514D01*
X5126343Y-10887514D01*
X5154914Y-10901800D01*
X5169200Y-10930372D01*
X5169200Y-11087514D01*
X5169200Y-10930372D02*
X5183486Y-10901800D01*
X5212057Y-10887514D01*
X5254914Y-10887514D01*
X5283486Y-10901800D01*
X5297771Y-10930372D01*
X5297771Y-11087514D01*
X5440628Y-11087514D02*
X5440628Y-10887514D01*
X5440628Y-10916086D02*
X5454914Y-10901800D01*
X5483486Y-10887514D01*
X5526343Y-10887514D01*
X5554914Y-10901800D01*
X5569200Y-10930372D01*
X5569200Y-11087514D01*
X5569200Y-10930372D02*
X5583486Y-10901800D01*
X5612057Y-10887514D01*
X5654914Y-10887514D01*
X5683486Y-10901800D01*
X5697771Y-10930372D01*
X5697771Y-11087514D01*
X6283486Y-10773229D02*
X6026343Y-11158943D01*
X6669200Y-10787514D02*
X6697771Y-10787514D01*
X6726343Y-10801800D01*
X6740628Y-10816086D01*
X6754914Y-10844657D01*
X6769200Y-10901800D01*
X6769200Y-10973229D01*
X6754914Y-11030372D01*
X6740628Y-11058943D01*
X6726343Y-11073229D01*
X6697771Y-11087514D01*
X6669200Y-11087514D01*
X6640628Y-11073229D01*
X6626343Y-11058943D01*
X6612057Y-11030372D01*
X6597771Y-10973229D01*
X6597771Y-10901800D01*
X6612057Y-10844657D01*
X6626343Y-10816086D01*
X6640628Y-10801800D01*
X6669200Y-10787514D01*
X6897771Y-11058943D02*
X6912057Y-11073229D01*
X6897771Y-11087514D01*
X6883486Y-11073229D01*
X6897771Y-11058943D01*
X6897771Y-11087514D01*
X7097771Y-10787514D02*
X7126343Y-10787514D01*
X7154914Y-10801800D01*
X7169200Y-10816086D01*
X7183486Y-10844657D01*
X7197771Y-10901800D01*
X7197771Y-10973229D01*
X7183486Y-11030372D01*
X7169200Y-11058943D01*
X7154914Y-11073229D01*
X7126343Y-11087514D01*
X7097771Y-11087514D01*
X7069200Y-11073229D01*
X7054914Y-11058943D01*
X7040628Y-11030372D01*
X7026343Y-10973229D01*
X7026343Y-10901800D01*
X7040628Y-10844657D01*
X7054914Y-10816086D01*
X7069200Y-10801800D01*
X7097771Y-10787514D01*
X7297771Y-10787514D02*
X7483486Y-10787514D01*
X7383486Y-10901800D01*
X7426343Y-10901800D01*
X7454914Y-10916086D01*
X7469200Y-10930372D01*
X7483486Y-10958943D01*
X7483486Y-11030372D01*
X7469200Y-11058943D01*
X7454914Y-11073229D01*
X7426343Y-11087514D01*
X7340628Y-11087514D01*
X7312057Y-11073229D01*
X7297771Y-11058943D01*
X7626343Y-11087514D02*
X7683486Y-11087514D01*
X7712057Y-11073229D01*
X7726343Y-11058943D01*
X7754914Y-11016086D01*
X7769200Y-10958943D01*
X7769200Y-10844657D01*
X7754914Y-10816086D01*
X7740628Y-10801800D01*
X7712057Y-10787514D01*
X7654914Y-10787514D01*
X7626343Y-10801800D01*
X7612057Y-10816086D01*
X7597771Y-10844657D01*
X7597771Y-10916086D01*
X7612057Y-10944657D01*
X7626343Y-10958943D01*
X7654914Y-10973229D01*
X7712057Y-10973229D01*
X7740628Y-10958943D01*
X7754914Y-10944657D01*
X7769200Y-10916086D01*
X7883486Y-10787514D02*
X7883486Y-10844657D01*
X7997771Y-10787514D02*
X7997771Y-10844657D01*
X8440628Y-11201800D02*
X8426343Y-11187514D01*
X8397771Y-11144657D01*
X8383486Y-11116086D01*
X8369200Y-11073229D01*
X8354914Y-11001800D01*
X8354914Y-10944657D01*
X8369200Y-10873229D01*
X8383486Y-10830372D01*
X8397771Y-10801800D01*
X8426343Y-10758943D01*
X8440628Y-10744657D01*
X8540628Y-10816086D02*
X8554914Y-10801800D01*
X8583486Y-10787514D01*
X8654914Y-10787514D01*
X8683486Y-10801800D01*
X8697771Y-10816086D01*
X8712057Y-10844657D01*
X8712057Y-10873229D01*
X8697771Y-10916086D01*
X8526343Y-11087514D01*
X8712057Y-11087514D01*
X9069200Y-11087514D02*
X9069200Y-10787514D01*
X9197771Y-11087514D02*
X9197771Y-10930372D01*
X9183486Y-10901800D01*
X9154914Y-10887514D01*
X9112057Y-10887514D01*
X9083486Y-10901800D01*
X9069200Y-10916086D01*
X9383486Y-11087514D02*
X9354914Y-11073229D01*
X9340628Y-11058943D01*
X9326343Y-11030372D01*
X9326343Y-10944657D01*
X9340628Y-10916086D01*
X9354914Y-10901800D01*
X9383486Y-10887514D01*
X9426343Y-10887514D01*
X9454914Y-10901800D01*
X9469200Y-10916086D01*
X9483486Y-10944657D01*
X9483486Y-11030372D01*
X9469200Y-11058943D01*
X9454914Y-11073229D01*
X9426343Y-11087514D01*
X9383486Y-11087514D01*
X9654914Y-11087514D02*
X9626343Y-11073229D01*
X9612057Y-11044657D01*
X9612057Y-10787514D01*
X9883486Y-11073229D02*
X9854914Y-11087514D01*
X9797771Y-11087514D01*
X9769200Y-11073229D01*
X9754914Y-11044657D01*
X9754914Y-10930372D01*
X9769200Y-10901800D01*
X9797771Y-10887514D01*
X9854914Y-10887514D01*
X9883486Y-10901800D01*
X9897771Y-10930372D01*
X9897771Y-10958943D01*
X9754914Y-10987514D01*
X10012057Y-11073229D02*
X10040628Y-11087514D01*
X10097771Y-11087514D01*
X10126343Y-11073229D01*
X10140628Y-11044657D01*
X10140628Y-11030372D01*
X10126343Y-11001800D01*
X10097771Y-10987514D01*
X10054914Y-10987514D01*
X10026343Y-10973229D01*
X10012057Y-10944657D01*
X10012057Y-10930372D01*
X10026343Y-10901800D01*
X10054914Y-10887514D01*
X10097771Y-10887514D01*
X10126343Y-10901800D01*
X10240628Y-11201800D02*
X10254914Y-11187514D01*
X10283486Y-11144657D01*
X10297771Y-11116086D01*
X10312057Y-11073229D01*
X10326343Y-11001800D01*
X10326343Y-10944657D01*
X10312057Y-10873229D01*
X10297771Y-10830372D01*
X10283486Y-10801800D01*
X10254914Y-10758943D01*
X10240628Y-10744657D01*
X3709564Y-11455564D02*
X3709564Y-11240036D01*
X3494036Y-11240036D01*
X3494036Y-11455564D01*
X3709564Y-11455564D01*
X4012057Y-11183514D02*
X4197771Y-11183514D01*
X4097771Y-11297800D01*
X4140628Y-11297800D01*
X4169200Y-11312086D01*
X4183486Y-11326371D01*
X4197771Y-11354943D01*
X4197771Y-11426371D01*
X4183486Y-11454943D01*
X4169200Y-11469229D01*
X4140628Y-11483514D01*
X4054914Y-11483514D01*
X4026343Y-11469229D01*
X4012057Y-11454943D01*
X4326343Y-11454943D02*
X4340628Y-11469229D01*
X4326343Y-11483514D01*
X4312057Y-11469229D01*
X4326343Y-11454943D01*
X4326343Y-11483514D01*
X4526343Y-11183514D02*
X4554914Y-11183514D01*
X4583486Y-11197800D01*
X4597771Y-11212086D01*
X4612057Y-11240657D01*
X4626343Y-11297800D01*
X4626343Y-11369229D01*
X4612057Y-11426371D01*
X4597771Y-11454943D01*
X4583486Y-11469229D01*
X4554914Y-11483514D01*
X4526343Y-11483514D01*
X4497771Y-11469229D01*
X4483486Y-11454943D01*
X4469200Y-11426371D01*
X4454914Y-11369229D01*
X4454914Y-11297800D01*
X4469200Y-11240657D01*
X4483486Y-11212086D01*
X4497771Y-11197800D01*
X4526343Y-11183514D01*
X4897771Y-11183514D02*
X4754914Y-11183514D01*
X4740628Y-11326371D01*
X4754914Y-11312086D01*
X4783486Y-11297800D01*
X4854914Y-11297800D01*
X4883486Y-11312086D01*
X4897771Y-11326371D01*
X4912057Y-11354943D01*
X4912057Y-11426371D01*
X4897771Y-11454943D01*
X4883486Y-11469229D01*
X4854914Y-11483514D01*
X4783486Y-11483514D01*
X4754914Y-11469229D01*
X4740628Y-11454943D01*
X5040628Y-11483514D02*
X5040628Y-11283514D01*
X5040628Y-11312086D02*
X5054914Y-11297800D01*
X5083486Y-11283514D01*
X5126343Y-11283514D01*
X5154914Y-11297800D01*
X5169200Y-11326371D01*
X5169200Y-11483514D01*
X5169200Y-11326371D02*
X5183486Y-11297800D01*
X5212057Y-11283514D01*
X5254914Y-11283514D01*
X5283486Y-11297800D01*
X5297771Y-11326371D01*
X5297771Y-11483514D01*
X5440628Y-11483514D02*
X5440628Y-11283514D01*
X5440628Y-11312086D02*
X5454914Y-11297800D01*
X5483486Y-11283514D01*
X5526343Y-11283514D01*
X5554914Y-11297800D01*
X5569200Y-11326371D01*
X5569200Y-11483514D01*
X5569200Y-11326371D02*
X5583486Y-11297800D01*
X5612057Y-11283514D01*
X5654914Y-11283514D01*
X5683486Y-11297800D01*
X5697771Y-11326371D01*
X5697771Y-11483514D01*
X6283486Y-11169229D02*
X6026343Y-11554943D01*
X6669200Y-11183514D02*
X6697771Y-11183514D01*
X6726343Y-11197800D01*
X6740628Y-11212086D01*
X6754914Y-11240657D01*
X6769200Y-11297800D01*
X6769200Y-11369229D01*
X6754914Y-11426371D01*
X6740628Y-11454943D01*
X6726343Y-11469229D01*
X6697771Y-11483514D01*
X6669200Y-11483514D01*
X6640628Y-11469229D01*
X6626343Y-11454943D01*
X6612057Y-11426371D01*
X6597771Y-11369229D01*
X6597771Y-11297800D01*
X6612057Y-11240657D01*
X6626343Y-11212086D01*
X6640628Y-11197800D01*
X6669200Y-11183514D01*
X6897771Y-11454943D02*
X6912057Y-11469229D01*
X6897771Y-11483514D01*
X6883486Y-11469229D01*
X6897771Y-11454943D01*
X6897771Y-11483514D01*
X7197771Y-11483514D02*
X7026343Y-11483514D01*
X7112057Y-11483514D02*
X7112057Y-11183514D01*
X7083486Y-11226371D01*
X7054914Y-11254943D01*
X7026343Y-11269229D01*
X7312057Y-11212086D02*
X7326343Y-11197800D01*
X7354914Y-11183514D01*
X7426343Y-11183514D01*
X7454914Y-11197800D01*
X7469200Y-11212086D01*
X7483486Y-11240657D01*
X7483486Y-11269229D01*
X7469200Y-11312086D01*
X7297771Y-11483514D01*
X7483486Y-11483514D01*
X7669200Y-11183514D02*
X7697771Y-11183514D01*
X7726343Y-11197800D01*
X7740628Y-11212086D01*
X7754914Y-11240657D01*
X7769200Y-11297800D01*
X7769200Y-11369229D01*
X7754914Y-11426371D01*
X7740628Y-11454943D01*
X7726343Y-11469229D01*
X7697771Y-11483514D01*
X7669200Y-11483514D01*
X7640628Y-11469229D01*
X7626343Y-11454943D01*
X7612057Y-11426371D01*
X7597771Y-11369229D01*
X7597771Y-11297800D01*
X7612057Y-11240657D01*
X7626343Y-11212086D01*
X7640628Y-11197800D01*
X7669200Y-11183514D01*
X7883486Y-11183514D02*
X7883486Y-11240657D01*
X7997771Y-11183514D02*
X7997771Y-11240657D01*
X8440628Y-11597800D02*
X8426343Y-11583514D01*
X8397771Y-11540657D01*
X8383486Y-11512086D01*
X8369200Y-11469229D01*
X8354914Y-11397800D01*
X8354914Y-11340657D01*
X8369200Y-11269229D01*
X8383486Y-11226371D01*
X8397771Y-11197800D01*
X8426343Y-11154943D01*
X8440628Y-11140657D01*
X8526343Y-11183514D02*
X8712057Y-11183514D01*
X8612057Y-11297800D01*
X8654914Y-11297800D01*
X8683486Y-11312086D01*
X8697771Y-11326371D01*
X8712057Y-11354943D01*
X8712057Y-11426371D01*
X8697771Y-11454943D01*
X8683486Y-11469229D01*
X8654914Y-11483514D01*
X8569200Y-11483514D01*
X8540628Y-11469229D01*
X8526343Y-11454943D01*
X9069200Y-11483514D02*
X9069200Y-11183514D01*
X9197771Y-11483514D02*
X9197771Y-11326371D01*
X9183486Y-11297800D01*
X9154914Y-11283514D01*
X9112057Y-11283514D01*
X9083486Y-11297800D01*
X9069200Y-11312086D01*
X9383486Y-11483514D02*
X9354914Y-11469229D01*
X9340628Y-11454943D01*
X9326343Y-11426371D01*
X9326343Y-11340657D01*
X9340628Y-11312086D01*
X9354914Y-11297800D01*
X9383486Y-11283514D01*
X9426343Y-11283514D01*
X9454914Y-11297800D01*
X9469200Y-11312086D01*
X9483486Y-11340657D01*
X9483486Y-11426371D01*
X9469200Y-11454943D01*
X9454914Y-11469229D01*
X9426343Y-11483514D01*
X9383486Y-11483514D01*
X9654914Y-11483514D02*
X9626343Y-11469229D01*
X9612057Y-11440657D01*
X9612057Y-11183514D01*
X9883486Y-11469229D02*
X9854914Y-11483514D01*
X9797771Y-11483514D01*
X9769200Y-11469229D01*
X9754914Y-11440657D01*
X9754914Y-11326371D01*
X9769200Y-11297800D01*
X9797771Y-11283514D01*
X9854914Y-11283514D01*
X9883486Y-11297800D01*
X9897771Y-11326371D01*
X9897771Y-11354943D01*
X9754914Y-11383514D01*
X10012057Y-11469229D02*
X10040628Y-11483514D01*
X10097771Y-11483514D01*
X10126343Y-11469229D01*
X10140628Y-11440657D01*
X10140628Y-11426371D01*
X10126343Y-11397800D01*
X10097771Y-11383514D01*
X10054914Y-11383514D01*
X10026343Y-11369229D01*
X10012057Y-11340657D01*
X10012057Y-11326371D01*
X10026343Y-11297800D01*
X10054914Y-11283514D01*
X10097771Y-11283514D01*
X10126343Y-11297800D01*
X10240628Y-11597800D02*
X10254914Y-11583514D01*
X10283486Y-11540657D01*
X10297771Y-11512086D01*
X10312057Y-11469229D01*
X10326343Y-11397800D01*
X10326343Y-11340657D01*
X10312057Y-11269229D01*
X10297771Y-11226371D01*
X10283486Y-11197800D01*
X10254914Y-11154943D01*
X10240628Y-11140657D01*
M02*
