G04 #@! TF.GenerationSoftware,KiCad,Pcbnew,(5.1.4)-1*
G04 #@! TF.CreationDate,2019-11-27T15:40:33+01:00*
G04 #@! TF.ProjectId,picoballoon,7069636f-6261-46c6-9c6f-6f6e2e6b6963,rev?*
G04 #@! TF.SameCoordinates,Original*
G04 #@! TF.FileFunction,Copper,L2,Bot*
G04 #@! TF.FilePolarity,Positive*
%FSLAX46Y46*%
G04 Gerber Fmt 4.6, Leading zero omitted, Abs format (unit mm)*
G04 Created by KiCad (PCBNEW (5.1.4)-1) date 2019-11-27 15:40:33*
%MOMM*%
%LPD*%
G04 APERTURE LIST*
%ADD10O,1.700000X1.700000*%
%ADD11R,1.700000X1.700000*%
%ADD12C,2.499360*%
%ADD13R,4.064000X4.064000*%
%ADD14R,0.950000X1.200000*%
%ADD15R,0.500000X0.600000*%
%ADD16C,4.064000*%
%ADD17C,0.600000*%
%ADD18C,1.000000*%
%ADD19C,0.250000*%
%ADD20C,0.254000*%
G04 APERTURE END LIST*
D10*
X41808400Y-34391600D03*
D11*
X41808400Y-36931600D03*
D12*
X49530000Y-67564000D03*
X42164000Y-54991000D03*
D13*
X56438800Y-89141300D03*
D14*
X74154000Y-38215500D03*
X74154000Y-41465500D03*
X74154000Y-44715500D03*
X72404000Y-44715500D03*
X72404000Y-41465500D03*
X72404000Y-38215500D03*
D15*
X74168000Y-46249500D03*
X74168000Y-47349500D03*
D16*
X43561000Y-27876500D03*
X56451500Y-27940000D03*
X69342000Y-27813000D03*
D13*
X48387000Y-89027000D03*
X64427100Y-89014300D03*
D17*
X67150000Y-38350000D03*
X50038000Y-62230000D03*
X44860000Y-65010000D03*
X45278998Y-65532000D03*
X44958000Y-66167000D03*
X45593000Y-66548000D03*
X40716200Y-67564000D03*
X41427400Y-67589400D03*
X42138600Y-67602100D03*
X40652700Y-57975500D03*
X41427400Y-57899300D03*
X42113200Y-57912000D03*
X43688000Y-51308000D03*
X43688000Y-52070000D03*
X43688000Y-52832000D03*
X43688000Y-53721000D03*
X43815000Y-55245000D03*
X43815000Y-56007000D03*
X43815000Y-56769000D03*
X43815000Y-57658000D03*
X45120000Y-58910000D03*
X45100000Y-59560000D03*
X45100000Y-60270000D03*
X52312000Y-53987000D03*
X57531000Y-46482000D03*
X53201000Y-48780000D03*
X61214000Y-60198000D03*
X67056000Y-50673000D03*
X56134000Y-58674000D03*
X40850000Y-79000000D03*
X46736000Y-71475600D03*
X49657000Y-76428600D03*
X66802000Y-47752000D03*
X68199000Y-46101000D03*
X55448200Y-86436200D03*
X55499000Y-85826600D03*
X55499000Y-85217000D03*
X55490000Y-84650000D03*
X55499000Y-84074000D03*
X55499000Y-83439000D03*
X55499000Y-82804000D03*
X55499000Y-82169000D03*
X55499000Y-81534000D03*
X55550000Y-80910000D03*
X56180000Y-80950000D03*
X56820000Y-80950000D03*
X57440000Y-81250000D03*
X57531000Y-82042000D03*
X57531000Y-82677000D03*
X57531000Y-83312000D03*
X57531000Y-83947000D03*
X57790000Y-84530000D03*
X57531000Y-85090000D03*
X57860000Y-85610000D03*
X57550000Y-86160000D03*
X58140000Y-86487000D03*
X58801000Y-86487000D03*
X59120000Y-87010000D03*
X59120000Y-87630000D03*
X59120000Y-88240000D03*
X59120000Y-88850000D03*
X59110000Y-89460000D03*
X59110000Y-90070000D03*
X59100000Y-90680000D03*
X59510000Y-91150000D03*
X54838600Y-86480000D03*
X54230000Y-86500000D03*
X53600000Y-86330000D03*
X53650000Y-87000000D03*
X53640000Y-87600000D03*
X53640000Y-88200000D03*
X53640000Y-88810000D03*
X53630000Y-89420000D03*
X53630000Y-90040000D03*
X53590000Y-90650000D03*
X61595000Y-90043000D03*
X61468000Y-88900000D03*
X61976000Y-87249000D03*
X63246000Y-85979000D03*
X66167000Y-85852000D03*
X67437000Y-86868000D03*
X67945000Y-89662000D03*
X45974000Y-85852000D03*
X44704000Y-89027000D03*
X45212000Y-90805000D03*
X45212000Y-87503000D03*
X48387000Y-85852000D03*
X51054000Y-85344000D03*
X51308000Y-87630000D03*
X51308000Y-90424000D03*
X51943000Y-88011000D03*
X43815000Y-87503000D03*
X40767000Y-80645000D03*
X45085000Y-80137000D03*
X49276000Y-80391000D03*
X53140000Y-80480000D03*
X58928000Y-79883000D03*
X40767000Y-84836000D03*
X72009000Y-90424000D03*
X72136000Y-85217000D03*
X67564000Y-84709000D03*
X71501000Y-88011000D03*
X44779500Y-44628500D03*
X43878500Y-41465500D03*
X71602600Y-38214300D03*
X70560000Y-39640000D03*
X70570000Y-40290000D03*
X70540000Y-40940000D03*
X70530000Y-41610000D03*
X70530000Y-42270000D03*
X70520000Y-42890000D03*
X70510000Y-43590000D03*
X70540000Y-44230000D03*
X70510000Y-44950000D03*
X70530000Y-45630000D03*
X70570000Y-46410000D03*
X71160000Y-46650000D03*
X71860000Y-46680000D03*
X72570000Y-46660000D03*
X73150000Y-46730000D03*
X73030000Y-47330000D03*
X73560000Y-47720000D03*
X74140000Y-47870000D03*
X70750000Y-36450000D03*
X71500000Y-36300000D03*
X72150000Y-36300000D03*
X72800000Y-36280000D03*
X74600000Y-36250000D03*
X73950000Y-36250000D03*
X73400000Y-36240000D03*
X69950000Y-39650000D03*
X69350000Y-39800000D03*
X68750000Y-40000000D03*
X68150000Y-40200000D03*
X67550000Y-40400000D03*
X66950000Y-40650000D03*
X66350000Y-40800000D03*
X65650000Y-40850000D03*
X65000000Y-40950000D03*
X64350000Y-40950000D03*
X63750000Y-41000000D03*
X63150000Y-41000000D03*
X62600000Y-41300000D03*
X62200000Y-41750000D03*
X61750000Y-42200000D03*
X61250000Y-42650000D03*
X60700000Y-43050000D03*
X60100000Y-43100000D03*
X59450000Y-43100000D03*
X59450000Y-41000000D03*
X60050000Y-40900000D03*
X60500000Y-40400000D03*
X60950000Y-39950000D03*
X61400000Y-39500000D03*
X61850000Y-39050000D03*
X62500000Y-38850000D03*
X63050000Y-38850000D03*
X63200000Y-38250000D03*
X63200000Y-37650000D03*
X63200000Y-37050000D03*
X65350000Y-38750000D03*
X65950000Y-38700000D03*
X66550000Y-38550000D03*
X67750000Y-38200000D03*
X68350000Y-38000000D03*
X68950000Y-37850000D03*
X69550000Y-37750000D03*
X70150000Y-37600000D03*
X70600000Y-37150000D03*
X63200000Y-36450000D03*
X63200000Y-35850000D03*
X65300000Y-35750000D03*
X65300000Y-36350000D03*
X65300000Y-36950000D03*
X65300000Y-37550000D03*
X65300000Y-38150000D03*
X61050000Y-34750000D03*
X61050000Y-33700000D03*
X61100000Y-32150000D03*
X62550000Y-31750000D03*
X64250000Y-31800000D03*
X65800000Y-31800000D03*
X67250000Y-31900000D03*
X67600000Y-33450000D03*
X67400000Y-35200000D03*
X66350000Y-35600000D03*
X64250000Y-34000000D03*
X64250000Y-33050000D03*
X63200000Y-35050000D03*
X65300000Y-34900000D03*
X56286400Y-42672000D03*
X46532800Y-34277300D03*
X49834800Y-34251900D03*
X39600000Y-34200000D03*
X41950000Y-31650000D03*
X38900000Y-24300000D03*
X50650000Y-27800000D03*
X63550000Y-28050000D03*
X62950000Y-24400000D03*
X49500000Y-24150000D03*
X72950000Y-24250000D03*
X73500000Y-32650000D03*
X48650000Y-31200000D03*
X55550000Y-32050000D03*
X54600000Y-38300000D03*
X52750000Y-36000000D03*
X54050000Y-34700000D03*
X59600000Y-31100000D03*
X39150000Y-30200000D03*
X41750000Y-23400000D03*
X64500000Y-43400000D03*
X68400000Y-42800000D03*
X69350000Y-46750000D03*
X72400000Y-48450000D03*
X74000000Y-51700000D03*
X73300000Y-54900000D03*
X74200000Y-57800000D03*
X72550000Y-60500000D03*
X73650000Y-63450000D03*
X72700000Y-65250000D03*
X70450000Y-64600000D03*
X70600000Y-68750000D03*
X73200000Y-70300000D03*
X73850000Y-73150000D03*
X74000000Y-68050000D03*
X70900000Y-72800000D03*
X73900000Y-76150000D03*
X72350000Y-75500000D03*
X70950000Y-77900000D03*
X72300000Y-80900000D03*
X74000000Y-82500000D03*
X73950000Y-89250000D03*
X46500000Y-83100000D03*
X50200000Y-83050000D03*
X41200000Y-89100000D03*
X42750000Y-85000000D03*
X39400000Y-87550000D03*
X44900000Y-68300000D03*
X39450000Y-68250000D03*
X43434000Y-63687002D03*
X39700000Y-55800000D03*
X40050000Y-52000000D03*
X42050000Y-52000000D03*
X38709600Y-76225400D03*
X38735000Y-72301100D03*
X38709600Y-69938900D03*
X41884600Y-68656200D03*
X39395400Y-83032600D03*
X43611800Y-82486500D03*
X56222900Y-42062400D03*
X56248300Y-41465500D03*
X56730900Y-40995600D03*
X56476900Y-68262500D03*
X45571858Y-61694698D03*
X48133000Y-64262000D03*
X43688000Y-62230000D03*
X41656000Y-64008000D03*
X60134500Y-60833000D03*
X52705000Y-57023000D03*
X56616600Y-60833000D03*
X46291500Y-63766700D03*
X50939700Y-75145900D03*
X67564000Y-51308000D03*
X62865000Y-50800000D03*
X69088000Y-49276000D03*
X65405000Y-47879000D03*
X67183000Y-54864000D03*
X67150977Y-53074216D03*
X62340000Y-52050000D03*
X60860000Y-51450000D03*
X57190000Y-51440000D03*
X55120000Y-45500000D03*
X50190000Y-40790000D03*
X44720000Y-37330000D03*
X45974000Y-48212500D03*
X41973500Y-49212500D03*
X51054000Y-49085500D03*
X59626500Y-56134000D03*
X60350400Y-47548800D03*
X59639200Y-55219600D03*
X59375506Y-47426437D03*
X58724800Y-55168800D03*
X53975000Y-47434500D03*
X57721500Y-54215000D03*
X58562258Y-64068942D03*
X61268261Y-64819151D03*
X58267600Y-62890400D03*
X63957200Y-57759600D03*
X65024000Y-62194001D03*
X62611000Y-68961000D03*
X50927000Y-70840600D03*
X52705000Y-71221600D03*
X65532000Y-68834000D03*
X66294000Y-62357000D03*
X64653000Y-60833000D03*
X66421000Y-54215000D03*
X66421000Y-52449216D03*
X65786000Y-63119285D03*
X65786000Y-64516000D03*
D18*
X72404000Y-38215500D02*
X74154000Y-38215500D01*
X72269200Y-38215500D02*
X71640700Y-38215500D01*
X71775500Y-38215500D02*
X71770000Y-38210000D01*
X72580000Y-38215500D02*
X72580000Y-36615500D01*
X72580000Y-36615500D02*
X72580000Y-36260000D01*
X72580000Y-36260000D02*
X72580000Y-36260000D01*
X72580000Y-36260000D02*
X72580000Y-34190000D01*
D19*
X45571858Y-61694698D02*
X48133000Y-64255840D01*
X48133000Y-64255840D02*
X48133000Y-64262000D01*
X43688000Y-62230000D02*
X41910000Y-64008000D01*
X41910000Y-64008000D02*
X41656000Y-64008000D01*
X56515000Y-60833000D02*
X52705000Y-57023000D01*
X60134500Y-60833000D02*
X56616600Y-60833000D01*
X56616600Y-60833000D02*
X56515000Y-60833000D01*
D18*
X50939700Y-74199298D02*
X50939700Y-75145900D01*
X47132999Y-70392597D02*
X50939700Y-74199298D01*
X46291500Y-63766700D02*
X47132999Y-64608199D01*
X47132999Y-64608199D02*
X47132999Y-70392597D01*
D19*
X65913000Y-50800000D02*
X62865000Y-50800000D01*
X67564000Y-51308000D02*
X66421000Y-51308000D01*
X66421000Y-51308000D02*
X65913000Y-50800000D01*
X69088000Y-49276000D02*
X66802000Y-49276000D01*
X66802000Y-49276000D02*
X65405000Y-47879000D01*
X67183000Y-54864000D02*
X67183000Y-53106239D01*
X67183000Y-53106239D02*
X67150977Y-53074216D01*
X62340000Y-52050000D02*
X61460000Y-52050000D01*
X61460000Y-52050000D02*
X60860000Y-51450000D01*
X57190000Y-51440000D02*
X55120000Y-49370000D01*
X55120000Y-49370000D02*
X55120000Y-45500000D01*
X50190000Y-40790000D02*
X48180000Y-40790000D01*
X48180000Y-40790000D02*
X44720000Y-37330000D01*
X45974000Y-48212500D02*
X44974000Y-49212500D01*
X44974000Y-49212500D02*
X41973500Y-49212500D01*
X58526764Y-56134000D02*
X59626500Y-56134000D01*
X51054000Y-49085500D02*
X51478264Y-49085500D01*
X51478264Y-49085500D02*
X58526764Y-56134000D01*
X60350400Y-47548800D02*
X59639200Y-48260000D01*
X59639200Y-48260000D02*
X59639200Y-55219600D01*
X59375506Y-47426437D02*
X58724800Y-48077143D01*
X58724800Y-48077143D02*
X58724800Y-55168800D01*
X53975000Y-47434500D02*
X53975000Y-50419000D01*
X53975000Y-50419000D02*
X57721500Y-54165500D01*
X57721500Y-54165500D02*
X57721500Y-54215000D01*
X58562258Y-64068942D02*
X59312467Y-64819151D01*
X59312467Y-64819151D02*
X61268261Y-64819151D01*
X63957200Y-58379802D02*
X63957200Y-57759600D01*
X58267600Y-62890400D02*
X59446602Y-62890400D01*
X59446602Y-62890400D02*
X63957200Y-58379802D01*
X64724001Y-66847999D02*
X62611000Y-68961000D01*
X65024000Y-62194001D02*
X64724001Y-62494000D01*
X64724001Y-62494000D02*
X64724001Y-66847999D01*
X50927000Y-70840600D02*
X52324000Y-70840600D01*
X52324000Y-70840600D02*
X52705000Y-71221600D01*
X66714733Y-62777733D02*
X66294000Y-62357000D01*
X65532000Y-68834000D02*
X66714733Y-67651267D01*
X66714733Y-67651267D02*
X66714733Y-62777733D01*
X64770000Y-60833000D02*
X66294000Y-62357000D01*
X64653000Y-60833000D02*
X64770000Y-60833000D01*
X66421000Y-54215000D02*
X66421000Y-52449216D01*
X65786000Y-63119285D02*
X65786000Y-64516000D01*
D18*
X74168000Y-44729500D02*
X74154000Y-44715500D01*
X74168000Y-46249500D02*
X74168000Y-44729500D01*
X74180700Y-44844950D02*
X74180700Y-43679050D01*
D20*
G36*
X74753000Y-36521870D02*
G01*
X70914327Y-36512000D01*
X70889404Y-36514404D01*
X70865569Y-36521597D01*
X70843596Y-36533301D01*
X70824328Y-36549067D01*
X70808506Y-36568289D01*
X70796738Y-36590229D01*
X70789476Y-36614043D01*
X70787000Y-36638816D01*
X70773000Y-46289816D01*
X70775257Y-46313836D01*
X70782304Y-46337714D01*
X70793874Y-46359758D01*
X70809522Y-46379122D01*
X70828648Y-46395061D01*
X70850515Y-46406963D01*
X70874284Y-46414369D01*
X70899042Y-46416996D01*
X73303673Y-46435144D01*
X73350125Y-46588274D01*
X73427329Y-46732713D01*
X73433007Y-47286302D01*
X73435288Y-47308998D01*
X73442366Y-47332867D01*
X73453964Y-47354896D01*
X73469638Y-47374240D01*
X73488784Y-47390154D01*
X73510667Y-47402027D01*
X73534446Y-47409402D01*
X73559206Y-47411998D01*
X74753000Y-47419459D01*
X74753001Y-91517000D01*
X58646267Y-91517000D01*
X58661084Y-91263253D01*
X58658933Y-91231445D01*
X58651777Y-91207600D01*
X58640107Y-91185608D01*
X58624370Y-91166316D01*
X58605172Y-91150464D01*
X58583251Y-91138663D01*
X58559448Y-91131365D01*
X58534679Y-91128851D01*
X54280179Y-91116151D01*
X54246384Y-91120625D01*
X54223123Y-91129498D01*
X54202039Y-91142739D01*
X54183944Y-91159839D01*
X54169533Y-91180140D01*
X54144133Y-91224590D01*
X54134342Y-91246186D01*
X54128570Y-91270404D01*
X54127633Y-91295283D01*
X54141070Y-91517000D01*
X38023000Y-91517000D01*
X38023000Y-63940927D01*
X40975000Y-63940927D01*
X40975000Y-64075073D01*
X41001171Y-64206640D01*
X41052506Y-64330574D01*
X41127033Y-64442112D01*
X41221888Y-64536967D01*
X41333426Y-64611494D01*
X41457360Y-64662829D01*
X41588927Y-64689000D01*
X41723073Y-64689000D01*
X41854640Y-64662829D01*
X41978574Y-64611494D01*
X42090112Y-64536967D01*
X42184967Y-64442112D01*
X42192642Y-64430625D01*
X42269527Y-64367527D01*
X42285376Y-64348215D01*
X43722592Y-62911000D01*
X43755073Y-62911000D01*
X43886640Y-62884829D01*
X44010574Y-62833494D01*
X44122112Y-62758967D01*
X44216967Y-62664112D01*
X44291494Y-62552574D01*
X44342829Y-62428640D01*
X44369000Y-62297073D01*
X44369000Y-62162927D01*
X44342829Y-62031360D01*
X44291494Y-61907426D01*
X44216967Y-61795888D01*
X44122112Y-61701033D01*
X44012249Y-61627625D01*
X44890858Y-61627625D01*
X44890858Y-61761771D01*
X44917029Y-61893338D01*
X44968364Y-62017272D01*
X45042891Y-62128810D01*
X45137746Y-62223665D01*
X45249284Y-62298192D01*
X45373218Y-62349527D01*
X45504785Y-62375698D01*
X45537267Y-62375698D01*
X46073698Y-62912129D01*
X45952726Y-62948825D01*
X45799675Y-63030632D01*
X45665526Y-63140726D01*
X45555432Y-63274875D01*
X45473625Y-63427926D01*
X45423249Y-63593995D01*
X45406238Y-63766700D01*
X45423249Y-63939405D01*
X45473625Y-64105474D01*
X45555432Y-64258525D01*
X45637941Y-64359062D01*
X46251999Y-64973121D01*
X46252000Y-70349317D01*
X46247737Y-70392597D01*
X46262315Y-70540600D01*
X46264748Y-70565303D01*
X46280030Y-70615679D01*
X46315124Y-70731371D01*
X46396931Y-70884422D01*
X46442373Y-70939793D01*
X46507025Y-71018572D01*
X46540639Y-71046158D01*
X50058700Y-74564220D01*
X50058701Y-75189173D01*
X50071449Y-75318606D01*
X50121826Y-75484675D01*
X50203633Y-75637725D01*
X50313726Y-75771875D01*
X50447876Y-75881968D01*
X50600926Y-75963775D01*
X50766995Y-76014152D01*
X50939700Y-76031162D01*
X51112406Y-76014152D01*
X51278475Y-75963775D01*
X51431525Y-75881968D01*
X51565675Y-75771875D01*
X51675768Y-75637725D01*
X51757575Y-75484675D01*
X51807952Y-75318606D01*
X51820700Y-75189173D01*
X51820700Y-74242567D01*
X51824962Y-74199297D01*
X51820700Y-74156025D01*
X51807952Y-74026592D01*
X51757575Y-73860523D01*
X51675769Y-73707474D01*
X51675768Y-73707472D01*
X51593259Y-73606935D01*
X51565675Y-73573323D01*
X51532062Y-73545738D01*
X48759851Y-70773527D01*
X50246000Y-70773527D01*
X50246000Y-70907673D01*
X50272171Y-71039240D01*
X50323506Y-71163174D01*
X50398033Y-71274712D01*
X50492888Y-71369567D01*
X50604426Y-71444094D01*
X50728360Y-71495429D01*
X50859927Y-71521600D01*
X50994073Y-71521600D01*
X51125640Y-71495429D01*
X51249574Y-71444094D01*
X51361112Y-71369567D01*
X51384079Y-71346600D01*
X52035523Y-71346600D01*
X52050171Y-71420240D01*
X52101506Y-71544174D01*
X52176033Y-71655712D01*
X52270888Y-71750567D01*
X52382426Y-71825094D01*
X52506360Y-71876429D01*
X52637927Y-71902600D01*
X52772073Y-71902600D01*
X52903640Y-71876429D01*
X53027574Y-71825094D01*
X53139112Y-71750567D01*
X53233967Y-71655712D01*
X53308494Y-71544174D01*
X53359829Y-71420240D01*
X53386000Y-71288673D01*
X53386000Y-71154527D01*
X53359829Y-71022960D01*
X53308494Y-70899026D01*
X53233967Y-70787488D01*
X53139112Y-70692633D01*
X53027574Y-70618106D01*
X52903640Y-70566771D01*
X52772073Y-70540600D01*
X52739591Y-70540600D01*
X52699376Y-70500385D01*
X52683527Y-70481073D01*
X52606479Y-70417841D01*
X52518575Y-70370855D01*
X52423193Y-70341922D01*
X52348854Y-70334600D01*
X52348846Y-70334600D01*
X52324000Y-70332153D01*
X52299154Y-70334600D01*
X51384079Y-70334600D01*
X51361112Y-70311633D01*
X51249574Y-70237106D01*
X51125640Y-70185771D01*
X50994073Y-70159600D01*
X50859927Y-70159600D01*
X50728360Y-70185771D01*
X50604426Y-70237106D01*
X50492888Y-70311633D01*
X50398033Y-70406488D01*
X50323506Y-70518026D01*
X50272171Y-70641960D01*
X50246000Y-70773527D01*
X48759851Y-70773527D01*
X48013999Y-70027676D01*
X48013999Y-68673078D01*
X48072288Y-68760313D01*
X48333687Y-69021712D01*
X48641059Y-69227092D01*
X48982593Y-69368560D01*
X49345163Y-69440680D01*
X49714837Y-69440680D01*
X50077407Y-69368560D01*
X50418941Y-69227092D01*
X50726313Y-69021712D01*
X50854098Y-68893927D01*
X61930000Y-68893927D01*
X61930000Y-69028073D01*
X61956171Y-69159640D01*
X62007506Y-69283574D01*
X62082033Y-69395112D01*
X62176888Y-69489967D01*
X62288426Y-69564494D01*
X62412360Y-69615829D01*
X62543927Y-69642000D01*
X62678073Y-69642000D01*
X62809640Y-69615829D01*
X62933574Y-69564494D01*
X63045112Y-69489967D01*
X63101828Y-69433251D01*
X64987386Y-69244695D01*
X65003033Y-69268112D01*
X65097888Y-69362967D01*
X65209426Y-69437494D01*
X65333360Y-69488829D01*
X65464927Y-69515000D01*
X65599073Y-69515000D01*
X65730640Y-69488829D01*
X65854574Y-69437494D01*
X65966112Y-69362967D01*
X66060967Y-69268112D01*
X66135494Y-69156574D01*
X66186829Y-69032640D01*
X66213000Y-68901073D01*
X66213000Y-68868591D01*
X67054953Y-68026639D01*
X67074260Y-68010794D01*
X67137492Y-67933746D01*
X67184478Y-67845842D01*
X67213411Y-67750460D01*
X67220733Y-67676121D01*
X67220733Y-67676114D01*
X67223180Y-67651268D01*
X67220733Y-67626422D01*
X67220733Y-62802578D01*
X67223180Y-62777732D01*
X67220733Y-62752886D01*
X67220733Y-62752879D01*
X67213411Y-62678540D01*
X67209035Y-62664112D01*
X67201562Y-62639478D01*
X67184478Y-62583158D01*
X67137492Y-62495254D01*
X67074260Y-62418206D01*
X67054953Y-62402361D01*
X66975000Y-62322408D01*
X66975000Y-62289927D01*
X66948829Y-62158360D01*
X66897494Y-62034426D01*
X66822967Y-61922888D01*
X66728112Y-61828033D01*
X66616574Y-61753506D01*
X66492640Y-61702171D01*
X66361073Y-61676000D01*
X66328592Y-61676000D01*
X65313013Y-60660422D01*
X65307829Y-60634360D01*
X65256494Y-60510426D01*
X65181967Y-60398888D01*
X65087112Y-60304033D01*
X64975574Y-60229506D01*
X64851640Y-60178171D01*
X64720073Y-60152000D01*
X64585927Y-60152000D01*
X64454360Y-60178171D01*
X64330426Y-60229506D01*
X64218888Y-60304033D01*
X64124033Y-60398888D01*
X64049506Y-60510426D01*
X63998171Y-60634360D01*
X63972000Y-60765927D01*
X63972000Y-60900073D01*
X63998171Y-61031640D01*
X64049506Y-61155574D01*
X64124033Y-61267112D01*
X64218888Y-61361967D01*
X64330426Y-61436494D01*
X64454360Y-61487829D01*
X64585927Y-61514000D01*
X64720073Y-61514000D01*
X64732864Y-61511456D01*
X64779554Y-61558145D01*
X64701426Y-61590507D01*
X64589888Y-61665034D01*
X64495033Y-61759889D01*
X64420506Y-61871427D01*
X64369171Y-61995361D01*
X64343000Y-62126928D01*
X64343000Y-62160639D01*
X64301242Y-62211521D01*
X64254256Y-62299426D01*
X64225323Y-62394808D01*
X64218001Y-62469147D01*
X64218001Y-62469154D01*
X64215554Y-62494000D01*
X64218001Y-62518846D01*
X64218002Y-66638406D01*
X62576409Y-68280000D01*
X62543927Y-68280000D01*
X62412360Y-68306171D01*
X62288426Y-68357506D01*
X62176888Y-68432033D01*
X62082033Y-68526888D01*
X62007506Y-68638426D01*
X61956171Y-68762360D01*
X61930000Y-68893927D01*
X50854098Y-68893927D01*
X50987712Y-68760313D01*
X51193092Y-68452941D01*
X51334560Y-68111407D01*
X51406680Y-67748837D01*
X51406680Y-67379163D01*
X51334560Y-67016593D01*
X51193092Y-66675059D01*
X50987712Y-66367687D01*
X50726313Y-66106288D01*
X50418941Y-65900908D01*
X50077407Y-65759440D01*
X49714837Y-65687320D01*
X49345163Y-65687320D01*
X48982593Y-65759440D01*
X48641059Y-65900908D01*
X48333687Y-66106288D01*
X48072288Y-66367687D01*
X48013999Y-66454922D01*
X48013999Y-64932671D01*
X48065927Y-64943000D01*
X48200073Y-64943000D01*
X48331640Y-64916829D01*
X48455574Y-64865494D01*
X48567112Y-64790967D01*
X48661967Y-64696112D01*
X48736494Y-64584574D01*
X48787829Y-64460640D01*
X48814000Y-64329073D01*
X48814000Y-64194927D01*
X48787829Y-64063360D01*
X48736494Y-63939426D01*
X48661967Y-63827888D01*
X48567112Y-63733033D01*
X48455574Y-63658506D01*
X48331640Y-63607171D01*
X48200073Y-63581000D01*
X48173752Y-63581000D01*
X46252858Y-61660107D01*
X46252858Y-61627625D01*
X46226687Y-61496058D01*
X46175352Y-61372124D01*
X46100825Y-61260586D01*
X46005970Y-61165731D01*
X45894432Y-61091204D01*
X45770498Y-61039869D01*
X45638931Y-61013698D01*
X45504785Y-61013698D01*
X45373218Y-61039869D01*
X45249284Y-61091204D01*
X45137746Y-61165731D01*
X45042891Y-61260586D01*
X44968364Y-61372124D01*
X44917029Y-61496058D01*
X44890858Y-61627625D01*
X44012249Y-61627625D01*
X44010574Y-61626506D01*
X43886640Y-61575171D01*
X43755073Y-61549000D01*
X43620927Y-61549000D01*
X43489360Y-61575171D01*
X43365426Y-61626506D01*
X43253888Y-61701033D01*
X43159033Y-61795888D01*
X43084506Y-61907426D01*
X43033171Y-62031360D01*
X43007000Y-62162927D01*
X43007000Y-62195408D01*
X41850134Y-63352275D01*
X41723073Y-63327000D01*
X41588927Y-63327000D01*
X41457360Y-63353171D01*
X41333426Y-63404506D01*
X41221888Y-63479033D01*
X41127033Y-63573888D01*
X41052506Y-63685426D01*
X41001171Y-63809360D01*
X40975000Y-63940927D01*
X38023000Y-63940927D01*
X38023000Y-56955927D01*
X52024000Y-56955927D01*
X52024000Y-57090073D01*
X52050171Y-57221640D01*
X52101506Y-57345574D01*
X52176033Y-57457112D01*
X52270888Y-57551967D01*
X52382426Y-57626494D01*
X52506360Y-57677829D01*
X52637927Y-57704000D01*
X52670409Y-57704000D01*
X55952763Y-60986355D01*
X55961771Y-61031640D01*
X56013106Y-61155574D01*
X56087633Y-61267112D01*
X56182488Y-61361967D01*
X56294026Y-61436494D01*
X56417960Y-61487829D01*
X56549527Y-61514000D01*
X56683673Y-61514000D01*
X56815240Y-61487829D01*
X56939174Y-61436494D01*
X57050712Y-61361967D01*
X57073679Y-61339000D01*
X59677421Y-61339000D01*
X59700388Y-61361967D01*
X59811926Y-61436494D01*
X59935860Y-61487829D01*
X60067427Y-61514000D01*
X60107411Y-61514000D01*
X59237011Y-62384400D01*
X58724679Y-62384400D01*
X58701712Y-62361433D01*
X58590174Y-62286906D01*
X58466240Y-62235571D01*
X58334673Y-62209400D01*
X58200527Y-62209400D01*
X58068960Y-62235571D01*
X57945026Y-62286906D01*
X57833488Y-62361433D01*
X57738633Y-62456288D01*
X57664106Y-62567826D01*
X57612771Y-62691760D01*
X57586600Y-62823327D01*
X57586600Y-62957473D01*
X57612771Y-63089040D01*
X57664106Y-63212974D01*
X57738633Y-63324512D01*
X57833488Y-63419367D01*
X57945026Y-63493894D01*
X58068960Y-63545229D01*
X58113944Y-63554177D01*
X58033291Y-63634830D01*
X57958764Y-63746368D01*
X57907429Y-63870302D01*
X57881258Y-64001869D01*
X57881258Y-64136015D01*
X57907429Y-64267582D01*
X57958764Y-64391516D01*
X58033291Y-64503054D01*
X58128146Y-64597909D01*
X58239684Y-64672436D01*
X58363618Y-64723771D01*
X58495185Y-64749942D01*
X58527667Y-64749942D01*
X58937095Y-65159371D01*
X58952940Y-65178678D01*
X59029988Y-65241910D01*
X59117892Y-65288896D01*
X59213274Y-65317829D01*
X59312467Y-65327599D01*
X59337321Y-65325151D01*
X60811182Y-65325151D01*
X60834149Y-65348118D01*
X60945687Y-65422645D01*
X61069621Y-65473980D01*
X61201188Y-65500151D01*
X61335334Y-65500151D01*
X61466901Y-65473980D01*
X61590835Y-65422645D01*
X61702373Y-65348118D01*
X61797228Y-65253263D01*
X61871755Y-65141725D01*
X61923090Y-65017791D01*
X61949261Y-64886224D01*
X61949261Y-64752078D01*
X61923090Y-64620511D01*
X61871755Y-64496577D01*
X61797228Y-64385039D01*
X61702373Y-64290184D01*
X61590835Y-64215657D01*
X61466901Y-64164322D01*
X61335334Y-64138151D01*
X61201188Y-64138151D01*
X61069621Y-64164322D01*
X60945687Y-64215657D01*
X60834149Y-64290184D01*
X60811182Y-64313151D01*
X59522059Y-64313151D01*
X59243258Y-64034351D01*
X59243258Y-64001869D01*
X59217087Y-63870302D01*
X59165752Y-63746368D01*
X59091225Y-63634830D01*
X58996370Y-63539975D01*
X58884832Y-63465448D01*
X58760898Y-63414113D01*
X58715914Y-63405165D01*
X58724679Y-63396400D01*
X59421756Y-63396400D01*
X59446602Y-63398847D01*
X59471448Y-63396400D01*
X59471456Y-63396400D01*
X59545795Y-63389078D01*
X59641177Y-63360145D01*
X59729081Y-63313159D01*
X59806129Y-63249927D01*
X59821978Y-63230615D01*
X64297420Y-58755174D01*
X64316727Y-58739329D01*
X64379959Y-58662281D01*
X64426945Y-58574377D01*
X64455878Y-58478995D01*
X64463200Y-58404656D01*
X64463200Y-58404655D01*
X64465648Y-58379802D01*
X64463200Y-58354948D01*
X64463200Y-58216679D01*
X64486167Y-58193712D01*
X64560694Y-58082174D01*
X64612029Y-57958240D01*
X64638200Y-57826673D01*
X64638200Y-57692527D01*
X64612029Y-57560960D01*
X64560694Y-57437026D01*
X64486167Y-57325488D01*
X64391312Y-57230633D01*
X64279774Y-57156106D01*
X64155840Y-57104771D01*
X64024273Y-57078600D01*
X63890127Y-57078600D01*
X63758560Y-57104771D01*
X63634626Y-57156106D01*
X63523088Y-57230633D01*
X63428233Y-57325488D01*
X63353706Y-57437026D01*
X63302371Y-57560960D01*
X63276200Y-57692527D01*
X63276200Y-57826673D01*
X63302371Y-57958240D01*
X63353706Y-58082174D01*
X63428019Y-58193391D01*
X60815500Y-60805911D01*
X60815500Y-60765927D01*
X60789329Y-60634360D01*
X60737994Y-60510426D01*
X60663467Y-60398888D01*
X60568612Y-60304033D01*
X60457074Y-60229506D01*
X60333140Y-60178171D01*
X60201573Y-60152000D01*
X60067427Y-60152000D01*
X59935860Y-60178171D01*
X59811926Y-60229506D01*
X59700388Y-60304033D01*
X59677421Y-60327000D01*
X57073679Y-60327000D01*
X57050712Y-60304033D01*
X56939174Y-60229506D01*
X56815240Y-60178171D01*
X56683673Y-60152000D01*
X56549592Y-60152000D01*
X53386000Y-56988409D01*
X53386000Y-56955927D01*
X53359829Y-56824360D01*
X53308494Y-56700426D01*
X53233967Y-56588888D01*
X53139112Y-56494033D01*
X53027574Y-56419506D01*
X52903640Y-56368171D01*
X52772073Y-56342000D01*
X52637927Y-56342000D01*
X52506360Y-56368171D01*
X52382426Y-56419506D01*
X52270888Y-56494033D01*
X52176033Y-56588888D01*
X52101506Y-56700426D01*
X52050171Y-56824360D01*
X52024000Y-56955927D01*
X38023000Y-56955927D01*
X38023000Y-56304377D01*
X41030229Y-56304377D01*
X41156104Y-56594315D01*
X41488262Y-56760139D01*
X41846387Y-56857975D01*
X42216719Y-56884065D01*
X42585025Y-56837405D01*
X42937151Y-56719789D01*
X43171896Y-56594315D01*
X43297771Y-56304377D01*
X42164000Y-55170605D01*
X41030229Y-56304377D01*
X38023000Y-56304377D01*
X38023000Y-55043719D01*
X40270935Y-55043719D01*
X40317595Y-55412025D01*
X40435211Y-55764151D01*
X40560685Y-55998896D01*
X40850623Y-56124771D01*
X41984395Y-54991000D01*
X42343605Y-54991000D01*
X43477377Y-56124771D01*
X43767315Y-55998896D01*
X43933139Y-55666738D01*
X44030975Y-55308613D01*
X44057065Y-54938281D01*
X44010405Y-54569975D01*
X43892789Y-54217849D01*
X43767315Y-53983104D01*
X43477377Y-53857229D01*
X42343605Y-54991000D01*
X41984395Y-54991000D01*
X40850623Y-53857229D01*
X40560685Y-53983104D01*
X40394861Y-54315262D01*
X40297025Y-54673387D01*
X40270935Y-55043719D01*
X38023000Y-55043719D01*
X38023000Y-53677623D01*
X41030229Y-53677623D01*
X42164000Y-54811395D01*
X43297771Y-53677623D01*
X43171896Y-53387685D01*
X42839738Y-53221861D01*
X42481613Y-53124025D01*
X42111281Y-53097935D01*
X41742975Y-53144595D01*
X41390849Y-53262211D01*
X41156104Y-53387685D01*
X41030229Y-53677623D01*
X38023000Y-53677623D01*
X38023000Y-49145427D01*
X41292500Y-49145427D01*
X41292500Y-49279573D01*
X41318671Y-49411140D01*
X41370006Y-49535074D01*
X41444533Y-49646612D01*
X41539388Y-49741467D01*
X41650926Y-49815994D01*
X41774860Y-49867329D01*
X41906427Y-49893500D01*
X42040573Y-49893500D01*
X42172140Y-49867329D01*
X42296074Y-49815994D01*
X42407612Y-49741467D01*
X42430579Y-49718500D01*
X44949154Y-49718500D01*
X44974000Y-49720947D01*
X44998846Y-49718500D01*
X44998854Y-49718500D01*
X45073193Y-49711178D01*
X45168575Y-49682245D01*
X45256479Y-49635259D01*
X45333527Y-49572027D01*
X45349376Y-49552715D01*
X45883664Y-49018427D01*
X50373000Y-49018427D01*
X50373000Y-49152573D01*
X50399171Y-49284140D01*
X50450506Y-49408074D01*
X50525033Y-49519612D01*
X50619888Y-49614467D01*
X50731426Y-49688994D01*
X50855360Y-49740329D01*
X50986927Y-49766500D01*
X51121073Y-49766500D01*
X51252640Y-49740329D01*
X51369215Y-49692042D01*
X58151392Y-56474220D01*
X58167237Y-56493527D01*
X58244285Y-56556759D01*
X58332189Y-56603745D01*
X58405371Y-56625944D01*
X58427570Y-56632678D01*
X58437458Y-56633652D01*
X58501910Y-56640000D01*
X58501917Y-56640000D01*
X58526763Y-56642447D01*
X58551609Y-56640000D01*
X59169421Y-56640000D01*
X59192388Y-56662967D01*
X59303926Y-56737494D01*
X59427860Y-56788829D01*
X59559427Y-56815000D01*
X59693573Y-56815000D01*
X59825140Y-56788829D01*
X59949074Y-56737494D01*
X60060612Y-56662967D01*
X60155467Y-56568112D01*
X60229994Y-56456574D01*
X60281329Y-56332640D01*
X60307500Y-56201073D01*
X60307500Y-56066927D01*
X60281329Y-55935360D01*
X60229994Y-55811426D01*
X60155467Y-55699888D01*
X60138729Y-55683150D01*
X60168167Y-55653712D01*
X60242694Y-55542174D01*
X60294029Y-55418240D01*
X60320200Y-55286673D01*
X60320200Y-55152527D01*
X60294029Y-55020960D01*
X60242694Y-54897026D01*
X60168167Y-54785488D01*
X60145200Y-54762521D01*
X60145200Y-51382927D01*
X60179000Y-51382927D01*
X60179000Y-51517073D01*
X60205171Y-51648640D01*
X60256506Y-51772574D01*
X60331033Y-51884112D01*
X60425888Y-51978967D01*
X60537426Y-52053494D01*
X60661360Y-52104829D01*
X60792927Y-52131000D01*
X60825408Y-52131000D01*
X61084628Y-52390220D01*
X61100473Y-52409527D01*
X61177521Y-52472759D01*
X61258959Y-52516289D01*
X61265425Y-52519745D01*
X61360806Y-52548678D01*
X61370694Y-52549652D01*
X61435146Y-52556000D01*
X61435153Y-52556000D01*
X61459999Y-52558447D01*
X61484845Y-52556000D01*
X61882921Y-52556000D01*
X61905888Y-52578967D01*
X62017426Y-52653494D01*
X62141360Y-52704829D01*
X62272927Y-52731000D01*
X62407073Y-52731000D01*
X62538640Y-52704829D01*
X62662574Y-52653494D01*
X62774112Y-52578967D01*
X62868967Y-52484112D01*
X62943494Y-52372574D01*
X62994829Y-52248640D01*
X63021000Y-52117073D01*
X63021000Y-51982927D01*
X62994829Y-51851360D01*
X62943494Y-51727426D01*
X62868967Y-51615888D01*
X62774112Y-51521033D01*
X62678706Y-51457285D01*
X62797927Y-51481000D01*
X62932073Y-51481000D01*
X63063640Y-51454829D01*
X63187574Y-51403494D01*
X63299112Y-51328967D01*
X63322079Y-51306000D01*
X65703409Y-51306000D01*
X66045628Y-51648220D01*
X66061473Y-51667527D01*
X66138521Y-51730759D01*
X66226425Y-51777745D01*
X66257950Y-51787308D01*
X66222360Y-51794387D01*
X66098426Y-51845722D01*
X65986888Y-51920249D01*
X65892033Y-52015104D01*
X65817506Y-52126642D01*
X65766171Y-52250576D01*
X65740000Y-52382143D01*
X65740000Y-52516289D01*
X65766171Y-52647856D01*
X65817506Y-52771790D01*
X65892033Y-52883328D01*
X65915001Y-52906296D01*
X65915000Y-53757921D01*
X65892033Y-53780888D01*
X65817506Y-53892426D01*
X65766171Y-54016360D01*
X65740000Y-54147927D01*
X65740000Y-54282073D01*
X65766171Y-54413640D01*
X65817506Y-54537574D01*
X65892033Y-54649112D01*
X65986888Y-54743967D01*
X66098426Y-54818494D01*
X66222360Y-54869829D01*
X66353927Y-54896000D01*
X66488073Y-54896000D01*
X66502000Y-54893230D01*
X66502000Y-54931073D01*
X66528171Y-55062640D01*
X66579506Y-55186574D01*
X66654033Y-55298112D01*
X66748888Y-55392967D01*
X66860426Y-55467494D01*
X66984360Y-55518829D01*
X67115927Y-55545000D01*
X67250073Y-55545000D01*
X67381640Y-55518829D01*
X67505574Y-55467494D01*
X67617112Y-55392967D01*
X67711967Y-55298112D01*
X67786494Y-55186574D01*
X67837829Y-55062640D01*
X67864000Y-54931073D01*
X67864000Y-54796927D01*
X67837829Y-54665360D01*
X67786494Y-54541426D01*
X67711967Y-54429888D01*
X67689000Y-54406921D01*
X67689000Y-53494775D01*
X67754471Y-53396790D01*
X67805806Y-53272856D01*
X67831977Y-53141289D01*
X67831977Y-53007143D01*
X67805806Y-52875576D01*
X67754471Y-52751642D01*
X67679944Y-52640104D01*
X67585089Y-52545249D01*
X67473551Y-52470722D01*
X67349617Y-52419387D01*
X67218050Y-52393216D01*
X67102000Y-52393216D01*
X67102000Y-52382143D01*
X67075829Y-52250576D01*
X67024494Y-52126642D01*
X66949967Y-52015104D01*
X66855112Y-51920249D01*
X66743574Y-51845722D01*
X66666990Y-51814000D01*
X67106921Y-51814000D01*
X67129888Y-51836967D01*
X67241426Y-51911494D01*
X67365360Y-51962829D01*
X67496927Y-51989000D01*
X67631073Y-51989000D01*
X67762640Y-51962829D01*
X67886574Y-51911494D01*
X67998112Y-51836967D01*
X68092967Y-51742112D01*
X68167494Y-51630574D01*
X68218829Y-51506640D01*
X68245000Y-51375073D01*
X68245000Y-51240927D01*
X68218829Y-51109360D01*
X68167494Y-50985426D01*
X68092967Y-50873888D01*
X67998112Y-50779033D01*
X67886574Y-50704506D01*
X67762640Y-50653171D01*
X67631073Y-50627000D01*
X67496927Y-50627000D01*
X67365360Y-50653171D01*
X67241426Y-50704506D01*
X67129888Y-50779033D01*
X67106921Y-50802000D01*
X66630592Y-50802000D01*
X66288376Y-50459785D01*
X66272527Y-50440473D01*
X66195479Y-50377241D01*
X66107575Y-50330255D01*
X66012193Y-50301322D01*
X65937854Y-50294000D01*
X65937846Y-50294000D01*
X65913000Y-50291553D01*
X65888154Y-50294000D01*
X63322079Y-50294000D01*
X63299112Y-50271033D01*
X63187574Y-50196506D01*
X63063640Y-50145171D01*
X62932073Y-50119000D01*
X62797927Y-50119000D01*
X62666360Y-50145171D01*
X62542426Y-50196506D01*
X62430888Y-50271033D01*
X62336033Y-50365888D01*
X62261506Y-50477426D01*
X62210171Y-50601360D01*
X62184000Y-50732927D01*
X62184000Y-50867073D01*
X62210171Y-50998640D01*
X62261506Y-51122574D01*
X62336033Y-51234112D01*
X62430888Y-51328967D01*
X62526294Y-51392715D01*
X62407073Y-51369000D01*
X62272927Y-51369000D01*
X62141360Y-51395171D01*
X62017426Y-51446506D01*
X61905888Y-51521033D01*
X61882921Y-51544000D01*
X61669592Y-51544000D01*
X61541000Y-51415408D01*
X61541000Y-51382927D01*
X61514829Y-51251360D01*
X61463494Y-51127426D01*
X61388967Y-51015888D01*
X61294112Y-50921033D01*
X61182574Y-50846506D01*
X61058640Y-50795171D01*
X60927073Y-50769000D01*
X60792927Y-50769000D01*
X60661360Y-50795171D01*
X60537426Y-50846506D01*
X60425888Y-50921033D01*
X60331033Y-51015888D01*
X60256506Y-51127426D01*
X60205171Y-51251360D01*
X60179000Y-51382927D01*
X60145200Y-51382927D01*
X60145200Y-48469591D01*
X60384992Y-48229800D01*
X60417473Y-48229800D01*
X60549040Y-48203629D01*
X60672974Y-48152294D01*
X60784512Y-48077767D01*
X60879367Y-47982912D01*
X60953894Y-47871374D01*
X60978517Y-47811927D01*
X64724000Y-47811927D01*
X64724000Y-47946073D01*
X64750171Y-48077640D01*
X64801506Y-48201574D01*
X64876033Y-48313112D01*
X64970888Y-48407967D01*
X65082426Y-48482494D01*
X65206360Y-48533829D01*
X65337927Y-48560000D01*
X65370409Y-48560000D01*
X66426628Y-49616220D01*
X66442473Y-49635527D01*
X66519521Y-49698759D01*
X66607425Y-49745745D01*
X66675847Y-49766500D01*
X66702806Y-49774678D01*
X66712694Y-49775652D01*
X66777146Y-49782000D01*
X66777153Y-49782000D01*
X66801999Y-49784447D01*
X66826845Y-49782000D01*
X68630921Y-49782000D01*
X68653888Y-49804967D01*
X68765426Y-49879494D01*
X68889360Y-49930829D01*
X69020927Y-49957000D01*
X69155073Y-49957000D01*
X69286640Y-49930829D01*
X69410574Y-49879494D01*
X69522112Y-49804967D01*
X69616967Y-49710112D01*
X69691494Y-49598574D01*
X69742829Y-49474640D01*
X69769000Y-49343073D01*
X69769000Y-49208927D01*
X69742829Y-49077360D01*
X69691494Y-48953426D01*
X69616967Y-48841888D01*
X69522112Y-48747033D01*
X69410574Y-48672506D01*
X69286640Y-48621171D01*
X69155073Y-48595000D01*
X69020927Y-48595000D01*
X68889360Y-48621171D01*
X68765426Y-48672506D01*
X68653888Y-48747033D01*
X68630921Y-48770000D01*
X67011592Y-48770000D01*
X66086000Y-47844409D01*
X66086000Y-47811927D01*
X66059829Y-47680360D01*
X66008494Y-47556426D01*
X65933967Y-47444888D01*
X65839112Y-47350033D01*
X65727574Y-47275506D01*
X65603640Y-47224171D01*
X65472073Y-47198000D01*
X65337927Y-47198000D01*
X65206360Y-47224171D01*
X65082426Y-47275506D01*
X64970888Y-47350033D01*
X64876033Y-47444888D01*
X64801506Y-47556426D01*
X64750171Y-47680360D01*
X64724000Y-47811927D01*
X60978517Y-47811927D01*
X61005229Y-47747440D01*
X61031400Y-47615873D01*
X61031400Y-47481727D01*
X61005229Y-47350160D01*
X60953894Y-47226226D01*
X60879367Y-47114688D01*
X60784512Y-47019833D01*
X60672974Y-46945306D01*
X60549040Y-46893971D01*
X60417473Y-46867800D01*
X60283327Y-46867800D01*
X60151760Y-46893971D01*
X60027826Y-46945306D01*
X59920827Y-47016800D01*
X59904473Y-46992325D01*
X59809618Y-46897470D01*
X59698080Y-46822943D01*
X59574146Y-46771608D01*
X59442579Y-46745437D01*
X59308433Y-46745437D01*
X59176866Y-46771608D01*
X59052932Y-46822943D01*
X58941394Y-46897470D01*
X58846539Y-46992325D01*
X58772012Y-47103863D01*
X58720677Y-47227797D01*
X58694506Y-47359364D01*
X58694506Y-47391845D01*
X58384585Y-47701767D01*
X58365273Y-47717616D01*
X58302041Y-47794664D01*
X58255055Y-47882569D01*
X58226122Y-47977951D01*
X58218800Y-48052290D01*
X58218800Y-48052297D01*
X58216353Y-48077143D01*
X58218800Y-48101989D01*
X58218801Y-53749222D01*
X58155612Y-53686033D01*
X58044074Y-53611506D01*
X57920140Y-53560171D01*
X57809818Y-53538226D01*
X54481000Y-50209409D01*
X54481000Y-47891579D01*
X54503967Y-47868612D01*
X54578494Y-47757074D01*
X54614000Y-47671354D01*
X54614000Y-49345154D01*
X54611553Y-49370000D01*
X54614000Y-49394846D01*
X54614000Y-49394853D01*
X54621322Y-49469192D01*
X54650255Y-49564574D01*
X54697241Y-49652479D01*
X54760473Y-49729527D01*
X54779785Y-49745376D01*
X56509000Y-51474592D01*
X56509000Y-51507073D01*
X56535171Y-51638640D01*
X56586506Y-51762574D01*
X56661033Y-51874112D01*
X56755888Y-51968967D01*
X56867426Y-52043494D01*
X56991360Y-52094829D01*
X57122927Y-52121000D01*
X57257073Y-52121000D01*
X57388640Y-52094829D01*
X57512574Y-52043494D01*
X57624112Y-51968967D01*
X57718967Y-51874112D01*
X57793494Y-51762574D01*
X57844829Y-51638640D01*
X57871000Y-51507073D01*
X57871000Y-51372927D01*
X57844829Y-51241360D01*
X57793494Y-51117426D01*
X57718967Y-51005888D01*
X57624112Y-50911033D01*
X57512574Y-50836506D01*
X57388640Y-50785171D01*
X57257073Y-50759000D01*
X57224592Y-50759000D01*
X55626000Y-49160409D01*
X55626000Y-45957079D01*
X55648967Y-45934112D01*
X55723494Y-45822574D01*
X55774829Y-45698640D01*
X55801000Y-45567073D01*
X55801000Y-45432927D01*
X55774829Y-45301360D01*
X55723494Y-45177426D01*
X55648967Y-45065888D01*
X55554112Y-44971033D01*
X55442574Y-44896506D01*
X55318640Y-44845171D01*
X55187073Y-44819000D01*
X55052927Y-44819000D01*
X54921360Y-44845171D01*
X54797426Y-44896506D01*
X54685888Y-44971033D01*
X54591033Y-45065888D01*
X54516506Y-45177426D01*
X54465171Y-45301360D01*
X54439000Y-45432927D01*
X54439000Y-45567073D01*
X54465171Y-45698640D01*
X54516506Y-45822574D01*
X54591033Y-45934112D01*
X54614001Y-45957080D01*
X54614001Y-47197647D01*
X54578494Y-47111926D01*
X54503967Y-47000388D01*
X54409112Y-46905533D01*
X54297574Y-46831006D01*
X54173640Y-46779671D01*
X54042073Y-46753500D01*
X53907927Y-46753500D01*
X53776360Y-46779671D01*
X53652426Y-46831006D01*
X53540888Y-46905533D01*
X53446033Y-47000388D01*
X53371506Y-47111926D01*
X53320171Y-47235860D01*
X53294000Y-47367427D01*
X53294000Y-47501573D01*
X53320171Y-47633140D01*
X53371506Y-47757074D01*
X53446033Y-47868612D01*
X53469000Y-47891579D01*
X53469001Y-50360646D01*
X51853640Y-48745285D01*
X51837791Y-48725973D01*
X51760743Y-48662741D01*
X51672839Y-48615755D01*
X51577457Y-48586822D01*
X51511949Y-48580370D01*
X51488112Y-48556533D01*
X51376574Y-48482006D01*
X51252640Y-48430671D01*
X51121073Y-48404500D01*
X50986927Y-48404500D01*
X50855360Y-48430671D01*
X50731426Y-48482006D01*
X50619888Y-48556533D01*
X50525033Y-48651388D01*
X50450506Y-48762926D01*
X50399171Y-48886860D01*
X50373000Y-49018427D01*
X45883664Y-49018427D01*
X46008592Y-48893500D01*
X46041073Y-48893500D01*
X46172640Y-48867329D01*
X46296574Y-48815994D01*
X46408112Y-48741467D01*
X46502967Y-48646612D01*
X46577494Y-48535074D01*
X46628829Y-48411140D01*
X46655000Y-48279573D01*
X46655000Y-48145427D01*
X46628829Y-48013860D01*
X46577494Y-47889926D01*
X46502967Y-47778388D01*
X46408112Y-47683533D01*
X46296574Y-47609006D01*
X46172640Y-47557671D01*
X46041073Y-47531500D01*
X45906927Y-47531500D01*
X45775360Y-47557671D01*
X45651426Y-47609006D01*
X45539888Y-47683533D01*
X45445033Y-47778388D01*
X45370506Y-47889926D01*
X45319171Y-48013860D01*
X45293000Y-48145427D01*
X45293000Y-48177908D01*
X44764409Y-48706500D01*
X42430579Y-48706500D01*
X42407612Y-48683533D01*
X42296074Y-48609006D01*
X42172140Y-48557671D01*
X42040573Y-48531500D01*
X41906427Y-48531500D01*
X41774860Y-48557671D01*
X41650926Y-48609006D01*
X41539388Y-48683533D01*
X41444533Y-48778388D01*
X41370006Y-48889926D01*
X41318671Y-49013860D01*
X41292500Y-49145427D01*
X38023000Y-49145427D01*
X38023000Y-36081600D01*
X40328367Y-36081600D01*
X40328367Y-37781600D01*
X40340473Y-37904513D01*
X40376325Y-38022703D01*
X40434547Y-38131628D01*
X40512899Y-38227101D01*
X40608372Y-38305453D01*
X40717297Y-38363675D01*
X40835487Y-38399527D01*
X40958400Y-38411633D01*
X42658400Y-38411633D01*
X42781313Y-38399527D01*
X42899503Y-38363675D01*
X43008428Y-38305453D01*
X43103901Y-38227101D01*
X43182253Y-38131628D01*
X43240475Y-38022703D01*
X43276327Y-37904513D01*
X43288433Y-37781600D01*
X43288433Y-37262927D01*
X44039000Y-37262927D01*
X44039000Y-37397073D01*
X44065171Y-37528640D01*
X44116506Y-37652574D01*
X44191033Y-37764112D01*
X44285888Y-37858967D01*
X44397426Y-37933494D01*
X44521360Y-37984829D01*
X44652927Y-38011000D01*
X44685409Y-38011000D01*
X47804628Y-41130220D01*
X47820473Y-41149527D01*
X47897521Y-41212759D01*
X47985425Y-41259745D01*
X48080807Y-41288678D01*
X48180000Y-41298448D01*
X48204854Y-41296000D01*
X49732921Y-41296000D01*
X49755888Y-41318967D01*
X49867426Y-41393494D01*
X49991360Y-41444829D01*
X50122927Y-41471000D01*
X50257073Y-41471000D01*
X50388640Y-41444829D01*
X50512574Y-41393494D01*
X50624112Y-41318967D01*
X50718967Y-41224112D01*
X50793494Y-41112574D01*
X50844829Y-40988640D01*
X50871000Y-40857073D01*
X50871000Y-40722927D01*
X50844829Y-40591360D01*
X50793494Y-40467426D01*
X50718967Y-40355888D01*
X50624112Y-40261033D01*
X50512574Y-40186506D01*
X50388640Y-40135171D01*
X50257073Y-40109000D01*
X50122927Y-40109000D01*
X49991360Y-40135171D01*
X49867426Y-40186506D01*
X49755888Y-40261033D01*
X49732921Y-40284000D01*
X48389592Y-40284000D01*
X45401000Y-37295409D01*
X45401000Y-37262927D01*
X45374829Y-37131360D01*
X45323494Y-37007426D01*
X45248967Y-36895888D01*
X45154112Y-36801033D01*
X45042574Y-36726506D01*
X44918640Y-36675171D01*
X44787073Y-36649000D01*
X44652927Y-36649000D01*
X44521360Y-36675171D01*
X44397426Y-36726506D01*
X44285888Y-36801033D01*
X44191033Y-36895888D01*
X44116506Y-37007426D01*
X44065171Y-37131360D01*
X44039000Y-37262927D01*
X43288433Y-37262927D01*
X43288433Y-36081600D01*
X43276327Y-35958687D01*
X43240475Y-35840497D01*
X43182253Y-35731572D01*
X43103901Y-35636099D01*
X43008428Y-35557747D01*
X42899503Y-35499525D01*
X42820856Y-35475668D01*
X43003578Y-35272955D01*
X43152557Y-35022852D01*
X43249881Y-34748491D01*
X43129214Y-34518600D01*
X41935400Y-34518600D01*
X41935400Y-34538600D01*
X41681400Y-34538600D01*
X41681400Y-34518600D01*
X40487586Y-34518600D01*
X40366919Y-34748491D01*
X40464243Y-35022852D01*
X40613222Y-35272955D01*
X40795944Y-35475668D01*
X40717297Y-35499525D01*
X40608372Y-35557747D01*
X40512899Y-35636099D01*
X40434547Y-35731572D01*
X40376325Y-35840497D01*
X40340473Y-35958687D01*
X40328367Y-36081600D01*
X38023000Y-36081600D01*
X38023000Y-34034709D01*
X40366919Y-34034709D01*
X40487586Y-34264600D01*
X41681400Y-34264600D01*
X41681400Y-33071445D01*
X41935400Y-33071445D01*
X41935400Y-34264600D01*
X43129214Y-34264600D01*
X43249881Y-34034709D01*
X43152557Y-33760348D01*
X43003578Y-33510245D01*
X42808669Y-33294012D01*
X42575320Y-33119959D01*
X42312499Y-32994775D01*
X42165290Y-32950124D01*
X41935400Y-33071445D01*
X41681400Y-33071445D01*
X41451510Y-32950124D01*
X41304301Y-32994775D01*
X41041480Y-33119959D01*
X40808131Y-33294012D01*
X40613222Y-33510245D01*
X40464243Y-33760348D01*
X40366919Y-34034709D01*
X38023000Y-34034709D01*
X38023000Y-29746764D01*
X41870341Y-29746764D01*
X42090307Y-30116801D01*
X42555627Y-30360672D01*
X43059583Y-30509078D01*
X43582808Y-30556315D01*
X44105195Y-30500569D01*
X44606669Y-30343981D01*
X45031693Y-30116801D01*
X45213911Y-29810264D01*
X54760841Y-29810264D01*
X54980807Y-30180301D01*
X55446127Y-30424172D01*
X55950083Y-30572578D01*
X56473308Y-30619815D01*
X56995695Y-30564069D01*
X57497169Y-30407481D01*
X57922193Y-30180301D01*
X58142159Y-29810264D01*
X58015159Y-29683264D01*
X67651341Y-29683264D01*
X67871307Y-30053301D01*
X68336627Y-30297172D01*
X68840583Y-30445578D01*
X69363808Y-30492815D01*
X69886195Y-30437069D01*
X70387669Y-30280481D01*
X70812693Y-30053301D01*
X71032659Y-29683264D01*
X69342000Y-27992605D01*
X67651341Y-29683264D01*
X58015159Y-29683264D01*
X56451500Y-28119605D01*
X54760841Y-29810264D01*
X45213911Y-29810264D01*
X45251659Y-29746764D01*
X43561000Y-28056105D01*
X41870341Y-29746764D01*
X38023000Y-29746764D01*
X38023000Y-27898308D01*
X40881185Y-27898308D01*
X40936931Y-28420695D01*
X41093519Y-28922169D01*
X41320699Y-29347193D01*
X41690736Y-29567159D01*
X43381395Y-27876500D01*
X43740605Y-27876500D01*
X45431264Y-29567159D01*
X45801301Y-29347193D01*
X46045172Y-28881873D01*
X46193578Y-28377917D01*
X46231144Y-27961808D01*
X53771685Y-27961808D01*
X53827431Y-28484195D01*
X53984019Y-28985669D01*
X54211199Y-29410693D01*
X54581236Y-29630659D01*
X56271895Y-27940000D01*
X56631105Y-27940000D01*
X58321764Y-29630659D01*
X58691801Y-29410693D01*
X58935672Y-28945373D01*
X59084078Y-28441417D01*
X59131315Y-27918192D01*
X59122417Y-27834808D01*
X66662185Y-27834808D01*
X66717931Y-28357195D01*
X66874519Y-28858669D01*
X67101699Y-29283693D01*
X67471736Y-29503659D01*
X69162395Y-27813000D01*
X69521605Y-27813000D01*
X71212264Y-29503659D01*
X71582301Y-29283693D01*
X71826172Y-28818373D01*
X71974578Y-28314417D01*
X72021815Y-27791192D01*
X71966069Y-27268805D01*
X71809481Y-26767331D01*
X71582301Y-26342307D01*
X71212264Y-26122341D01*
X69521605Y-27813000D01*
X69162395Y-27813000D01*
X67471736Y-26122341D01*
X67101699Y-26342307D01*
X66857828Y-26807627D01*
X66709422Y-27311583D01*
X66662185Y-27834808D01*
X59122417Y-27834808D01*
X59075569Y-27395805D01*
X58918981Y-26894331D01*
X58691801Y-26469307D01*
X58321764Y-26249341D01*
X56631105Y-27940000D01*
X56271895Y-27940000D01*
X54581236Y-26249341D01*
X54211199Y-26469307D01*
X53967328Y-26934627D01*
X53818922Y-27438583D01*
X53771685Y-27961808D01*
X46231144Y-27961808D01*
X46240815Y-27854692D01*
X46185069Y-27332305D01*
X46028481Y-26830831D01*
X45801301Y-26405807D01*
X45431264Y-26185841D01*
X43740605Y-27876500D01*
X43381395Y-27876500D01*
X41690736Y-26185841D01*
X41320699Y-26405807D01*
X41076828Y-26871127D01*
X40928422Y-27375083D01*
X40881185Y-27898308D01*
X38023000Y-27898308D01*
X38023000Y-26006236D01*
X41870341Y-26006236D01*
X43561000Y-27696895D01*
X45188159Y-26069736D01*
X54760841Y-26069736D01*
X56451500Y-27760395D01*
X58142159Y-26069736D01*
X58066665Y-25942736D01*
X67651341Y-25942736D01*
X69342000Y-27633395D01*
X71032659Y-25942736D01*
X70812693Y-25572699D01*
X70347373Y-25328828D01*
X69843417Y-25180422D01*
X69320192Y-25133185D01*
X68797805Y-25188931D01*
X68296331Y-25345519D01*
X67871307Y-25572699D01*
X67651341Y-25942736D01*
X58066665Y-25942736D01*
X57922193Y-25699699D01*
X57456873Y-25455828D01*
X56952917Y-25307422D01*
X56429692Y-25260185D01*
X55907305Y-25315931D01*
X55405831Y-25472519D01*
X54980807Y-25699699D01*
X54760841Y-26069736D01*
X45188159Y-26069736D01*
X45251659Y-26006236D01*
X45031693Y-25636199D01*
X44566373Y-25392328D01*
X44062417Y-25243922D01*
X43539192Y-25196685D01*
X43016805Y-25252431D01*
X42515331Y-25409019D01*
X42090307Y-25636199D01*
X41870341Y-26006236D01*
X38023000Y-26006236D01*
X38023000Y-22275000D01*
X74753000Y-22275000D01*
X74753000Y-36521870D01*
X74753000Y-36521870D01*
G37*
X74753000Y-36521870D02*
X70914327Y-36512000D01*
X70889404Y-36514404D01*
X70865569Y-36521597D01*
X70843596Y-36533301D01*
X70824328Y-36549067D01*
X70808506Y-36568289D01*
X70796738Y-36590229D01*
X70789476Y-36614043D01*
X70787000Y-36638816D01*
X70773000Y-46289816D01*
X70775257Y-46313836D01*
X70782304Y-46337714D01*
X70793874Y-46359758D01*
X70809522Y-46379122D01*
X70828648Y-46395061D01*
X70850515Y-46406963D01*
X70874284Y-46414369D01*
X70899042Y-46416996D01*
X73303673Y-46435144D01*
X73350125Y-46588274D01*
X73427329Y-46732713D01*
X73433007Y-47286302D01*
X73435288Y-47308998D01*
X73442366Y-47332867D01*
X73453964Y-47354896D01*
X73469638Y-47374240D01*
X73488784Y-47390154D01*
X73510667Y-47402027D01*
X73534446Y-47409402D01*
X73559206Y-47411998D01*
X74753000Y-47419459D01*
X74753001Y-91517000D01*
X58646267Y-91517000D01*
X58661084Y-91263253D01*
X58658933Y-91231445D01*
X58651777Y-91207600D01*
X58640107Y-91185608D01*
X58624370Y-91166316D01*
X58605172Y-91150464D01*
X58583251Y-91138663D01*
X58559448Y-91131365D01*
X58534679Y-91128851D01*
X54280179Y-91116151D01*
X54246384Y-91120625D01*
X54223123Y-91129498D01*
X54202039Y-91142739D01*
X54183944Y-91159839D01*
X54169533Y-91180140D01*
X54144133Y-91224590D01*
X54134342Y-91246186D01*
X54128570Y-91270404D01*
X54127633Y-91295283D01*
X54141070Y-91517000D01*
X38023000Y-91517000D01*
X38023000Y-63940927D01*
X40975000Y-63940927D01*
X40975000Y-64075073D01*
X41001171Y-64206640D01*
X41052506Y-64330574D01*
X41127033Y-64442112D01*
X41221888Y-64536967D01*
X41333426Y-64611494D01*
X41457360Y-64662829D01*
X41588927Y-64689000D01*
X41723073Y-64689000D01*
X41854640Y-64662829D01*
X41978574Y-64611494D01*
X42090112Y-64536967D01*
X42184967Y-64442112D01*
X42192642Y-64430625D01*
X42269527Y-64367527D01*
X42285376Y-64348215D01*
X43722592Y-62911000D01*
X43755073Y-62911000D01*
X43886640Y-62884829D01*
X44010574Y-62833494D01*
X44122112Y-62758967D01*
X44216967Y-62664112D01*
X44291494Y-62552574D01*
X44342829Y-62428640D01*
X44369000Y-62297073D01*
X44369000Y-62162927D01*
X44342829Y-62031360D01*
X44291494Y-61907426D01*
X44216967Y-61795888D01*
X44122112Y-61701033D01*
X44012249Y-61627625D01*
X44890858Y-61627625D01*
X44890858Y-61761771D01*
X44917029Y-61893338D01*
X44968364Y-62017272D01*
X45042891Y-62128810D01*
X45137746Y-62223665D01*
X45249284Y-62298192D01*
X45373218Y-62349527D01*
X45504785Y-62375698D01*
X45537267Y-62375698D01*
X46073698Y-62912129D01*
X45952726Y-62948825D01*
X45799675Y-63030632D01*
X45665526Y-63140726D01*
X45555432Y-63274875D01*
X45473625Y-63427926D01*
X45423249Y-63593995D01*
X45406238Y-63766700D01*
X45423249Y-63939405D01*
X45473625Y-64105474D01*
X45555432Y-64258525D01*
X45637941Y-64359062D01*
X46251999Y-64973121D01*
X46252000Y-70349317D01*
X46247737Y-70392597D01*
X46262315Y-70540600D01*
X46264748Y-70565303D01*
X46280030Y-70615679D01*
X46315124Y-70731371D01*
X46396931Y-70884422D01*
X46442373Y-70939793D01*
X46507025Y-71018572D01*
X46540639Y-71046158D01*
X50058700Y-74564220D01*
X50058701Y-75189173D01*
X50071449Y-75318606D01*
X50121826Y-75484675D01*
X50203633Y-75637725D01*
X50313726Y-75771875D01*
X50447876Y-75881968D01*
X50600926Y-75963775D01*
X50766995Y-76014152D01*
X50939700Y-76031162D01*
X51112406Y-76014152D01*
X51278475Y-75963775D01*
X51431525Y-75881968D01*
X51565675Y-75771875D01*
X51675768Y-75637725D01*
X51757575Y-75484675D01*
X51807952Y-75318606D01*
X51820700Y-75189173D01*
X51820700Y-74242567D01*
X51824962Y-74199297D01*
X51820700Y-74156025D01*
X51807952Y-74026592D01*
X51757575Y-73860523D01*
X51675769Y-73707474D01*
X51675768Y-73707472D01*
X51593259Y-73606935D01*
X51565675Y-73573323D01*
X51532062Y-73545738D01*
X48759851Y-70773527D01*
X50246000Y-70773527D01*
X50246000Y-70907673D01*
X50272171Y-71039240D01*
X50323506Y-71163174D01*
X50398033Y-71274712D01*
X50492888Y-71369567D01*
X50604426Y-71444094D01*
X50728360Y-71495429D01*
X50859927Y-71521600D01*
X50994073Y-71521600D01*
X51125640Y-71495429D01*
X51249574Y-71444094D01*
X51361112Y-71369567D01*
X51384079Y-71346600D01*
X52035523Y-71346600D01*
X52050171Y-71420240D01*
X52101506Y-71544174D01*
X52176033Y-71655712D01*
X52270888Y-71750567D01*
X52382426Y-71825094D01*
X52506360Y-71876429D01*
X52637927Y-71902600D01*
X52772073Y-71902600D01*
X52903640Y-71876429D01*
X53027574Y-71825094D01*
X53139112Y-71750567D01*
X53233967Y-71655712D01*
X53308494Y-71544174D01*
X53359829Y-71420240D01*
X53386000Y-71288673D01*
X53386000Y-71154527D01*
X53359829Y-71022960D01*
X53308494Y-70899026D01*
X53233967Y-70787488D01*
X53139112Y-70692633D01*
X53027574Y-70618106D01*
X52903640Y-70566771D01*
X52772073Y-70540600D01*
X52739591Y-70540600D01*
X52699376Y-70500385D01*
X52683527Y-70481073D01*
X52606479Y-70417841D01*
X52518575Y-70370855D01*
X52423193Y-70341922D01*
X52348854Y-70334600D01*
X52348846Y-70334600D01*
X52324000Y-70332153D01*
X52299154Y-70334600D01*
X51384079Y-70334600D01*
X51361112Y-70311633D01*
X51249574Y-70237106D01*
X51125640Y-70185771D01*
X50994073Y-70159600D01*
X50859927Y-70159600D01*
X50728360Y-70185771D01*
X50604426Y-70237106D01*
X50492888Y-70311633D01*
X50398033Y-70406488D01*
X50323506Y-70518026D01*
X50272171Y-70641960D01*
X50246000Y-70773527D01*
X48759851Y-70773527D01*
X48013999Y-70027676D01*
X48013999Y-68673078D01*
X48072288Y-68760313D01*
X48333687Y-69021712D01*
X48641059Y-69227092D01*
X48982593Y-69368560D01*
X49345163Y-69440680D01*
X49714837Y-69440680D01*
X50077407Y-69368560D01*
X50418941Y-69227092D01*
X50726313Y-69021712D01*
X50854098Y-68893927D01*
X61930000Y-68893927D01*
X61930000Y-69028073D01*
X61956171Y-69159640D01*
X62007506Y-69283574D01*
X62082033Y-69395112D01*
X62176888Y-69489967D01*
X62288426Y-69564494D01*
X62412360Y-69615829D01*
X62543927Y-69642000D01*
X62678073Y-69642000D01*
X62809640Y-69615829D01*
X62933574Y-69564494D01*
X63045112Y-69489967D01*
X63101828Y-69433251D01*
X64987386Y-69244695D01*
X65003033Y-69268112D01*
X65097888Y-69362967D01*
X65209426Y-69437494D01*
X65333360Y-69488829D01*
X65464927Y-69515000D01*
X65599073Y-69515000D01*
X65730640Y-69488829D01*
X65854574Y-69437494D01*
X65966112Y-69362967D01*
X66060967Y-69268112D01*
X66135494Y-69156574D01*
X66186829Y-69032640D01*
X66213000Y-68901073D01*
X66213000Y-68868591D01*
X67054953Y-68026639D01*
X67074260Y-68010794D01*
X67137492Y-67933746D01*
X67184478Y-67845842D01*
X67213411Y-67750460D01*
X67220733Y-67676121D01*
X67220733Y-67676114D01*
X67223180Y-67651268D01*
X67220733Y-67626422D01*
X67220733Y-62802578D01*
X67223180Y-62777732D01*
X67220733Y-62752886D01*
X67220733Y-62752879D01*
X67213411Y-62678540D01*
X67209035Y-62664112D01*
X67201562Y-62639478D01*
X67184478Y-62583158D01*
X67137492Y-62495254D01*
X67074260Y-62418206D01*
X67054953Y-62402361D01*
X66975000Y-62322408D01*
X66975000Y-62289927D01*
X66948829Y-62158360D01*
X66897494Y-62034426D01*
X66822967Y-61922888D01*
X66728112Y-61828033D01*
X66616574Y-61753506D01*
X66492640Y-61702171D01*
X66361073Y-61676000D01*
X66328592Y-61676000D01*
X65313013Y-60660422D01*
X65307829Y-60634360D01*
X65256494Y-60510426D01*
X65181967Y-60398888D01*
X65087112Y-60304033D01*
X64975574Y-60229506D01*
X64851640Y-60178171D01*
X64720073Y-60152000D01*
X64585927Y-60152000D01*
X64454360Y-60178171D01*
X64330426Y-60229506D01*
X64218888Y-60304033D01*
X64124033Y-60398888D01*
X64049506Y-60510426D01*
X63998171Y-60634360D01*
X63972000Y-60765927D01*
X63972000Y-60900073D01*
X63998171Y-61031640D01*
X64049506Y-61155574D01*
X64124033Y-61267112D01*
X64218888Y-61361967D01*
X64330426Y-61436494D01*
X64454360Y-61487829D01*
X64585927Y-61514000D01*
X64720073Y-61514000D01*
X64732864Y-61511456D01*
X64779554Y-61558145D01*
X64701426Y-61590507D01*
X64589888Y-61665034D01*
X64495033Y-61759889D01*
X64420506Y-61871427D01*
X64369171Y-61995361D01*
X64343000Y-62126928D01*
X64343000Y-62160639D01*
X64301242Y-62211521D01*
X64254256Y-62299426D01*
X64225323Y-62394808D01*
X64218001Y-62469147D01*
X64218001Y-62469154D01*
X64215554Y-62494000D01*
X64218001Y-62518846D01*
X64218002Y-66638406D01*
X62576409Y-68280000D01*
X62543927Y-68280000D01*
X62412360Y-68306171D01*
X62288426Y-68357506D01*
X62176888Y-68432033D01*
X62082033Y-68526888D01*
X62007506Y-68638426D01*
X61956171Y-68762360D01*
X61930000Y-68893927D01*
X50854098Y-68893927D01*
X50987712Y-68760313D01*
X51193092Y-68452941D01*
X51334560Y-68111407D01*
X51406680Y-67748837D01*
X51406680Y-67379163D01*
X51334560Y-67016593D01*
X51193092Y-66675059D01*
X50987712Y-66367687D01*
X50726313Y-66106288D01*
X50418941Y-65900908D01*
X50077407Y-65759440D01*
X49714837Y-65687320D01*
X49345163Y-65687320D01*
X48982593Y-65759440D01*
X48641059Y-65900908D01*
X48333687Y-66106288D01*
X48072288Y-66367687D01*
X48013999Y-66454922D01*
X48013999Y-64932671D01*
X48065927Y-64943000D01*
X48200073Y-64943000D01*
X48331640Y-64916829D01*
X48455574Y-64865494D01*
X48567112Y-64790967D01*
X48661967Y-64696112D01*
X48736494Y-64584574D01*
X48787829Y-64460640D01*
X48814000Y-64329073D01*
X48814000Y-64194927D01*
X48787829Y-64063360D01*
X48736494Y-63939426D01*
X48661967Y-63827888D01*
X48567112Y-63733033D01*
X48455574Y-63658506D01*
X48331640Y-63607171D01*
X48200073Y-63581000D01*
X48173752Y-63581000D01*
X46252858Y-61660107D01*
X46252858Y-61627625D01*
X46226687Y-61496058D01*
X46175352Y-61372124D01*
X46100825Y-61260586D01*
X46005970Y-61165731D01*
X45894432Y-61091204D01*
X45770498Y-61039869D01*
X45638931Y-61013698D01*
X45504785Y-61013698D01*
X45373218Y-61039869D01*
X45249284Y-61091204D01*
X45137746Y-61165731D01*
X45042891Y-61260586D01*
X44968364Y-61372124D01*
X44917029Y-61496058D01*
X44890858Y-61627625D01*
X44012249Y-61627625D01*
X44010574Y-61626506D01*
X43886640Y-61575171D01*
X43755073Y-61549000D01*
X43620927Y-61549000D01*
X43489360Y-61575171D01*
X43365426Y-61626506D01*
X43253888Y-61701033D01*
X43159033Y-61795888D01*
X43084506Y-61907426D01*
X43033171Y-62031360D01*
X43007000Y-62162927D01*
X43007000Y-62195408D01*
X41850134Y-63352275D01*
X41723073Y-63327000D01*
X41588927Y-63327000D01*
X41457360Y-63353171D01*
X41333426Y-63404506D01*
X41221888Y-63479033D01*
X41127033Y-63573888D01*
X41052506Y-63685426D01*
X41001171Y-63809360D01*
X40975000Y-63940927D01*
X38023000Y-63940927D01*
X38023000Y-56955927D01*
X52024000Y-56955927D01*
X52024000Y-57090073D01*
X52050171Y-57221640D01*
X52101506Y-57345574D01*
X52176033Y-57457112D01*
X52270888Y-57551967D01*
X52382426Y-57626494D01*
X52506360Y-57677829D01*
X52637927Y-57704000D01*
X52670409Y-57704000D01*
X55952763Y-60986355D01*
X55961771Y-61031640D01*
X56013106Y-61155574D01*
X56087633Y-61267112D01*
X56182488Y-61361967D01*
X56294026Y-61436494D01*
X56417960Y-61487829D01*
X56549527Y-61514000D01*
X56683673Y-61514000D01*
X56815240Y-61487829D01*
X56939174Y-61436494D01*
X57050712Y-61361967D01*
X57073679Y-61339000D01*
X59677421Y-61339000D01*
X59700388Y-61361967D01*
X59811926Y-61436494D01*
X59935860Y-61487829D01*
X60067427Y-61514000D01*
X60107411Y-61514000D01*
X59237011Y-62384400D01*
X58724679Y-62384400D01*
X58701712Y-62361433D01*
X58590174Y-62286906D01*
X58466240Y-62235571D01*
X58334673Y-62209400D01*
X58200527Y-62209400D01*
X58068960Y-62235571D01*
X57945026Y-62286906D01*
X57833488Y-62361433D01*
X57738633Y-62456288D01*
X57664106Y-62567826D01*
X57612771Y-62691760D01*
X57586600Y-62823327D01*
X57586600Y-62957473D01*
X57612771Y-63089040D01*
X57664106Y-63212974D01*
X57738633Y-63324512D01*
X57833488Y-63419367D01*
X57945026Y-63493894D01*
X58068960Y-63545229D01*
X58113944Y-63554177D01*
X58033291Y-63634830D01*
X57958764Y-63746368D01*
X57907429Y-63870302D01*
X57881258Y-64001869D01*
X57881258Y-64136015D01*
X57907429Y-64267582D01*
X57958764Y-64391516D01*
X58033291Y-64503054D01*
X58128146Y-64597909D01*
X58239684Y-64672436D01*
X58363618Y-64723771D01*
X58495185Y-64749942D01*
X58527667Y-64749942D01*
X58937095Y-65159371D01*
X58952940Y-65178678D01*
X59029988Y-65241910D01*
X59117892Y-65288896D01*
X59213274Y-65317829D01*
X59312467Y-65327599D01*
X59337321Y-65325151D01*
X60811182Y-65325151D01*
X60834149Y-65348118D01*
X60945687Y-65422645D01*
X61069621Y-65473980D01*
X61201188Y-65500151D01*
X61335334Y-65500151D01*
X61466901Y-65473980D01*
X61590835Y-65422645D01*
X61702373Y-65348118D01*
X61797228Y-65253263D01*
X61871755Y-65141725D01*
X61923090Y-65017791D01*
X61949261Y-64886224D01*
X61949261Y-64752078D01*
X61923090Y-64620511D01*
X61871755Y-64496577D01*
X61797228Y-64385039D01*
X61702373Y-64290184D01*
X61590835Y-64215657D01*
X61466901Y-64164322D01*
X61335334Y-64138151D01*
X61201188Y-64138151D01*
X61069621Y-64164322D01*
X60945687Y-64215657D01*
X60834149Y-64290184D01*
X60811182Y-64313151D01*
X59522059Y-64313151D01*
X59243258Y-64034351D01*
X59243258Y-64001869D01*
X59217087Y-63870302D01*
X59165752Y-63746368D01*
X59091225Y-63634830D01*
X58996370Y-63539975D01*
X58884832Y-63465448D01*
X58760898Y-63414113D01*
X58715914Y-63405165D01*
X58724679Y-63396400D01*
X59421756Y-63396400D01*
X59446602Y-63398847D01*
X59471448Y-63396400D01*
X59471456Y-63396400D01*
X59545795Y-63389078D01*
X59641177Y-63360145D01*
X59729081Y-63313159D01*
X59806129Y-63249927D01*
X59821978Y-63230615D01*
X64297420Y-58755174D01*
X64316727Y-58739329D01*
X64379959Y-58662281D01*
X64426945Y-58574377D01*
X64455878Y-58478995D01*
X64463200Y-58404656D01*
X64463200Y-58404655D01*
X64465648Y-58379802D01*
X64463200Y-58354948D01*
X64463200Y-58216679D01*
X64486167Y-58193712D01*
X64560694Y-58082174D01*
X64612029Y-57958240D01*
X64638200Y-57826673D01*
X64638200Y-57692527D01*
X64612029Y-57560960D01*
X64560694Y-57437026D01*
X64486167Y-57325488D01*
X64391312Y-57230633D01*
X64279774Y-57156106D01*
X64155840Y-57104771D01*
X64024273Y-57078600D01*
X63890127Y-57078600D01*
X63758560Y-57104771D01*
X63634626Y-57156106D01*
X63523088Y-57230633D01*
X63428233Y-57325488D01*
X63353706Y-57437026D01*
X63302371Y-57560960D01*
X63276200Y-57692527D01*
X63276200Y-57826673D01*
X63302371Y-57958240D01*
X63353706Y-58082174D01*
X63428019Y-58193391D01*
X60815500Y-60805911D01*
X60815500Y-60765927D01*
X60789329Y-60634360D01*
X60737994Y-60510426D01*
X60663467Y-60398888D01*
X60568612Y-60304033D01*
X60457074Y-60229506D01*
X60333140Y-60178171D01*
X60201573Y-60152000D01*
X60067427Y-60152000D01*
X59935860Y-60178171D01*
X59811926Y-60229506D01*
X59700388Y-60304033D01*
X59677421Y-60327000D01*
X57073679Y-60327000D01*
X57050712Y-60304033D01*
X56939174Y-60229506D01*
X56815240Y-60178171D01*
X56683673Y-60152000D01*
X56549592Y-60152000D01*
X53386000Y-56988409D01*
X53386000Y-56955927D01*
X53359829Y-56824360D01*
X53308494Y-56700426D01*
X53233967Y-56588888D01*
X53139112Y-56494033D01*
X53027574Y-56419506D01*
X52903640Y-56368171D01*
X52772073Y-56342000D01*
X52637927Y-56342000D01*
X52506360Y-56368171D01*
X52382426Y-56419506D01*
X52270888Y-56494033D01*
X52176033Y-56588888D01*
X52101506Y-56700426D01*
X52050171Y-56824360D01*
X52024000Y-56955927D01*
X38023000Y-56955927D01*
X38023000Y-56304377D01*
X41030229Y-56304377D01*
X41156104Y-56594315D01*
X41488262Y-56760139D01*
X41846387Y-56857975D01*
X42216719Y-56884065D01*
X42585025Y-56837405D01*
X42937151Y-56719789D01*
X43171896Y-56594315D01*
X43297771Y-56304377D01*
X42164000Y-55170605D01*
X41030229Y-56304377D01*
X38023000Y-56304377D01*
X38023000Y-55043719D01*
X40270935Y-55043719D01*
X40317595Y-55412025D01*
X40435211Y-55764151D01*
X40560685Y-55998896D01*
X40850623Y-56124771D01*
X41984395Y-54991000D01*
X42343605Y-54991000D01*
X43477377Y-56124771D01*
X43767315Y-55998896D01*
X43933139Y-55666738D01*
X44030975Y-55308613D01*
X44057065Y-54938281D01*
X44010405Y-54569975D01*
X43892789Y-54217849D01*
X43767315Y-53983104D01*
X43477377Y-53857229D01*
X42343605Y-54991000D01*
X41984395Y-54991000D01*
X40850623Y-53857229D01*
X40560685Y-53983104D01*
X40394861Y-54315262D01*
X40297025Y-54673387D01*
X40270935Y-55043719D01*
X38023000Y-55043719D01*
X38023000Y-53677623D01*
X41030229Y-53677623D01*
X42164000Y-54811395D01*
X43297771Y-53677623D01*
X43171896Y-53387685D01*
X42839738Y-53221861D01*
X42481613Y-53124025D01*
X42111281Y-53097935D01*
X41742975Y-53144595D01*
X41390849Y-53262211D01*
X41156104Y-53387685D01*
X41030229Y-53677623D01*
X38023000Y-53677623D01*
X38023000Y-49145427D01*
X41292500Y-49145427D01*
X41292500Y-49279573D01*
X41318671Y-49411140D01*
X41370006Y-49535074D01*
X41444533Y-49646612D01*
X41539388Y-49741467D01*
X41650926Y-49815994D01*
X41774860Y-49867329D01*
X41906427Y-49893500D01*
X42040573Y-49893500D01*
X42172140Y-49867329D01*
X42296074Y-49815994D01*
X42407612Y-49741467D01*
X42430579Y-49718500D01*
X44949154Y-49718500D01*
X44974000Y-49720947D01*
X44998846Y-49718500D01*
X44998854Y-49718500D01*
X45073193Y-49711178D01*
X45168575Y-49682245D01*
X45256479Y-49635259D01*
X45333527Y-49572027D01*
X45349376Y-49552715D01*
X45883664Y-49018427D01*
X50373000Y-49018427D01*
X50373000Y-49152573D01*
X50399171Y-49284140D01*
X50450506Y-49408074D01*
X50525033Y-49519612D01*
X50619888Y-49614467D01*
X50731426Y-49688994D01*
X50855360Y-49740329D01*
X50986927Y-49766500D01*
X51121073Y-49766500D01*
X51252640Y-49740329D01*
X51369215Y-49692042D01*
X58151392Y-56474220D01*
X58167237Y-56493527D01*
X58244285Y-56556759D01*
X58332189Y-56603745D01*
X58405371Y-56625944D01*
X58427570Y-56632678D01*
X58437458Y-56633652D01*
X58501910Y-56640000D01*
X58501917Y-56640000D01*
X58526763Y-56642447D01*
X58551609Y-56640000D01*
X59169421Y-56640000D01*
X59192388Y-56662967D01*
X59303926Y-56737494D01*
X59427860Y-56788829D01*
X59559427Y-56815000D01*
X59693573Y-56815000D01*
X59825140Y-56788829D01*
X59949074Y-56737494D01*
X60060612Y-56662967D01*
X60155467Y-56568112D01*
X60229994Y-56456574D01*
X60281329Y-56332640D01*
X60307500Y-56201073D01*
X60307500Y-56066927D01*
X60281329Y-55935360D01*
X60229994Y-55811426D01*
X60155467Y-55699888D01*
X60138729Y-55683150D01*
X60168167Y-55653712D01*
X60242694Y-55542174D01*
X60294029Y-55418240D01*
X60320200Y-55286673D01*
X60320200Y-55152527D01*
X60294029Y-55020960D01*
X60242694Y-54897026D01*
X60168167Y-54785488D01*
X60145200Y-54762521D01*
X60145200Y-51382927D01*
X60179000Y-51382927D01*
X60179000Y-51517073D01*
X60205171Y-51648640D01*
X60256506Y-51772574D01*
X60331033Y-51884112D01*
X60425888Y-51978967D01*
X60537426Y-52053494D01*
X60661360Y-52104829D01*
X60792927Y-52131000D01*
X60825408Y-52131000D01*
X61084628Y-52390220D01*
X61100473Y-52409527D01*
X61177521Y-52472759D01*
X61258959Y-52516289D01*
X61265425Y-52519745D01*
X61360806Y-52548678D01*
X61370694Y-52549652D01*
X61435146Y-52556000D01*
X61435153Y-52556000D01*
X61459999Y-52558447D01*
X61484845Y-52556000D01*
X61882921Y-52556000D01*
X61905888Y-52578967D01*
X62017426Y-52653494D01*
X62141360Y-52704829D01*
X62272927Y-52731000D01*
X62407073Y-52731000D01*
X62538640Y-52704829D01*
X62662574Y-52653494D01*
X62774112Y-52578967D01*
X62868967Y-52484112D01*
X62943494Y-52372574D01*
X62994829Y-52248640D01*
X63021000Y-52117073D01*
X63021000Y-51982927D01*
X62994829Y-51851360D01*
X62943494Y-51727426D01*
X62868967Y-51615888D01*
X62774112Y-51521033D01*
X62678706Y-51457285D01*
X62797927Y-51481000D01*
X62932073Y-51481000D01*
X63063640Y-51454829D01*
X63187574Y-51403494D01*
X63299112Y-51328967D01*
X63322079Y-51306000D01*
X65703409Y-51306000D01*
X66045628Y-51648220D01*
X66061473Y-51667527D01*
X66138521Y-51730759D01*
X66226425Y-51777745D01*
X66257950Y-51787308D01*
X66222360Y-51794387D01*
X66098426Y-51845722D01*
X65986888Y-51920249D01*
X65892033Y-52015104D01*
X65817506Y-52126642D01*
X65766171Y-52250576D01*
X65740000Y-52382143D01*
X65740000Y-52516289D01*
X65766171Y-52647856D01*
X65817506Y-52771790D01*
X65892033Y-52883328D01*
X65915001Y-52906296D01*
X65915000Y-53757921D01*
X65892033Y-53780888D01*
X65817506Y-53892426D01*
X65766171Y-54016360D01*
X65740000Y-54147927D01*
X65740000Y-54282073D01*
X65766171Y-54413640D01*
X65817506Y-54537574D01*
X65892033Y-54649112D01*
X65986888Y-54743967D01*
X66098426Y-54818494D01*
X66222360Y-54869829D01*
X66353927Y-54896000D01*
X66488073Y-54896000D01*
X66502000Y-54893230D01*
X66502000Y-54931073D01*
X66528171Y-55062640D01*
X66579506Y-55186574D01*
X66654033Y-55298112D01*
X66748888Y-55392967D01*
X66860426Y-55467494D01*
X66984360Y-55518829D01*
X67115927Y-55545000D01*
X67250073Y-55545000D01*
X67381640Y-55518829D01*
X67505574Y-55467494D01*
X67617112Y-55392967D01*
X67711967Y-55298112D01*
X67786494Y-55186574D01*
X67837829Y-55062640D01*
X67864000Y-54931073D01*
X67864000Y-54796927D01*
X67837829Y-54665360D01*
X67786494Y-54541426D01*
X67711967Y-54429888D01*
X67689000Y-54406921D01*
X67689000Y-53494775D01*
X67754471Y-53396790D01*
X67805806Y-53272856D01*
X67831977Y-53141289D01*
X67831977Y-53007143D01*
X67805806Y-52875576D01*
X67754471Y-52751642D01*
X67679944Y-52640104D01*
X67585089Y-52545249D01*
X67473551Y-52470722D01*
X67349617Y-52419387D01*
X67218050Y-52393216D01*
X67102000Y-52393216D01*
X67102000Y-52382143D01*
X67075829Y-52250576D01*
X67024494Y-52126642D01*
X66949967Y-52015104D01*
X66855112Y-51920249D01*
X66743574Y-51845722D01*
X66666990Y-51814000D01*
X67106921Y-51814000D01*
X67129888Y-51836967D01*
X67241426Y-51911494D01*
X67365360Y-51962829D01*
X67496927Y-51989000D01*
X67631073Y-51989000D01*
X67762640Y-51962829D01*
X67886574Y-51911494D01*
X67998112Y-51836967D01*
X68092967Y-51742112D01*
X68167494Y-51630574D01*
X68218829Y-51506640D01*
X68245000Y-51375073D01*
X68245000Y-51240927D01*
X68218829Y-51109360D01*
X68167494Y-50985426D01*
X68092967Y-50873888D01*
X67998112Y-50779033D01*
X67886574Y-50704506D01*
X67762640Y-50653171D01*
X67631073Y-50627000D01*
X67496927Y-50627000D01*
X67365360Y-50653171D01*
X67241426Y-50704506D01*
X67129888Y-50779033D01*
X67106921Y-50802000D01*
X66630592Y-50802000D01*
X66288376Y-50459785D01*
X66272527Y-50440473D01*
X66195479Y-50377241D01*
X66107575Y-50330255D01*
X66012193Y-50301322D01*
X65937854Y-50294000D01*
X65937846Y-50294000D01*
X65913000Y-50291553D01*
X65888154Y-50294000D01*
X63322079Y-50294000D01*
X63299112Y-50271033D01*
X63187574Y-50196506D01*
X63063640Y-50145171D01*
X62932073Y-50119000D01*
X62797927Y-50119000D01*
X62666360Y-50145171D01*
X62542426Y-50196506D01*
X62430888Y-50271033D01*
X62336033Y-50365888D01*
X62261506Y-50477426D01*
X62210171Y-50601360D01*
X62184000Y-50732927D01*
X62184000Y-50867073D01*
X62210171Y-50998640D01*
X62261506Y-51122574D01*
X62336033Y-51234112D01*
X62430888Y-51328967D01*
X62526294Y-51392715D01*
X62407073Y-51369000D01*
X62272927Y-51369000D01*
X62141360Y-51395171D01*
X62017426Y-51446506D01*
X61905888Y-51521033D01*
X61882921Y-51544000D01*
X61669592Y-51544000D01*
X61541000Y-51415408D01*
X61541000Y-51382927D01*
X61514829Y-51251360D01*
X61463494Y-51127426D01*
X61388967Y-51015888D01*
X61294112Y-50921033D01*
X61182574Y-50846506D01*
X61058640Y-50795171D01*
X60927073Y-50769000D01*
X60792927Y-50769000D01*
X60661360Y-50795171D01*
X60537426Y-50846506D01*
X60425888Y-50921033D01*
X60331033Y-51015888D01*
X60256506Y-51127426D01*
X60205171Y-51251360D01*
X60179000Y-51382927D01*
X60145200Y-51382927D01*
X60145200Y-48469591D01*
X60384992Y-48229800D01*
X60417473Y-48229800D01*
X60549040Y-48203629D01*
X60672974Y-48152294D01*
X60784512Y-48077767D01*
X60879367Y-47982912D01*
X60953894Y-47871374D01*
X60978517Y-47811927D01*
X64724000Y-47811927D01*
X64724000Y-47946073D01*
X64750171Y-48077640D01*
X64801506Y-48201574D01*
X64876033Y-48313112D01*
X64970888Y-48407967D01*
X65082426Y-48482494D01*
X65206360Y-48533829D01*
X65337927Y-48560000D01*
X65370409Y-48560000D01*
X66426628Y-49616220D01*
X66442473Y-49635527D01*
X66519521Y-49698759D01*
X66607425Y-49745745D01*
X66675847Y-49766500D01*
X66702806Y-49774678D01*
X66712694Y-49775652D01*
X66777146Y-49782000D01*
X66777153Y-49782000D01*
X66801999Y-49784447D01*
X66826845Y-49782000D01*
X68630921Y-49782000D01*
X68653888Y-49804967D01*
X68765426Y-49879494D01*
X68889360Y-49930829D01*
X69020927Y-49957000D01*
X69155073Y-49957000D01*
X69286640Y-49930829D01*
X69410574Y-49879494D01*
X69522112Y-49804967D01*
X69616967Y-49710112D01*
X69691494Y-49598574D01*
X69742829Y-49474640D01*
X69769000Y-49343073D01*
X69769000Y-49208927D01*
X69742829Y-49077360D01*
X69691494Y-48953426D01*
X69616967Y-48841888D01*
X69522112Y-48747033D01*
X69410574Y-48672506D01*
X69286640Y-48621171D01*
X69155073Y-48595000D01*
X69020927Y-48595000D01*
X68889360Y-48621171D01*
X68765426Y-48672506D01*
X68653888Y-48747033D01*
X68630921Y-48770000D01*
X67011592Y-48770000D01*
X66086000Y-47844409D01*
X66086000Y-47811927D01*
X66059829Y-47680360D01*
X66008494Y-47556426D01*
X65933967Y-47444888D01*
X65839112Y-47350033D01*
X65727574Y-47275506D01*
X65603640Y-47224171D01*
X65472073Y-47198000D01*
X65337927Y-47198000D01*
X65206360Y-47224171D01*
X65082426Y-47275506D01*
X64970888Y-47350033D01*
X64876033Y-47444888D01*
X64801506Y-47556426D01*
X64750171Y-47680360D01*
X64724000Y-47811927D01*
X60978517Y-47811927D01*
X61005229Y-47747440D01*
X61031400Y-47615873D01*
X61031400Y-47481727D01*
X61005229Y-47350160D01*
X60953894Y-47226226D01*
X60879367Y-47114688D01*
X60784512Y-47019833D01*
X60672974Y-46945306D01*
X60549040Y-46893971D01*
X60417473Y-46867800D01*
X60283327Y-46867800D01*
X60151760Y-46893971D01*
X60027826Y-46945306D01*
X59920827Y-47016800D01*
X59904473Y-46992325D01*
X59809618Y-46897470D01*
X59698080Y-46822943D01*
X59574146Y-46771608D01*
X59442579Y-46745437D01*
X59308433Y-46745437D01*
X59176866Y-46771608D01*
X59052932Y-46822943D01*
X58941394Y-46897470D01*
X58846539Y-46992325D01*
X58772012Y-47103863D01*
X58720677Y-47227797D01*
X58694506Y-47359364D01*
X58694506Y-47391845D01*
X58384585Y-47701767D01*
X58365273Y-47717616D01*
X58302041Y-47794664D01*
X58255055Y-47882569D01*
X58226122Y-47977951D01*
X58218800Y-48052290D01*
X58218800Y-48052297D01*
X58216353Y-48077143D01*
X58218800Y-48101989D01*
X58218801Y-53749222D01*
X58155612Y-53686033D01*
X58044074Y-53611506D01*
X57920140Y-53560171D01*
X57809818Y-53538226D01*
X54481000Y-50209409D01*
X54481000Y-47891579D01*
X54503967Y-47868612D01*
X54578494Y-47757074D01*
X54614000Y-47671354D01*
X54614000Y-49345154D01*
X54611553Y-49370000D01*
X54614000Y-49394846D01*
X54614000Y-49394853D01*
X54621322Y-49469192D01*
X54650255Y-49564574D01*
X54697241Y-49652479D01*
X54760473Y-49729527D01*
X54779785Y-49745376D01*
X56509000Y-51474592D01*
X56509000Y-51507073D01*
X56535171Y-51638640D01*
X56586506Y-51762574D01*
X56661033Y-51874112D01*
X56755888Y-51968967D01*
X56867426Y-52043494D01*
X56991360Y-52094829D01*
X57122927Y-52121000D01*
X57257073Y-52121000D01*
X57388640Y-52094829D01*
X57512574Y-52043494D01*
X57624112Y-51968967D01*
X57718967Y-51874112D01*
X57793494Y-51762574D01*
X57844829Y-51638640D01*
X57871000Y-51507073D01*
X57871000Y-51372927D01*
X57844829Y-51241360D01*
X57793494Y-51117426D01*
X57718967Y-51005888D01*
X57624112Y-50911033D01*
X57512574Y-50836506D01*
X57388640Y-50785171D01*
X57257073Y-50759000D01*
X57224592Y-50759000D01*
X55626000Y-49160409D01*
X55626000Y-45957079D01*
X55648967Y-45934112D01*
X55723494Y-45822574D01*
X55774829Y-45698640D01*
X55801000Y-45567073D01*
X55801000Y-45432927D01*
X55774829Y-45301360D01*
X55723494Y-45177426D01*
X55648967Y-45065888D01*
X55554112Y-44971033D01*
X55442574Y-44896506D01*
X55318640Y-44845171D01*
X55187073Y-44819000D01*
X55052927Y-44819000D01*
X54921360Y-44845171D01*
X54797426Y-44896506D01*
X54685888Y-44971033D01*
X54591033Y-45065888D01*
X54516506Y-45177426D01*
X54465171Y-45301360D01*
X54439000Y-45432927D01*
X54439000Y-45567073D01*
X54465171Y-45698640D01*
X54516506Y-45822574D01*
X54591033Y-45934112D01*
X54614001Y-45957080D01*
X54614001Y-47197647D01*
X54578494Y-47111926D01*
X54503967Y-47000388D01*
X54409112Y-46905533D01*
X54297574Y-46831006D01*
X54173640Y-46779671D01*
X54042073Y-46753500D01*
X53907927Y-46753500D01*
X53776360Y-46779671D01*
X53652426Y-46831006D01*
X53540888Y-46905533D01*
X53446033Y-47000388D01*
X53371506Y-47111926D01*
X53320171Y-47235860D01*
X53294000Y-47367427D01*
X53294000Y-47501573D01*
X53320171Y-47633140D01*
X53371506Y-47757074D01*
X53446033Y-47868612D01*
X53469000Y-47891579D01*
X53469001Y-50360646D01*
X51853640Y-48745285D01*
X51837791Y-48725973D01*
X51760743Y-48662741D01*
X51672839Y-48615755D01*
X51577457Y-48586822D01*
X51511949Y-48580370D01*
X51488112Y-48556533D01*
X51376574Y-48482006D01*
X51252640Y-48430671D01*
X51121073Y-48404500D01*
X50986927Y-48404500D01*
X50855360Y-48430671D01*
X50731426Y-48482006D01*
X50619888Y-48556533D01*
X50525033Y-48651388D01*
X50450506Y-48762926D01*
X50399171Y-48886860D01*
X50373000Y-49018427D01*
X45883664Y-49018427D01*
X46008592Y-48893500D01*
X46041073Y-48893500D01*
X46172640Y-48867329D01*
X46296574Y-48815994D01*
X46408112Y-48741467D01*
X46502967Y-48646612D01*
X46577494Y-48535074D01*
X46628829Y-48411140D01*
X46655000Y-48279573D01*
X46655000Y-48145427D01*
X46628829Y-48013860D01*
X46577494Y-47889926D01*
X46502967Y-47778388D01*
X46408112Y-47683533D01*
X46296574Y-47609006D01*
X46172640Y-47557671D01*
X46041073Y-47531500D01*
X45906927Y-47531500D01*
X45775360Y-47557671D01*
X45651426Y-47609006D01*
X45539888Y-47683533D01*
X45445033Y-47778388D01*
X45370506Y-47889926D01*
X45319171Y-48013860D01*
X45293000Y-48145427D01*
X45293000Y-48177908D01*
X44764409Y-48706500D01*
X42430579Y-48706500D01*
X42407612Y-48683533D01*
X42296074Y-48609006D01*
X42172140Y-48557671D01*
X42040573Y-48531500D01*
X41906427Y-48531500D01*
X41774860Y-48557671D01*
X41650926Y-48609006D01*
X41539388Y-48683533D01*
X41444533Y-48778388D01*
X41370006Y-48889926D01*
X41318671Y-49013860D01*
X41292500Y-49145427D01*
X38023000Y-49145427D01*
X38023000Y-36081600D01*
X40328367Y-36081600D01*
X40328367Y-37781600D01*
X40340473Y-37904513D01*
X40376325Y-38022703D01*
X40434547Y-38131628D01*
X40512899Y-38227101D01*
X40608372Y-38305453D01*
X40717297Y-38363675D01*
X40835487Y-38399527D01*
X40958400Y-38411633D01*
X42658400Y-38411633D01*
X42781313Y-38399527D01*
X42899503Y-38363675D01*
X43008428Y-38305453D01*
X43103901Y-38227101D01*
X43182253Y-38131628D01*
X43240475Y-38022703D01*
X43276327Y-37904513D01*
X43288433Y-37781600D01*
X43288433Y-37262927D01*
X44039000Y-37262927D01*
X44039000Y-37397073D01*
X44065171Y-37528640D01*
X44116506Y-37652574D01*
X44191033Y-37764112D01*
X44285888Y-37858967D01*
X44397426Y-37933494D01*
X44521360Y-37984829D01*
X44652927Y-38011000D01*
X44685409Y-38011000D01*
X47804628Y-41130220D01*
X47820473Y-41149527D01*
X47897521Y-41212759D01*
X47985425Y-41259745D01*
X48080807Y-41288678D01*
X48180000Y-41298448D01*
X48204854Y-41296000D01*
X49732921Y-41296000D01*
X49755888Y-41318967D01*
X49867426Y-41393494D01*
X49991360Y-41444829D01*
X50122927Y-41471000D01*
X50257073Y-41471000D01*
X50388640Y-41444829D01*
X50512574Y-41393494D01*
X50624112Y-41318967D01*
X50718967Y-41224112D01*
X50793494Y-41112574D01*
X50844829Y-40988640D01*
X50871000Y-40857073D01*
X50871000Y-40722927D01*
X50844829Y-40591360D01*
X50793494Y-40467426D01*
X50718967Y-40355888D01*
X50624112Y-40261033D01*
X50512574Y-40186506D01*
X50388640Y-40135171D01*
X50257073Y-40109000D01*
X50122927Y-40109000D01*
X49991360Y-40135171D01*
X49867426Y-40186506D01*
X49755888Y-40261033D01*
X49732921Y-40284000D01*
X48389592Y-40284000D01*
X45401000Y-37295409D01*
X45401000Y-37262927D01*
X45374829Y-37131360D01*
X45323494Y-37007426D01*
X45248967Y-36895888D01*
X45154112Y-36801033D01*
X45042574Y-36726506D01*
X44918640Y-36675171D01*
X44787073Y-36649000D01*
X44652927Y-36649000D01*
X44521360Y-36675171D01*
X44397426Y-36726506D01*
X44285888Y-36801033D01*
X44191033Y-36895888D01*
X44116506Y-37007426D01*
X44065171Y-37131360D01*
X44039000Y-37262927D01*
X43288433Y-37262927D01*
X43288433Y-36081600D01*
X43276327Y-35958687D01*
X43240475Y-35840497D01*
X43182253Y-35731572D01*
X43103901Y-35636099D01*
X43008428Y-35557747D01*
X42899503Y-35499525D01*
X42820856Y-35475668D01*
X43003578Y-35272955D01*
X43152557Y-35022852D01*
X43249881Y-34748491D01*
X43129214Y-34518600D01*
X41935400Y-34518600D01*
X41935400Y-34538600D01*
X41681400Y-34538600D01*
X41681400Y-34518600D01*
X40487586Y-34518600D01*
X40366919Y-34748491D01*
X40464243Y-35022852D01*
X40613222Y-35272955D01*
X40795944Y-35475668D01*
X40717297Y-35499525D01*
X40608372Y-35557747D01*
X40512899Y-35636099D01*
X40434547Y-35731572D01*
X40376325Y-35840497D01*
X40340473Y-35958687D01*
X40328367Y-36081600D01*
X38023000Y-36081600D01*
X38023000Y-34034709D01*
X40366919Y-34034709D01*
X40487586Y-34264600D01*
X41681400Y-34264600D01*
X41681400Y-33071445D01*
X41935400Y-33071445D01*
X41935400Y-34264600D01*
X43129214Y-34264600D01*
X43249881Y-34034709D01*
X43152557Y-33760348D01*
X43003578Y-33510245D01*
X42808669Y-33294012D01*
X42575320Y-33119959D01*
X42312499Y-32994775D01*
X42165290Y-32950124D01*
X41935400Y-33071445D01*
X41681400Y-33071445D01*
X41451510Y-32950124D01*
X41304301Y-32994775D01*
X41041480Y-33119959D01*
X40808131Y-33294012D01*
X40613222Y-33510245D01*
X40464243Y-33760348D01*
X40366919Y-34034709D01*
X38023000Y-34034709D01*
X38023000Y-29746764D01*
X41870341Y-29746764D01*
X42090307Y-30116801D01*
X42555627Y-30360672D01*
X43059583Y-30509078D01*
X43582808Y-30556315D01*
X44105195Y-30500569D01*
X44606669Y-30343981D01*
X45031693Y-30116801D01*
X45213911Y-29810264D01*
X54760841Y-29810264D01*
X54980807Y-30180301D01*
X55446127Y-30424172D01*
X55950083Y-30572578D01*
X56473308Y-30619815D01*
X56995695Y-30564069D01*
X57497169Y-30407481D01*
X57922193Y-30180301D01*
X58142159Y-29810264D01*
X58015159Y-29683264D01*
X67651341Y-29683264D01*
X67871307Y-30053301D01*
X68336627Y-30297172D01*
X68840583Y-30445578D01*
X69363808Y-30492815D01*
X69886195Y-30437069D01*
X70387669Y-30280481D01*
X70812693Y-30053301D01*
X71032659Y-29683264D01*
X69342000Y-27992605D01*
X67651341Y-29683264D01*
X58015159Y-29683264D01*
X56451500Y-28119605D01*
X54760841Y-29810264D01*
X45213911Y-29810264D01*
X45251659Y-29746764D01*
X43561000Y-28056105D01*
X41870341Y-29746764D01*
X38023000Y-29746764D01*
X38023000Y-27898308D01*
X40881185Y-27898308D01*
X40936931Y-28420695D01*
X41093519Y-28922169D01*
X41320699Y-29347193D01*
X41690736Y-29567159D01*
X43381395Y-27876500D01*
X43740605Y-27876500D01*
X45431264Y-29567159D01*
X45801301Y-29347193D01*
X46045172Y-28881873D01*
X46193578Y-28377917D01*
X46231144Y-27961808D01*
X53771685Y-27961808D01*
X53827431Y-28484195D01*
X53984019Y-28985669D01*
X54211199Y-29410693D01*
X54581236Y-29630659D01*
X56271895Y-27940000D01*
X56631105Y-27940000D01*
X58321764Y-29630659D01*
X58691801Y-29410693D01*
X58935672Y-28945373D01*
X59084078Y-28441417D01*
X59131315Y-27918192D01*
X59122417Y-27834808D01*
X66662185Y-27834808D01*
X66717931Y-28357195D01*
X66874519Y-28858669D01*
X67101699Y-29283693D01*
X67471736Y-29503659D01*
X69162395Y-27813000D01*
X69521605Y-27813000D01*
X71212264Y-29503659D01*
X71582301Y-29283693D01*
X71826172Y-28818373D01*
X71974578Y-28314417D01*
X72021815Y-27791192D01*
X71966069Y-27268805D01*
X71809481Y-26767331D01*
X71582301Y-26342307D01*
X71212264Y-26122341D01*
X69521605Y-27813000D01*
X69162395Y-27813000D01*
X67471736Y-26122341D01*
X67101699Y-26342307D01*
X66857828Y-26807627D01*
X66709422Y-27311583D01*
X66662185Y-27834808D01*
X59122417Y-27834808D01*
X59075569Y-27395805D01*
X58918981Y-26894331D01*
X58691801Y-26469307D01*
X58321764Y-26249341D01*
X56631105Y-27940000D01*
X56271895Y-27940000D01*
X54581236Y-26249341D01*
X54211199Y-26469307D01*
X53967328Y-26934627D01*
X53818922Y-27438583D01*
X53771685Y-27961808D01*
X46231144Y-27961808D01*
X46240815Y-27854692D01*
X46185069Y-27332305D01*
X46028481Y-26830831D01*
X45801301Y-26405807D01*
X45431264Y-26185841D01*
X43740605Y-27876500D01*
X43381395Y-27876500D01*
X41690736Y-26185841D01*
X41320699Y-26405807D01*
X41076828Y-26871127D01*
X40928422Y-27375083D01*
X40881185Y-27898308D01*
X38023000Y-27898308D01*
X38023000Y-26006236D01*
X41870341Y-26006236D01*
X43561000Y-27696895D01*
X45188159Y-26069736D01*
X54760841Y-26069736D01*
X56451500Y-27760395D01*
X58142159Y-26069736D01*
X58066665Y-25942736D01*
X67651341Y-25942736D01*
X69342000Y-27633395D01*
X71032659Y-25942736D01*
X70812693Y-25572699D01*
X70347373Y-25328828D01*
X69843417Y-25180422D01*
X69320192Y-25133185D01*
X68797805Y-25188931D01*
X68296331Y-25345519D01*
X67871307Y-25572699D01*
X67651341Y-25942736D01*
X58066665Y-25942736D01*
X57922193Y-25699699D01*
X57456873Y-25455828D01*
X56952917Y-25307422D01*
X56429692Y-25260185D01*
X55907305Y-25315931D01*
X55405831Y-25472519D01*
X54980807Y-25699699D01*
X54760841Y-26069736D01*
X45188159Y-26069736D01*
X45251659Y-26006236D01*
X45031693Y-25636199D01*
X44566373Y-25392328D01*
X44062417Y-25243922D01*
X43539192Y-25196685D01*
X43016805Y-25252431D01*
X42515331Y-25409019D01*
X42090307Y-25636199D01*
X41870341Y-26006236D01*
X38023000Y-26006236D01*
X38023000Y-22275000D01*
X74753000Y-22275000D01*
X74753000Y-36521870D01*
M02*
